<svg width="136" height="114" viewBox="0 0 136 114" fill="none" xmlns="http://www.w3.org/2000/svg">
<g opacity="0.3">
<path d="M45.0697 113.193L44.3832 113.159V0L44.9667 0.583559L124.399 80.0162L123.936 80.5311L54.2865 23.8744L45.0869 113.21L45.0697 113.193ZM45.0697 1.64769V106.482L53.7201 22.5357L119.199 75.7768L45.0869 1.64769H45.0697Z" fill="url(#paint0_radial_711_95)"/>
<path d="M91.0162 113.416L11 33.3831H124.176L124.21 34.0696L34.8744 43.2692L91.5311 112.936L91.0162 113.399V113.416ZM12.6649 34.0696L86.7768 108.199L33.5357 42.72L117.482 34.0696H12.6649Z" fill="url(#paint1_radial_711_95)"/>
<path d="M124.176 80.5997H11L11.5836 80.0161L91.0162 0.583496L91.5311 1.04691L34.8744 70.7135L124.21 79.9131L124.176 80.5997ZM12.6649 79.9131H117.482L33.5357 71.2627L86.7768 5.8012L12.6649 79.9131Z" fill="url(#paint2_radial_711_95)"/>
<path d="M44.4003 114V0.823878L45.0868 0.789551L54.2864 90.1255L123.953 33.4688L124.416 33.9837L44.4003 114ZM45.0868 7.51764V112.352L119.199 38.206L53.72 91.4471L53.6514 90.812L45.0868 7.51764Z" fill="url(#paint3_radial_711_95)"/>
<path d="M91.6171 114L91.0335 113.416L11.5837 33.9666L12.0472 33.4517L81.7309 90.1255L90.9306 0.789551L91.6171 0.823878V114ZM16.8014 38.206L90.9306 112.335V7.51764L82.2802 91.4643L16.8014 38.206Z" fill="url(#paint4_radial_711_95)"/>
<path d="M125 80.5997H11.8411L11.8068 79.9132L101.143 70.7136L44.4002 0.943992V0L125 80.5997ZM18.5177 79.9132H123.335L49.2232 5.80126L102.464 71.28L18.5177 79.9304V79.9132Z" fill="url(#paint5_radial_711_95)"/>
<path d="M44.4002 114V113.056L101.125 43.2692L11.6694 34.0524L11 33.3831H125L124.416 33.9666L44.4002 113.983V114ZM18.5176 34.0696L102.464 42.72L49.2231 108.199L123.335 34.0696H18.5176Z" fill="url(#paint6_radial_711_95)"/>
<path d="M90.9304 113.193L81.7308 23.8572L11.9612 80.5997H11.0172L91.617 0V113.159L90.9304 113.193ZM82.28 22.5185L82.3487 23.1535L90.9304 106.465V1.64769L16.8013 75.7768L82.28 22.5357V22.5185Z" fill="url(#paint7_radial_711_95)"/>
</g>
<path d="M7.02697 63.18C8.98897 63.18 10.717 62.352 11.815 60.894L11.023 60.228C10.105 61.506 8.68297 62.208 7.02697 62.208C4.11097 62.208 1.96897 60.012 1.96897 56.79C1.96897 53.568 4.12897 51.372 7.02697 51.372C8.61097 51.372 10.051 52.074 10.969 53.316L11.761 52.668C10.627 51.21 8.93497 50.4 7.02697 50.4C3.53497 50.4 0.906969 53.028 0.906969 56.79C0.906969 60.552 3.53497 63.18 7.02697 63.18ZM20.1802 63.18C23.7082 63.18 26.3362 60.516 26.3362 56.79C26.3362 53.064 23.7082 50.4 20.1802 50.4C16.6342 50.4 14.0062 53.064 14.0062 56.79C14.0062 60.516 16.6342 63.18 20.1802 63.18ZM20.1802 62.208C17.2462 62.208 15.0682 60.012 15.0682 56.79C15.0682 53.568 17.2462 51.372 20.1802 51.372C23.0962 51.372 25.2742 53.568 25.2742 56.79C25.2742 60.012 23.0962 62.208 20.1802 62.208ZM30.6967 63V52.434C30.6967 52.272 30.6967 52.11 30.6787 51.93L30.9307 52.416L34.7647 59.742H35.8447L39.6787 52.434C39.7687 52.272 39.8587 52.11 39.9487 51.93C39.9307 52.11 39.9307 52.272 39.9307 52.434V63H40.9567V50.58H39.5347L35.3227 58.644L31.1107 50.58H29.6887V63H30.6967ZM46.0468 63V50.58H45.0028V63H46.0468ZM51.1119 63V52.434C51.1119 52.254 51.1119 52.11 51.0939 51.93C51.2019 52.092 51.2919 52.254 51.3999 52.434L58.4379 63H59.7159V50.58H58.6899V61.146C58.6899 61.326 58.6899 61.47 58.7079 61.65C58.6179 61.488 58.5279 61.326 58.4019 61.146L51.3819 50.58H50.1039V63H51.1119ZM69.2372 57.618H73.3952V58.932C73.3952 60.93 71.5952 62.208 69.2372 62.208C66.2492 62.208 64.1252 60.066 64.1252 56.79C64.1252 53.568 66.2852 51.372 69.1832 51.372C71.0912 51.372 72.5492 52.074 73.4852 53.316L74.2772 52.65C73.1252 51.21 71.3612 50.4 69.1832 50.4C65.6912 50.4 63.0632 53.028 63.0632 56.79C63.0632 60.588 65.6732 63.18 69.2372 63.18C71.2172 63.18 72.7112 62.424 73.4672 61.038V63H74.4212V56.7H69.2372V57.618ZM87.3431 63.162C89.9171 63.162 91.4651 61.866 91.4651 59.814C91.4651 58.014 90.4211 57.078 87.9731 56.412L86.7131 56.052C84.9311 55.566 84.1391 54.936 84.1391 53.676C84.1391 52.236 85.2371 51.336 86.9651 51.336C88.4771 51.336 89.4311 51.75 90.4751 52.92L91.2311 52.236C90.1331 50.976 88.7831 50.4 87.0551 50.4C84.6251 50.4 83.0951 51.678 83.0951 53.694C83.0951 55.476 84.1751 56.412 86.4431 57.042L87.7031 57.384C89.7011 57.924 90.4211 58.554 90.4211 59.832C90.4211 61.326 89.3051 62.226 87.3431 62.226C85.6511 62.226 84.5891 61.722 83.5091 60.534L82.7531 61.218C83.8691 62.514 85.3811 63.162 87.3431 63.162ZM100.291 63.18C103.819 63.18 106.447 60.516 106.447 56.79C106.447 53.064 103.819 50.4 100.291 50.4C96.7447 50.4 94.1167 53.064 94.1167 56.79C94.1167 60.516 96.7447 63.18 100.291 63.18ZM100.291 62.208C97.3567 62.208 95.1787 60.012 95.1787 56.79C95.1787 53.568 97.3567 51.372 100.291 51.372C103.207 51.372 105.385 53.568 105.385 56.79C105.385 60.012 103.207 62.208 100.291 62.208ZM115.253 63.18C118.781 63.18 121.409 60.516 121.409 56.79C121.409 53.064 118.781 50.4 115.253 50.4C111.707 50.4 109.079 53.064 109.079 56.79C109.079 60.516 111.707 63.18 115.253 63.18ZM115.253 62.208C112.319 62.208 110.141 60.012 110.141 56.79C110.141 53.568 112.319 51.372 115.253 51.372C118.169 51.372 120.347 53.568 120.347 56.79C120.347 60.012 118.169 62.208 115.253 62.208ZM125.77 63V52.434C125.77 52.254 125.77 52.11 125.752 51.93C125.86 52.092 125.95 52.254 126.058 52.434L133.096 63H134.374V50.58H133.348V61.146C133.348 61.326 133.348 61.47 133.366 61.65C133.276 61.488 133.186 61.326 133.06 61.146L126.04 50.58H124.762V63H125.77Z" fill="white"/>
<defs>
<radialGradient id="paint0_radial_711_95" cx="0" cy="0" r="1" gradientUnits="userSpaceOnUse" gradientTransform="translate(84.4084 56.6052) scale(49.0189 49.0189)">
<stop stop-color="#666665"/>
<stop offset="0.27" stop-color="#686867"/>
<stop offset="0.43" stop-color="#70706F"/>
<stop offset="0.56" stop-color="#7F7F7E"/>
<stop offset="0.68" stop-color="#939392"/>
<stop offset="0.78" stop-color="#ADADAC"/>
<stop offset="0.88" stop-color="#CDCDCD"/>
<stop offset="0.97" stop-color="#F2F2F2"/>
<stop offset="1" stop-color="white"/>
</radialGradient>
<radialGradient id="paint1_radial_711_95" cx="0" cy="0" r="1" gradientUnits="userSpaceOnUse" gradientTransform="translate(67.6052 73.3911) scale(49.0189 49.0189)">
<stop stop-color="#666665"/>
<stop offset="0.27" stop-color="#686867"/>
<stop offset="0.43" stop-color="#70706F"/>
<stop offset="0.56" stop-color="#7F7F7E"/>
<stop offset="0.68" stop-color="#939392"/>
<stop offset="0.78" stop-color="#ADADAC"/>
<stop offset="0.88" stop-color="#CDCDCD"/>
<stop offset="0.97" stop-color="#F2F2F2"/>
<stop offset="1" stop-color="white"/>
</radialGradient>
<radialGradient id="paint2_radial_711_95" cx="0" cy="0" r="1" gradientUnits="userSpaceOnUse" gradientTransform="translate(67.6052 40.5916) scale(49.0189)">
<stop stop-color="#666665"/>
<stop offset="0.27" stop-color="#686867"/>
<stop offset="0.43" stop-color="#70706F"/>
<stop offset="0.56" stop-color="#7F7F7E"/>
<stop offset="0.68" stop-color="#939392"/>
<stop offset="0.78" stop-color="#ADADAC"/>
<stop offset="0.88" stop-color="#CDCDCD"/>
<stop offset="0.97" stop-color="#F2F2F2"/>
<stop offset="1" stop-color="white"/>
</radialGradient>
<radialGradient id="paint3_radial_711_95" cx="0" cy="0" r="1" gradientUnits="userSpaceOnUse" gradientTransform="translate(-16.4443 57.3947) scale(0.858174)">
<stop stop-color="#666665"/>
<stop offset="0.27" stop-color="#686867"/>
<stop offset="0.43" stop-color="#70706F"/>
<stop offset="0.56" stop-color="#7F7F7E"/>
<stop offset="0.68" stop-color="#939392"/>
<stop offset="0.78" stop-color="#ADADAC"/>
<stop offset="0.88" stop-color="#CDCDCD"/>
<stop offset="0.97" stop-color="#F2F2F2"/>
<stop offset="1" stop-color="white"/>
</radialGradient>
<radialGradient id="paint4_radial_711_95" cx="0" cy="0" r="1" gradientUnits="userSpaceOnUse" gradientTransform="translate(51.609 57.3947) scale(0.858174)">
<stop stop-color="#666665"/>
<stop offset="0.27" stop-color="#686867"/>
<stop offset="0.43" stop-color="#70706F"/>
<stop offset="0.56" stop-color="#7F7F7E"/>
<stop offset="0.68" stop-color="#939392"/>
<stop offset="0.78" stop-color="#ADADAC"/>
<stop offset="0.88" stop-color="#CDCDCD"/>
<stop offset="0.97" stop-color="#F2F2F2"/>
<stop offset="1" stop-color="white"/>
</radialGradient>
<radialGradient id="paint5_radial_711_95" cx="0" cy="0" r="1" gradientUnits="userSpaceOnUse" gradientTransform="translate(68.3948 40.2999) scale(49.1391 49.1391)">
<stop stop-color="#666665"/>
<stop offset="0.27" stop-color="#686867"/>
<stop offset="0.43" stop-color="#70706F"/>
<stop offset="0.56" stop-color="#7F7F7E"/>
<stop offset="0.68" stop-color="#939392"/>
<stop offset="0.78" stop-color="#ADADAC"/>
<stop offset="0.88" stop-color="#CDCDCD"/>
<stop offset="0.97" stop-color="#F2F2F2"/>
<stop offset="1" stop-color="white"/>
</radialGradient>
<radialGradient id="paint6_radial_711_95" cx="0" cy="0" r="1" gradientUnits="userSpaceOnUse" gradientTransform="translate(68 73.6829) scale(49.3622 49.3622)">
<stop stop-color="#666665"/>
<stop offset="0.27" stop-color="#686867"/>
<stop offset="0.43" stop-color="#70706F"/>
<stop offset="0.56" stop-color="#7F7F7E"/>
<stop offset="0.68" stop-color="#939392"/>
<stop offset="0.78" stop-color="#ADADAC"/>
<stop offset="0.88" stop-color="#CDCDCD"/>
<stop offset="0.97" stop-color="#F2F2F2"/>
<stop offset="1" stop-color="white"/>
</radialGradient>
<radialGradient id="paint7_radial_711_95" cx="0" cy="0" r="1" gradientUnits="userSpaceOnUse" gradientTransform="translate(51.2999 0.858175) scale(49.1391 49.1391)">
<stop stop-color="#666665"/>
<stop offset="0.27" stop-color="#686867"/>
<stop offset="0.43" stop-color="#70706F"/>
<stop offset="0.56" stop-color="#7F7F7E"/>
<stop offset="0.68" stop-color="#939392"/>
<stop offset="0.78" stop-color="#ADADAC"/>
<stop offset="0.88" stop-color="#CDCDCD"/>
<stop offset="0.97" stop-color="#F2F2F2"/>
<stop offset="1" stop-color="white"/>
</radialGradient>
</defs>
</svg>
