<svg width="103" height="64" viewBox="0 0 103 64" fill="none" xmlns="http://www.w3.org/2000/svg">
<g clip-path="url(#clip0_571_1300)">
<path d="M17.5978 60.8055C17.5834 60.7838 17.54 60.7524 17.4652 60.709C17.3881 60.6656 17.294 60.6174 17.1807 60.5668C17.0674 60.5162 16.9444 60.4704 16.8094 60.4342C16.6744 60.3956 16.5394 60.3763 16.4068 60.3763C16.2284 60.3763 16.0934 60.4077 15.9969 60.4679C15.9005 60.5282 15.8523 60.6222 15.8523 60.7476C15.8523 60.8465 15.8884 60.9284 15.9608 60.9863C16.0331 61.0442 16.1416 61.0972 16.279 61.1406C16.4188 61.184 16.5876 61.237 16.7901 61.2949C17.0746 61.3697 17.3254 61.4613 17.5351 61.5674C17.7449 61.6734 17.9064 61.8109 18.0173 61.9772C18.1282 62.146 18.1861 62.3654 18.1861 62.6427C18.1861 62.8934 18.1379 63.1056 18.0463 63.2792C17.9547 63.4528 17.8293 63.5926 17.6702 63.6987C17.511 63.8048 17.3326 63.8819 17.1301 63.9301C16.9276 63.9784 16.7202 64.0025 16.5056 64.0025C16.2911 64.0025 16.062 63.9808 15.833 63.935C15.6039 63.8916 15.3845 63.8289 15.1724 63.7469C14.9626 63.6649 14.7673 63.5637 14.5913 63.4479L15.047 62.5438C15.0639 62.5655 15.1193 62.6041 15.2109 62.6619C15.305 62.7198 15.4183 62.7777 15.5557 62.838C15.6931 62.8982 15.845 62.9513 16.0138 62.9971C16.1826 63.0453 16.3537 63.067 16.5249 63.067C16.7106 63.067 16.848 63.0381 16.9396 62.9802C17.0312 62.9223 17.0746 62.8428 17.0746 62.7391C17.0746 62.6258 17.0288 62.539 16.9324 62.4763C16.8359 62.4136 16.7082 62.3582 16.5466 62.3075C16.3851 62.2569 16.1994 62.2015 15.9897 62.1364C15.7148 62.052 15.4882 61.9579 15.3122 61.8543C15.1314 61.7506 15.0012 61.6228 14.9144 61.4709C14.8276 61.3214 14.7842 61.131 14.7842 60.9067C14.7842 60.5933 14.8589 60.3281 15.0084 60.1111C15.1579 59.8965 15.358 59.7326 15.6112 59.6217C15.8643 59.5108 16.1392 59.4553 16.4381 59.4553C16.6479 59.4553 16.8504 59.4794 17.0481 59.5301C17.2434 59.5807 17.4266 59.6434 17.5978 59.7181C17.769 59.7929 17.9209 59.87 18.0559 59.9448L17.6026 60.8031L17.5978 60.8055ZM22.5862 64.0001C22.9093 64.0001 23.2082 63.9374 23.4783 63.8144C23.7483 63.689 23.987 63.5227 24.1895 63.3105C24.392 63.0983 24.5463 62.8572 24.6572 62.5872C24.7657 62.3172 24.8212 62.0351 24.8212 61.7337C24.8212 61.4516 24.7681 61.1768 24.6621 60.9043C24.5584 60.6343 24.4065 60.3884 24.2112 60.169C24.0159 59.9496 23.782 59.7784 23.512 59.6482C23.2396 59.5204 22.9382 59.4553 22.6055 59.4553C22.2728 59.4553 21.9834 59.5156 21.7086 59.6386C21.4361 59.7615 21.1974 59.9279 20.9973 60.14C20.7972 60.3522 20.6405 60.5933 20.532 60.8633C20.4211 61.131 20.3657 61.4155 20.3657 61.7144C20.3657 62.0134 20.4163 62.2858 20.5224 62.5583C20.6285 62.8283 20.7779 63.0742 20.9732 63.2912C21.1685 63.5082 21.4024 63.6794 21.6724 63.8072C21.9449 63.935 22.2486 64.0001 22.5862 64.0001ZM21.4193 61.7289C21.4193 61.5601 21.4434 61.3962 21.4916 61.2322C21.5398 61.0707 21.6146 60.926 21.7134 60.7982C21.8123 60.6705 21.9352 60.5668 22.0799 60.492C22.2245 60.4173 22.3981 60.3787 22.5958 60.3787C22.7815 60.3787 22.9478 60.4149 23.0949 60.4872C23.242 60.5596 23.3649 60.6584 23.4662 60.7862C23.5675 60.914 23.6446 61.0586 23.6952 61.2178C23.7459 61.3769 23.77 61.5432 23.77 61.7168C23.77 61.8904 23.7459 62.0496 23.6977 62.2135C23.6494 62.375 23.5771 62.5197 23.4807 62.6523C23.3842 62.7825 23.2613 62.8886 23.1142 62.9657C22.9671 63.0429 22.7935 63.0815 22.5982 63.0815C22.4029 63.0815 22.2414 63.0453 22.0943 62.9682C21.9473 62.891 21.8243 62.7921 21.7255 62.6644C21.6266 62.539 21.5519 62.3943 21.5012 62.2328C21.4506 62.0713 21.4265 61.9049 21.4265 61.7313L21.4193 61.7289ZM29.1971 64.0025C29.5467 64.0025 29.8457 63.9446 30.0964 63.8313C30.3472 63.718 30.5521 63.5588 30.7113 63.3539C30.8704 63.1514 30.9909 62.9127 31.0681 62.6451C31.1452 62.375 31.1838 62.0857 31.1838 61.7747V59.4867H30.1495V61.7747C30.1495 61.9387 30.1326 62.0978 30.0989 62.2545C30.0651 62.4112 30.0145 62.5486 29.9421 62.674C29.8698 62.797 29.7734 62.8958 29.6528 62.9706C29.5299 63.0429 29.378 63.0815 29.1996 63.0815C29.0211 63.0815 28.8741 63.0453 28.7535 62.9754C28.633 62.9031 28.5365 62.8066 28.4594 62.6861C28.3846 62.5631 28.3292 62.4233 28.2954 62.2665C28.2617 62.1074 28.2448 61.9459 28.2448 61.7771V59.4891H27.2081V61.7771C27.2081 62.0713 27.2442 62.3509 27.319 62.6186C27.3913 62.8862 27.5094 63.1249 27.6662 63.3322C27.8229 63.5396 28.0278 63.7035 28.281 63.8241C28.5341 63.9446 28.8379 64.0049 29.1971 64.0049V64.0025ZM37.2041 59.4915H33.4357V60.4004H34.8051V63.9735H35.8394V60.4004H37.2017V59.4915H37.2041ZM42.3082 59.4915V61.2274H40.5216V59.4915H39.4849V63.9735H40.5216V62.1364H42.3082V63.9735H43.3425V59.4915H42.3082ZM48.6636 63.9735H49.7244L50.0282 62.9706H51.5037L51.8075 63.9735H52.8683L51.3277 59.4915H50.2114L48.666 63.9735H48.6636ZM50.2428 62.2569L50.7635 60.533L51.2867 62.2569H50.2428ZM59.6842 63.9735V59.4915H58.5679L57.401 61.8326L56.2389 59.4915H55.1154V63.9735H56.1497V61.3046L57.1165 63.2478H57.6855L58.6523 61.3046V63.9735H59.6866H59.6842ZM63.455 63.0646V62.1122H65.2223V61.2732H63.455V60.4028H65.5116V59.4939H62.4207V63.9759H65.5695V63.067H63.455V63.0646ZM69.1522 63.9735V62.5269H69.8514L70.7097 63.9735H71.8501L70.8665 62.3075C71.0183 62.2231 71.1485 62.1147 71.257 61.982C71.3655 61.8494 71.4499 61.7 71.5102 61.5336C71.5705 61.3672 71.597 61.1912 71.597 61.0056C71.597 60.8199 71.5608 60.6391 71.4861 60.4559C71.4137 60.2751 71.3101 60.1135 71.1799 59.9665C71.0497 59.8218 70.8954 59.7061 70.7146 59.6193C70.5361 59.5325 70.3409 59.4891 70.1311 59.4891H68.1107V63.9711H69.1474L69.1522 63.9735ZM69.1522 60.4004H70.0684C70.148 60.4004 70.2227 60.427 70.295 60.4776C70.3674 60.5282 70.4277 60.6005 70.4759 60.6898C70.5241 60.779 70.5482 60.885 70.5482 61.008C70.5482 61.131 70.5265 61.2371 70.4855 61.3311C70.4421 61.4227 70.3891 61.495 70.324 61.5481C70.2589 61.6011 70.1841 61.6276 70.0998 61.6276H69.1546V60.4028L69.1522 60.4004ZM74.2033 63.9735H75.24V59.4915H74.2033V63.9735ZM77.7161 61.6879C77.7161 61.9748 77.7691 62.2545 77.8752 62.5318C77.9837 62.8066 78.1332 63.0549 78.3285 63.2768C78.5238 63.4986 78.7601 63.6746 79.0301 63.8072C79.3025 63.9398 79.5991 64.0049 79.9222 64.0049C80.1705 64.0049 80.4237 63.9639 80.6768 63.8819C80.9324 63.7999 81.159 63.6818 81.3615 63.5251C81.5641 63.3684 81.7087 63.1827 81.7955 62.9633L80.9493 62.4642C80.889 62.6113 80.8046 62.7295 80.6913 62.8211C80.5804 62.9103 80.4598 62.9778 80.3296 63.0188C80.1994 63.0598 80.0716 63.0815 79.9463 63.0815C79.7679 63.0815 79.6063 63.0453 79.4593 62.973C79.3122 62.8982 79.1868 62.7994 79.0831 62.6716C78.9795 62.5462 78.8999 62.4016 78.8469 62.2376C78.7914 62.0737 78.7649 61.9025 78.7649 61.7265C78.7649 61.5674 78.789 61.4082 78.8348 61.2467C78.8806 61.0852 78.9505 60.9405 79.0494 60.8103C79.1458 60.6801 79.2688 60.574 79.4159 60.4993C79.5629 60.4221 79.7365 60.3811 79.9342 60.3811C80.0572 60.3811 80.1826 60.398 80.3152 60.4342C80.4478 60.4704 80.5707 60.5306 80.6816 60.6198C80.7925 60.7066 80.8818 60.832 80.9517 60.9911L81.7473 60.4366C81.5954 60.1449 81.3664 59.911 81.0553 59.7302C80.7467 59.5494 80.3803 59.4601 79.9607 59.4601C79.6063 59.4601 79.2929 59.5228 79.0132 59.653C78.736 59.7808 78.4997 59.952 78.3068 60.1666C78.1139 60.3811 77.9668 60.6198 77.8656 60.8826C77.7643 61.1454 77.7137 61.4131 77.7137 61.6879H77.7161ZM83.7219 63.9735H84.7827L85.0865 62.9706H86.5621L86.8659 63.9735H87.9267L86.3861 59.4915H85.2698L83.7243 63.9735H83.7219ZM85.3011 62.2569L85.8219 60.533L86.3451 62.2569H85.3011Z" fill="white"/>
<path d="M31.1477 22.6779C31.5793 22.6779 31.9289 23.0275 31.9289 23.459V53.312C31.9289 54.2282 31.1863 54.9684 30.2725 54.9684H28.9754C28.5438 54.9684 28.1942 54.6188 28.1942 54.1872V24.3342C28.1942 23.4205 28.9368 22.6779 29.8506 22.6779H31.1477ZM31.1477 7.17996H29.8506C28.9344 7.17996 28.1942 7.92255 28.1942 8.83632V19.4206C28.1942 19.8522 28.5438 20.2018 28.9754 20.2018H30.2725C31.1863 20.2018 31.9289 19.4592 31.9289 18.5454V7.96112C31.9289 7.52956 31.5793 7.17996 31.1477 7.17996ZM53.1216 7.69109C53.0878 7.78753 53.7291 17.3375 44.2129 20.643C49.6497 22.9238 53.1216 28.0134 53.1216 35.2802V53.341C53.1216 54.2572 52.379 54.9997 51.4628 54.9997H50.1681C49.7365 54.9997 49.3869 54.6502 49.3869 54.2186V35.2826C49.3869 29.325 45.1122 23.8858 39.4681 22.6803V53.3458C39.4681 54.2596 38.7255 55.0022 37.8117 55.0022H36.5146C36.083 55.0022 35.7334 54.6526 35.7334 54.221V15.7342C35.7334 11.0062 39.5645 7.17514 44.2925 7.17514H52.6056C52.8901 7.17514 53.1216 7.40659 53.1216 7.69109ZM48.56 9.04125H44.0562C41.5222 9.04125 39.4657 11.0954 39.4657 13.6294V20.2138C44.9025 20.0282 49.2543 15.2182 49.2543 9.73803C49.2543 9.35468 48.9433 9.04125 48.5575 9.04125H48.56ZM87.1384 7.18237C91.6662 7.18237 95.3334 10.8519 95.3334 15.3774V53.0613C95.3334 54.139 94.4606 55.0142 93.3805 55.0142H86.6152C81.8221 55.0142 77.938 51.1301 77.938 46.337V33.6865C77.938 32.4545 78.5118 31.2924 79.4883 30.5426L91.5963 21.2506V16.0018C91.5963 12.1973 88.5102 9.11117 84.7057 9.11117H83.4592C82.4731 9.11117 81.6726 9.91162 81.6726 10.8977V18.5454C81.6726 19.4616 80.93 20.2018 80.0163 20.2018H78.7192C78.2876 20.2018 77.938 19.8522 77.938 19.4206V12.8048C77.938 9.69946 80.4551 7.18237 83.558 7.18237H87.1335H87.1384ZM91.5963 24.2884L82.0102 31.6444C81.7956 31.8083 81.6726 32.0615 81.6726 32.3315V46.5733C81.6726 50.1633 84.5851 53.0758 88.1751 53.0758H91.5963V24.2884ZM67.2476 7.17996H65.584C60.803 7.17996 56.9285 11.0544 56.9285 15.8355V46.3418C56.9285 51.1229 60.803 54.9973 65.584 54.9973H67.2476C71.0546 54.9973 74.1383 51.9113 74.1383 48.1067V41.2064C74.1383 40.7748 73.7887 40.4252 73.3571 40.4252H72.06C71.1462 40.4252 70.4036 41.1678 70.4036 42.0816V49.6449C70.4036 51.5351 68.8726 53.0685 66.98 53.0685C63.4913 53.0685 60.6608 50.2404 60.6608 46.7493V15.428C60.6608 11.9393 63.4913 9.10876 66.98 9.10876C68.8702 9.10876 70.4036 10.6422 70.4036 12.5324V18.543C70.4036 19.4568 71.1462 20.1994 72.06 20.1994H73.3571C73.7887 20.1994 74.1383 19.8498 74.1383 19.4182V14.0682C74.1383 10.2612 71.0522 7.17755 67.2476 7.17755V7.17996ZM17.499 7.17755H15.833C11.052 7.17755 7.17755 11.052 7.17755 15.833V46.3394C7.17755 51.1204 11.052 54.9949 15.833 54.9949H17.499C21.306 54.9949 24.3897 51.9088 24.3897 48.1043V41.204C24.3897 40.7724 24.0401 40.4228 23.6085 40.4228H22.3114C21.3976 40.4228 20.655 41.1654 20.655 42.0792V49.6425C20.655 51.5327 19.1216 53.0661 17.2314 53.0661C13.7403 53.0661 10.9122 50.238 10.9122 46.7469V15.428C10.9122 11.9393 13.7427 9.10876 17.2314 9.10876C19.1216 9.10876 20.655 10.6422 20.655 12.5324V18.543C20.655 19.4568 21.3976 20.1994 22.3114 20.1994H23.6085C24.0401 20.1994 24.3897 19.8498 24.3897 19.4182V14.0682C24.3897 10.2612 21.3036 7.17755 17.499 7.17755ZM97.5057 62.1628C100.269 62.1628 102.516 59.9158 102.516 57.1528V5.01006C102.516 2.24705 100.269 0 97.5057 0H5.01006C2.24705 0 0 2.24705 0 5.01006V57.1552C0 59.9182 2.24705 62.1652 5.01006 62.1652H10.7531C11.011 62.1652 11.2208 61.9555 11.2208 61.6975C11.2208 61.4395 11.0134 61.2298 10.7531 61.2298H5.01006C2.7606 61.2298 0.933057 59.3998 0.933057 57.1528V5.01006C0.933057 2.76301 2.76301 0.933057 5.01006 0.933057H97.5033C99.7503 0.933057 101.58 2.76301 101.58 5.01006V57.1552C101.58 59.4022 99.7527 61.2322 97.5033 61.2322H91.7603C91.5023 61.2322 91.2925 61.4419 91.2925 61.6999C91.2925 61.9579 91.5023 62.1677 91.7603 62.1677H97.5033" fill="white"/>
</g>
<defs>
<clipPath id="clip0_571_1300">
<rect width="102.516" height="64" fill="white"/>
</clipPath>
</defs>
</svg>
