<svg width="133" height="30" viewBox="0 0 133 30" fill="none" xmlns="http://www.w3.org/2000/svg">
<path fill-rule="evenodd" clip-rule="evenodd" d="M101.879 22.5688C101.878 26.4974 97.672 30 91.96 30C86.2474 30 82.5815 26.1266 82.5815 24.8107C82.5815 24.8107 82.5344 24.1806 83.4208 24.1806C83.9666 24.1806 84.5118 24.5645 85.2203 25.0632C86.5341 25.9881 88.4092 27.3082 91.8898 27.3082C94.5774 27.3082 96.9614 25.2552 96.9614 22.5677C96.9614 19.1417 93.5567 17.222 90.0369 15.2374C86.271 13.1141 82.3734 10.9165 82.3734 6.7203C82.3734 3.53269 85.9911 0 91.8471 0C94.2016 0.0262085 96.4257 0.500146 97.9398 1.2591C97.9513 1.26484 97.9628 1.27141 97.9739 1.27772C97.9881 1.28583 98.0015 1.2935 98.0132 1.29841C98.8919 1.78545 99.3718 2.27359 99.5756 2.53676C99.6062 2.57935 99.6271 2.60993 99.6446 2.64051C99.649 2.64051 99.649 2.64487 99.649 2.64487C99.6512 2.64706 99.6523 2.64924 99.6534 2.65142L99.654 2.65275C99.6549 2.65449 99.656 2.65624 99.6577 2.65798C99.9481 3.11554 99.7399 3.37871 99.1822 3.37871C98.8402 3.37871 98.4886 3.11147 98.0085 2.74662C97.0491 2.01754 95.5768 0.898689 92.6436 0.743666C92.4103 0.717458 92.1714 0.71309 91.9337 0.721826C88.8353 0.721826 86.8358 3.65499 86.8358 6.45057C86.8358 9.55295 90.2756 11.6078 93.8655 13.7522C97.7823 16.092 101.878 18.5385 101.879 22.5688ZM51.7512 7.10402C49.8219 1.32395 49.0966 0.150028 46.5843 0.150028C43.3638 0.150028 42.3674 2.92962 41.3578 5.74582L41.2717 5.98579L36.5562 19.9866C35.5877 22.8116 34.4493 26.3323 34.4493 28.3646C34.4493 28.8025 34.4592 29.8486 35.248 29.8486C36.0369 29.8486 36.5507 29.2131 37.1172 28.2117C37.4549 27.6611 37.7521 27.1579 38.0236 26.6982L38.0238 26.6979C40.2544 22.9208 40.7465 22.0876 47.7369 22.0876C53.4214 22.0876 55.4034 25.0944 57.173 27.7788C57.5003 28.2753 57.8203 28.7608 58.1551 29.2142C58.4301 29.592 58.6317 29.8475 58.968 29.8475C59.1105 29.8475 59.2891 29.7362 59.2891 29.4173C59.2891 29.4173 59.2825 29.1672 59.2211 29.0263C59.2211 29.0263 53.7617 12.9736 51.7523 7.10293L51.7512 7.10402ZM47.5222 21.071C40.6976 21.071 41.0482 17.9565 42.8647 12.1175C44.6813 6.27845 46.1702 4.38598 47.5222 4.38598C49.6258 4.38598 50.7619 6.46955 52.3407 11.3039C52.4234 11.5571 52.5075 11.8105 52.5914 12.0634L52.5917 12.0643C54.1113 16.6419 55.5816 21.071 47.5222 21.071ZM28.2153 0.150028C30.4865 0.150028 31.547 2.18228 31.547 3.80611H31.546V27.0607L31.5461 27.1709C31.5479 28.2428 31.5505 29.8497 30.1436 29.8497C28.6875 29.8497 28.5845 28.6234 28.5845 27.124V10.4412C28.5845 7.53755 28.0477 4.76163 26.1917 4.76163C24.6274 4.76163 22.5849 8.64157 20.6237 12.3668C18.813 15.8064 17.0716 19.1141 15.8404 19.1141C14.7932 19.1141 13.4813 17.1518 12.0033 14.9409C10.0962 12.0883 7.91239 8.82177 5.66322 8.82177C4.17647 8.82177 2.96144 10.1049 2.96144 15.1773V27.1546L2.9617 27.2599C2.96472 28.0993 2.97101 29.8486 1.57001 29.8486C0.374699 29.8486 0 28.6703 0 27.5379V4.55524C0 2.01957 1.03754 0.150028 2.79819 0.150028C5.8295 0.150028 8.79474 5.58077 11.3211 10.2078C13.196 13.6415 14.8291 16.6325 16.0682 16.633C16.489 16.633 16.9184 16.4386 17.349 16.1023C18.6588 14.9941 20.1153 12.0611 22.8814 6.49065L22.8815 6.49058C23.2229 5.80315 23.5842 5.07555 23.9676 4.30626C25.2155 1.79352 26.3308 0.150028 28.2153 0.150028ZM130.257 8.28936L130.221 8.24825C130.185 8.20721 130.15 8.1674 130.114 8.12883C129.994 7.99888 129.879 7.88094 129.753 7.78157C129.751 7.77938 129.749 7.77829 129.745 7.77611C129.467 7.585 129.252 7.50856 129.027 7.49C128.988 7.48781 128.95 7.48563 128.909 7.48563C128.641 7.48563 128.505 7.7095 128.641 7.97704C128.729 8.153 128.822 8.33054 128.916 8.51253L128.917 8.5134C129.689 9.99724 130.615 11.777 130.615 15.4017C130.615 23.3647 125.229 28.8696 120.425 28.8696C113.695 28.8696 109.521 23.6323 109.521 14.1044C109.521 12.3375 109.77 10.3773 110.305 8.65409C110.836 7.02152 111.66 5.56586 112.835 4.39303C112.849 4.37904 112.863 4.36489 112.878 4.35069L112.878 4.35053C112.899 4.32931 112.921 4.30801 112.943 4.2871C113.007 4.22487 113.074 4.16413 113.141 4.10303L113.141 4.10299L113.183 4.06433C114.843 2.60211 117.161 1.60619 120.23 1.40307C120.258 1.40149 120.285 1.39964 120.312 1.39779C120.342 1.39582 120.371 1.39384 120.401 1.39215C120.731 1.37359 121.067 1.36158 121.414 1.36158C121.473 1.36158 121.53 1.36174 121.584 1.3619C122.139 1.36352 122.457 1.36446 122.536 1.18249C122.617 0.993566 122.592 0.591702 121.465 0.303409C121.465 0.303409 120.208 0.0227595 118.44 0.00747118H118.407H118.298L118.296 0.00637916C118.193 0.00637916 118.093 0.0101282 117.993 0.0138756L117.993 0.0138762C117.95 0.0154795 117.908 0.0170825 117.865 0.0183914L117.752 0.0205755C117.639 0.022623 117.526 0.0246706 117.415 0.0304036C111.169 0.354734 107.386 4.1233 105.521 8.36689C105.52 8.37022 105.518 8.37356 105.517 8.37691C105.512 8.38785 105.507 8.39891 105.503 8.40997C105.497 8.42446 105.491 8.43895 105.484 8.45316C105.418 8.60495 105.354 8.75674 105.294 8.90963C104.66 10.4734 104.276 12.1234 104.145 13.7593C104.142 13.8028 104.139 13.8457 104.136 13.8889L104.132 13.9515L104.127 14.0322C104.12 14.1396 104.112 14.247 104.108 14.3544C104.098 14.5718 104.093 14.7869 104.093 14.9987C104.093 23.1398 109.074 29.954 117.869 29.9976C126.62 29.9976 132.5 23.4062 132.5 15.3111C132.5 11.1494 131.154 9.27218 130.257 8.28827V8.28936ZM118.303 0.00965522L118.299 0.00766981L118.325 0.00965522H118.303ZM69.9258 30C75.7862 30 79.7326 26.653 79.7326 23.2753H79.7348C79.7348 19.0826 75.7513 16.8861 71.9012 14.7633C68.3007 12.778 64.8169 10.8571 64.8169 7.42793C64.8169 4.74046 67.201 2.69183 69.8885 2.69183C73.3658 2.69183 75.2417 4.01148 76.5564 4.93636C77.2657 5.43532 77.8116 5.81938 78.3576 5.81938C79.2407 5.81938 79.1968 5.18928 79.1968 5.18928C79.1968 3.86903 75.5309 0 69.8184 0C64.1059 0 59.8987 3.50211 59.8998 7.42793C59.8998 11.4682 63.8322 13.5952 67.719 15.6975C71.5169 17.7517 75.2713 19.7824 75.2713 23.5516C75.2713 26.2609 73.4964 29.3273 69.9521 29.3273C69.7351 29.3273 69.5281 29.3229 69.3243 29.3186C69.1512 29.3142 68.9868 29.3055 68.8269 29.2967C68.6965 29.288 68.5672 29.2793 68.4456 29.2705C68.29 29.2618 68.1421 29.2443 67.9953 29.2269C67.8306 29.2096 67.6787 29.1879 67.5258 29.166C67.4947 29.1615 67.4635 29.157 67.4322 29.1526C64.8221 28.7589 63.6758 27.7745 62.8696 27.0822C62.3742 26.6568 62.0073 26.3417 61.5082 26.3417C61.197 26.3417 61.1795 26.713 61.1795 26.7774C61.1795 27.6751 64.0653 30 69.9258 30Z" fill="white"/>
</svg>
