<svg width="134" height="60" viewBox="0 0 134 60" fill="none" xmlns="http://www.w3.org/2000/svg">
<path d="M8.10258 22.7534C3.08655 22.7534 0 26.4831 0 31.4992C0 36.5152 3.08655 40.2449 8.10258 40.2449C13.1186 40.2449 16.2083 36.5152 16.2083 31.4992C16.2083 26.4831 13.1218 22.7534 8.10258 22.7534ZM9.31324 39.1162C5.35023 39.6049 2.93206 36.8525 2.36772 32.1959C1.775 27.5645 3.47434 24.2983 6.89508 23.8853C10.8581 23.3966 13.2731 26.1489 13.8406 30.8056C14.4333 35.437 12.734 38.7032 9.31324 39.1162Z" fill="white"/>
<path d="M29.9706 35.4151C29.4693 33.4036 28.6527 32.2056 27.3601 31.5372C29.0594 31.2503 30.6421 30.3865 30.6421 27.9462C30.6421 24.2102 26.6917 24.2102 24.7527 24.2102H19.0999V24.6894C20.1056 24.6894 20.2979 25.361 20.2979 26.5086V37.7135C20.2979 38.8642 20.1056 39.5326 19.0999 39.5326V40.0118H23.6493V39.5326C22.6436 39.5326 22.4512 38.8611 22.4512 37.7135V31.6791H22.7634C26.0454 31.6791 27.0007 32.4925 27.9118 36.0835C28.845 39.7722 30.3079 40.0118 33.2746 40.0118V39.5326C32.0072 39.5326 30.8313 38.9115 29.9706 35.4151ZM24.9892 30.7206H22.4512V25.1655H24.9892C27.2403 25.1655 28.4856 26.0262 28.4856 27.9431C28.4856 29.8599 27.2403 30.7206 24.9892 30.7206Z" fill="white"/>
<path d="M49.6241 37.8585L44.3779 24.2102H40.2857V24.6894C41.5783 24.6894 41.6729 25.1214 41.4364 25.9095L36.8397 37.8585C36.433 38.9367 35.7867 39.5326 34.5886 39.5326V40.0118H39.425V39.5326C37.4135 39.5326 37.4387 38.9336 37.8454 37.8585L39.7844 32.8046H45.3868L47.3289 37.8585C47.7356 38.9367 47.7577 39.5326 45.7494 39.5326V40.0118H51.8783V39.5326C50.6834 39.5326 50.034 38.9336 49.6273 37.8585H49.6241ZM41.2914 26.2942C41.2914 26.3194 41.2693 26.3415 41.2693 26.3667L41.2914 26.2942ZM40.1658 31.8493L42.584 25.5533L45.0274 31.8493H40.1658Z" fill="white"/>
<path d="M55.8604 37.7164V26.6313L64.7701 38.101C65.9649 39.6585 66.6869 40.0179 68.0489 40.0179V26.5115C68.0489 25.3607 68.2412 24.6924 69.247 24.6924V24.2131H65.8956V24.6924C66.9013 24.6924 67.0936 25.3639 67.0936 26.5115V37.5997L58.1871 26.13C57.0616 24.6703 56.368 24.2636 55.1447 24.2131H53.707V24.6924C54.7128 24.6924 54.9051 25.3639 54.9051 26.5115V37.7164C54.9051 38.8672 54.7128 39.5355 53.707 39.5355V40.0148H57.0584V39.5355C56.0527 39.5355 55.8604 38.864 55.8604 37.7164Z" fill="white"/>
<path d="M80.0106 32.5428C82.908 32.8549 83.5071 33.5958 83.5071 34.7466V38.2178C81.9748 39.0091 80.7768 39.296 79.0995 39.296C75.89 39.296 73.7114 36.9504 73.7114 32.114C73.7114 27.2777 75.7702 24.9289 79.3391 24.9289C82.0473 24.9289 83.8192 26.5589 83.5796 29.2387L85.7329 29.7179C85.8527 26.2215 83.3872 23.9705 79.3391 23.9705C74.5501 23.9705 71.5581 27.202 71.5581 32.1109C71.5581 37.0197 74.1907 40.2513 79.0995 40.2513C81.1835 40.2513 83.6237 39.6302 85.6604 37.9782V34.9862C85.6604 33.8354 85.8748 33.1891 87.2651 33.3562L87.3376 32.877L80.0579 32.0636L80.0106 32.5428Z" fill="white"/>
<path d="M98.5683 39.0565H92.9658V32.4704H96.2699C97.4207 32.4704 98.0891 32.6627 98.0891 33.6685H98.5683V30.3171H98.0891C98.0891 31.3228 97.4207 31.5151 96.2699 31.5151H92.9658V25.1718H98.3287C99.4794 25.1718 100.195 25.6037 100.457 27.612L100.911 27.5395L100.577 24.6894L100.504 24.2102H89.6082V24.6894C90.6139 24.6894 90.8031 25.361 90.8031 26.5086V37.7135C90.8031 38.8642 90.6139 39.5326 89.6082 39.5326V40.0118H100.741L100.813 39.5326L101.147 36.6825L100.693 36.61C100.432 38.6215 99.7127 39.0534 98.5651 39.0534L98.5683 39.0565Z" fill="white"/>
<path d="M115.343 35.4151C114.842 33.4036 114.026 32.2056 112.733 31.5372C114.432 31.2503 116.015 30.3865 116.015 27.9462C116.015 24.2102 112.064 24.2102 110.126 24.2102H104.473V24.6894C105.478 24.6894 105.671 25.361 105.671 26.5086V37.7135C105.671 38.8642 105.478 39.5326 104.473 39.5326V40.0118H109.022V39.5326C108.016 39.5326 107.824 38.8611 107.824 37.7135V31.6791H108.136C111.418 31.6791 112.373 32.4925 113.285 36.0835C114.218 39.7722 115.681 40.0118 118.647 40.0118V39.5326C117.38 39.5326 116.204 38.9115 115.343 35.4151ZM110.362 30.7206H107.824V25.1655H110.362C112.613 25.1655 113.858 26.0262 113.858 27.9431C113.858 29.8599 112.613 30.7206 110.362 30.7206Z" fill="white"/>
<path d="M129.012 24.2102V24.6894C131.023 24.6894 130.831 25.2159 130.279 26.2217L126.761 32.3979L123.217 26.1964C122.64 25.2159 122.451 24.6894 124.462 24.6894V24.2102H118.239V24.6894C119.339 24.6894 120.13 25.2159 120.704 26.1964L124.989 33.6433V37.7135C124.989 38.8642 124.8 39.5326 123.791 39.5326V40.0118H128.34V39.5326C127.334 39.5326 127.142 38.8611 127.142 37.7135V33.6433L131.427 26.1964C132.004 25.2159 132.792 24.6894 133.892 24.6894V24.2102H129.009H129.012Z" fill="white"/>
<path d="M13.4864 51.4466L13.2121 51.4718C13.1522 50.8539 12.9221 50.5891 12.3735 50.5891H11.3614V54.7696C11.3614 55.3182 11.4812 55.5231 11.7902 55.5231V55.7974H9.75038V55.5231C10.0594 55.5231 10.1792 55.3182 10.1792 54.7696V50.5891H9.16712C8.61854 50.5891 8.38839 50.8539 8.32849 51.4718L8.0542 51.4466L8.16455 50.3148L8.18031 50.1445H13.354L13.3697 50.3148L13.4801 51.4466H13.4864Z" fill="white"/>
<path d="M18.9027 54.4953L18.7923 55.6272L18.7766 55.7974H14.3154V55.5231C14.6244 55.5231 14.7442 55.3182 14.7442 54.7696V51.1723C14.7442 50.6238 14.6244 50.4188 14.3154 50.4188V50.1445H18.6915L18.7072 50.3148L18.8176 51.4466L18.5433 51.4718C18.4834 50.8539 18.2532 50.5891 17.7046 50.5891H15.9233V52.7046H16.9511C17.4997 52.7046 17.7046 52.5848 17.7046 52.2758H17.9789V53.5779H17.7046C17.7046 53.2689 17.4997 53.1491 16.9511 53.1491H15.9233V55.3497H17.7898C18.3383 55.3497 18.5685 55.0849 18.6284 54.467L18.9027 54.4922V54.4953Z" fill="white"/>
<path d="M26.4164 55.5231V55.7974H23.8217V55.5231C24.4396 55.5231 24.4995 55.3529 24.2914 54.8453L23.6577 53.2689H21.6368L21.0031 54.8453C20.7982 55.3497 20.8581 55.5231 21.4729 55.5231V55.7974H19.6758V55.5231C20.01 55.5231 20.3189 55.3529 20.5239 54.8453L22.2705 50.485L22.261 50.4945L22.0372 51.0431C22.2169 50.5796 22.1475 50.4188 21.5832 50.4188V50.1445H23.6829L25.5683 54.8453C25.7732 55.3497 26.0822 55.5231 26.4164 55.5231ZM23.478 52.8244L22.6457 50.753L21.8134 52.8244H23.4749H23.478ZM22.012 51.0935L22.0372 51.0431L22.012 51.0935Z" fill="white"/>
<path d="M32.7346 55.5231V55.7974C31.4672 55.7974 30.6285 55.7123 30.3542 54.3913C30.0894 53.1081 29.9948 52.8653 28.822 52.8653H28.7116V54.7664C28.7116 55.315 28.8314 55.52 29.1404 55.52V55.7943H27.1006V55.52C27.4096 55.52 27.5294 55.315 27.5294 54.7664V51.1692C27.5294 50.6206 27.4096 50.4156 27.1006 50.4156V50.1414H29.5345C30.3322 50.1414 31.7446 50.1414 31.7446 51.4781C31.7446 52.301 31.2149 52.6352 30.6128 52.7708C31.0825 53.0293 31.4514 53.4486 31.6248 54.1485C31.9243 55.3466 32.2837 55.52 32.7377 55.52L32.7346 55.5231ZM29.5156 52.424C30.1651 52.424 30.5592 52.1497 30.5592 51.516C30.5592 50.8823 30.1651 50.5922 29.5156 50.5922H28.7116V52.424H29.5156Z" fill="white"/>
<path d="M35.8971 50.0593C37.773 50.0593 38.8008 51.3015 38.8008 52.9725C38.8008 54.6434 37.773 55.8856 35.8971 55.8856C34.0212 55.8856 32.9934 54.6434 32.9934 52.9725C32.9934 51.3015 34.0212 50.0593 35.8971 50.0593ZM36.2817 55.4127C37.4293 55.2677 37.7888 54.2052 37.609 52.7581C37.4199 51.3204 36.8303 50.3683 35.5093 50.5322C34.3617 50.6773 34.0117 51.7397 34.182 53.1869C34.3617 54.6245 34.9607 55.5766 36.2817 55.4127Z" fill="white"/>
<path d="M42.7626 50.0593C44.6385 50.0593 45.6663 51.3015 45.6663 52.9725C45.6663 54.6434 44.6385 55.8856 42.7626 55.8856C40.8867 55.8856 39.8589 54.6434 39.8589 52.9725C39.8589 51.3015 40.8867 50.0593 42.7626 50.0593ZM43.1472 55.4127C44.2948 55.2677 44.6542 54.2052 44.4745 52.7581C44.2854 51.3204 43.6958 50.3683 42.3748 50.5322C41.2272 50.6773 40.8772 51.7397 41.0475 53.1869C41.2272 54.6245 41.8262 55.5766 43.1441 55.4127H43.1472Z" fill="white"/>
<path d="M53.9579 51.1723V54.7696C53.9579 55.3182 54.0777 55.5231 54.3867 55.5231V55.7974H52.3468V55.5231C52.6558 55.5231 52.7756 55.3182 52.7756 54.7696V51.2575L50.7894 55.7974H49.4968L47.4506 51.2575V54.7696C47.4506 55.3182 47.5704 55.5231 47.8794 55.5231V55.7974H46.5269V55.5231C46.8358 55.5231 46.9556 55.3182 46.9556 54.7696V51.1723C46.9556 50.6238 46.8358 50.4188 46.5269 50.4188V50.1445H47.0912C47.9487 50.1445 48.264 50.1887 48.6329 51.0021L50.5435 55.2678L52.4004 51.0021C52.7504 50.2139 53.2233 50.154 53.8223 50.1445H54.3867V50.4188C54.0777 50.4188 53.9579 50.6238 53.9579 51.1723Z" fill="white"/>
<path d="M78.7919 51.9952C78.7919 53.8522 77.2156 53.8459 76.1531 53.8459H75.2451V54.7696C75.2451 55.3182 75.3649 55.5231 75.6739 55.5231V55.7974H73.634V55.5231C73.943 55.5231 74.0628 55.3182 74.0628 54.7696V51.1723C74.0628 50.6238 73.943 50.4188 73.634 50.4188V50.1445H76.1531C77.2156 50.1445 78.7919 50.1445 78.7919 51.9952ZM77.6097 51.9952C77.6097 50.898 77.0958 50.5891 76.1373 50.5891H75.2482V53.3982H76.1373C77.0958 53.3982 77.6097 53.0892 77.6097 51.992V51.9952Z" fill="white"/>
<path d="M85.36 55.5231V55.7974H82.7653V55.5231C83.3832 55.5231 83.4431 55.3529 83.235 54.8453L82.6013 53.2689H80.5804L79.9467 54.8453C79.7418 55.3497 79.8017 55.5231 80.4165 55.5231V55.7974H78.6194V55.5231C78.9536 55.5231 79.2625 55.3529 79.4675 54.8453L81.2141 50.485L81.2046 50.4945L80.9808 51.0431C81.1605 50.5796 81.0911 50.4188 80.5268 50.4188V50.1445H82.6265L84.5119 54.8453C84.7168 55.3497 85.0258 55.5231 85.36 55.5231ZM82.4216 52.8244L81.5893 50.753L80.757 52.8244H82.4185H82.4216ZM80.9556 51.0935L80.9808 51.0431L80.9556 51.0935Z" fill="white"/>
<path d="M90.3631 51.4466L90.0888 51.4718C90.0289 50.8539 89.7988 50.5891 89.2502 50.5891H88.2381V54.7696C88.2381 55.3182 88.3579 55.5231 88.6669 55.5231V55.7974H86.6271V55.5231C86.9361 55.5231 87.0559 55.3182 87.0559 54.7696V50.5891H86.0438C85.4953 50.5891 85.2651 50.8539 85.2052 51.4718L84.9309 51.4466L85.0412 50.3148L85.057 50.1445H90.2307L90.2465 50.3148L90.3568 51.4466H90.3631Z" fill="white"/>
<path d="M91.2522 55.5231C91.5612 55.5231 91.681 55.3182 91.681 54.7696V51.1723C91.681 50.6238 91.5612 50.4188 91.2522 50.4188V50.1445H93.292V50.4188C92.9831 50.4188 92.8633 50.6238 92.8633 51.1723V54.7696C92.8633 55.3182 92.9831 55.5231 93.292 55.5231V55.7974H91.2522V55.5231Z" fill="white"/>
<path d="M96.8201 50.0593C98.1568 50.0593 99.5188 50.5574 99.0711 52.0455L97.8889 51.8753C98.3334 50.8223 97.769 50.5038 96.8169 50.5038C95.9247 50.5038 95.6094 50.8286 95.6094 51.3519C95.6094 51.8753 96.1391 52.0897 96.8768 52.3198C98.1348 52.7139 99.3707 52.9882 99.3707 54.2367C99.3707 55.4852 98.223 55.8824 96.9462 55.8824C95.4738 55.8824 93.8628 55.3843 94.3073 53.5273L95.4896 53.6976C95.0451 55.1289 95.9531 55.4348 96.9619 55.4348C97.8699 55.4348 98.1852 55.0848 98.1852 54.5015C98.1852 53.8584 97.5357 53.6881 96.6687 53.4138C95.5306 53.0544 94.424 52.7644 94.424 51.6073C94.424 50.4502 95.5117 50.0562 96.8138 50.0562L96.8201 50.0593Z" fill="white"/>
<path d="M102.986 50.0593C104.323 50.0593 105.685 50.5574 105.237 52.0455L104.055 51.8753C104.499 50.8223 103.935 50.5038 102.983 50.5038C102.09 50.5038 101.775 50.8286 101.775 51.3519C101.775 51.8753 102.305 52.0897 103.043 52.3198C104.301 52.7139 105.536 52.9882 105.536 54.2367C105.536 55.4852 104.389 55.8824 103.112 55.8824C101.64 55.8824 100.029 55.3843 100.473 53.5273L101.655 53.6976C101.211 55.1289 102.119 55.4348 103.128 55.4348C104.036 55.4348 104.351 55.0848 104.351 54.5015C104.351 53.8584 103.702 53.6881 102.835 53.4138C101.696 53.0544 100.59 52.7644 100.59 51.6073C100.59 50.4502 101.677 50.0562 102.98 50.0562L102.986 50.0593Z" fill="white"/>
<path d="M111.056 54.4953L110.945 55.6272L110.929 55.7974H106.468V55.5231C106.777 55.5231 106.897 55.3182 106.897 54.7696V51.1723C106.897 50.6238 106.777 50.4188 106.468 50.4188V50.1445H110.844L110.86 50.3148L110.97 51.4466L110.696 51.4718C110.636 50.8539 110.406 50.5891 109.857 50.5891H108.076V52.7046H109.104C109.653 52.7046 109.857 52.5848 109.857 52.2758H110.132V53.5779H109.857C109.857 53.2689 109.653 53.1491 109.104 53.1491H108.076V55.3497H109.943C110.491 55.3497 110.721 55.0849 110.781 54.467L111.056 54.4922V54.4953Z" fill="white"/>
<path d="M117.581 55.5231V55.7974C116.314 55.7974 115.475 55.7123 115.201 54.3913C114.936 53.1081 114.842 52.8653 113.669 52.8653H113.559V54.7664C113.559 55.315 113.678 55.52 113.987 55.52V55.7943H111.948V55.52C112.256 55.52 112.376 55.315 112.376 54.7664V51.1692C112.376 50.6206 112.256 50.4156 111.948 50.4156V50.1414H114.378C115.176 50.1414 116.588 50.1414 116.588 51.4781C116.588 52.301 116.059 52.6352 115.457 52.7708C115.926 53.0293 116.295 53.4486 116.469 54.1485C116.768 55.3466 117.127 55.52 117.581 55.52V55.5231ZM114.363 52.424C115.012 52.424 115.406 52.1497 115.406 51.516C115.406 50.8823 115.012 50.5922 114.363 50.5922H113.559V52.424H114.363Z" fill="white"/>
<path d="M118.266 55.5231C118.575 55.5231 118.694 55.3182 118.694 54.7696V51.1723C118.694 50.6238 118.575 50.4188 118.266 50.4188V50.1445H120.305V50.4188C119.996 50.4188 119.877 50.6238 119.877 51.1723V54.7696C119.877 55.3182 119.996 55.5231 120.305 55.5231V55.7974H118.266V55.5231Z" fill="white"/>
<path d="M125.835 54.4953L125.724 55.6272L125.708 55.7974H121.247V55.5231C121.556 55.5231 121.676 55.3182 121.676 54.7696V51.1723C121.676 50.6238 121.556 50.4188 121.247 50.4188V50.1445H125.623L125.639 50.3148L125.749 51.4466L125.475 51.4718C125.415 50.8539 125.185 50.5891 124.637 50.5891H122.855V52.7046H123.883C124.432 52.7046 124.637 52.5848 124.637 52.2758H124.911V53.5779H124.637C124.637 53.2689 124.432 53.1491 123.883 53.1491H122.855V55.3497H124.722C125.27 55.3497 125.5 55.0849 125.56 54.467L125.835 54.4922V54.4953Z" fill="white"/>
<path d="M63.5717 49.5232C63.5181 49.5232 63.4708 49.5295 63.4172 49.5295C63.3447 49.3466 63.2816 49.1606 63.2375 48.9714C63.0105 48.0603 63.6348 47.2185 64.5585 47.1271C65.6714 47.0199 66.4313 47.5369 66.942 48.4891C67.0177 48.6309 67.1059 48.7633 67.1879 48.9021C67.2194 48.8895 67.2478 48.8768 67.2762 48.8611C67.2384 48.4512 67.1848 48.0382 67.1721 47.6284C67.1627 47.3383 67.024 47.2059 66.7749 47.1176C65.7849 46.7645 64.7887 46.7172 63.8018 47.0829C62.8812 47.4266 62.2696 48.1044 62.2665 49.1165C62.2665 49.2867 62.2948 49.457 62.3327 49.624C59.3407 50.1096 57.449 52.3796 57.5689 54.886C57.7044 57.7424 60.3338 59.9998 63.3825 59.9998L63.3983 59.6277C61.226 59.4638 58.5746 57.5627 58.5746 55.009C58.5746 52.7358 60.2235 50.9198 62.629 50.5604L64.1833 52.6381L65.6178 54.555C65.8007 54.7693 65.7818 54.8986 65.6336 55.0972C64.9778 55.9832 64.032 56.3709 63.1303 56.0683C62.2066 55.7562 61.5855 54.8135 61.5918 53.8141C61.6075 53.2213 61.9228 52.884 62.2948 52.5025V52.1526C62.1183 52.2534 61.9354 52.3701 61.7715 52.4804C61.1409 52.9061 60.5387 53.7352 60.6901 54.6716C60.8193 55.4693 61.3585 56.2921 62.1246 56.6547C62.5628 56.8628 63.0042 56.9447 63.4298 56.9132C64.2653 56.8533 65.476 56.084 66.0687 55.0499C66.3461 55.3526 67.128 56.2574 67.664 56.6358C68.1369 56.97 68.6634 56.9258 69.1584 56.661C69.8551 56.2921 70.6591 55.3211 70.6812 54.164C70.6812 51.0932 66.1633 49.5137 63.5654 49.5137L63.5717 49.5232ZM69.934 55.5229C69.6534 55.9769 69.089 56.2448 68.6319 55.98C67.4181 55.2832 63.8933 50.4501 63.8933 50.4501C66.3209 50.4501 68.345 51.7427 69.4358 53.1804C70.2083 54.1987 70.3407 54.8671 69.934 55.5229Z" fill="white"/>
<path d="M59.9559 15.5462C61.6048 12.6519 62.8911 9.40145 64.4423 6.69954C64.5179 6.56397 64.5936 6.4347 64.6661 6.30859C64.6661 6.30859 62.9889 6.75629 62.0935 8.484C60.8387 10.9085 59.5965 13.7743 58.1557 16.2934C57.7521 16.9649 57.4841 17.3842 56.9293 17.9233L56.7023 18.1125C56.6234 18.1787 56.5415 18.2386 56.4563 18.2954L55.2205 18.8723L55.5011 19.1498H58.8997C59.1299 19.1498 59.3222 19.1309 59.4546 19.0142C59.7415 18.7841 60.1797 17.9044 60.1797 17.9044L57.2634 18.04C57.2634 18.04 58.5025 17.1951 58.6034 17.1257C59.1614 16.7348 59.5303 16.2776 59.9527 15.5462H59.9559Z" fill="white"/>
<path d="M57.037 12.879C54.8647 12.7151 52.2132 10.814 52.2132 8.26022C52.2132 5.99024 53.8369 4.32558 56.2362 3.96302C56.4411 3.93149 56.6397 3.90942 56.8226 3.89681C60.9527 3.46803 67.5892 6.26138 68.4153 6.63971L68.3806 6.687C67.5356 7.83775 66.7538 9.16506 66.1989 10.278L61.867 18.8062C61.7535 18.9985 61.8481 19.1498 62.0593 19.1498H63.0367C63.2101 19.1498 63.3046 19.0742 63.3803 18.9197L63.9226 17.8887C64.2757 17.2172 64.6698 16.5709 65.1269 15.9656C66.1232 14.6446 67.2582 13.3803 68.3112 12.4029C69.5093 11.2774 70.474 10.4104 71.1645 10.4104C71.5302 10.4104 71.6815 10.6406 71.6815 10.9464C71.6815 12.2705 68.3081 16.2178 68.3081 18.1914C68.3081 18.6517 68.5382 19.3043 69.3611 19.3043C69.9223 19.3043 71.6405 18.4279 73.1507 17.5672C73.3399 18.4878 74.0335 19.3012 75.3576 19.2823C76.3161 19.2823 77.9839 18.554 79.6706 17.0028L79.4846 16.7601C78.1604 17.9486 77.2335 18.2292 76.5651 18.2292C75.468 18.2292 74.9131 17.6145 74.787 16.7348C74.787 16.7222 74.787 16.7348 74.787 16.7222C80.5187 13.1186 81.9721 11.7692 81.9721 10.5239C81.9721 9.85236 81.474 9.41098 80.4777 9.41098C77.4479 9.41098 73.1003 13.6483 73.1003 17.0375C73.1003 17.0627 73.1003 17.0879 73.1003 17.1132C71.7887 17.7847 70.9154 18.1094 70.5276 18.1094C70.184 18.1094 69.9759 18.0527 69.9759 17.728C69.9759 16.4069 73.3304 12.1886 73.3304 10.464C73.3304 9.94695 73.0246 9.41098 72.3531 9.41098C71.4325 9.41098 69.9286 10.2685 68.2419 11.9174C67.1888 12.9326 66.1138 14.1212 65.1175 15.4233L68.595 8.56604C68.844 8.04899 69.1656 7.41213 69.4336 6.95183C70.7641 7.39322 72.1387 7.6675 73.4817 7.6675C76.8741 7.6675 80.67 5.29033 80.67 2.45285C80.67 0.901689 79.4436 0 77.7758 0C74.9572 0 72.2742 1.58268 69.1845 5.64974C68.3459 5.28087 61.8134 2.01776 56.8667 2.54112C56.5609 2.58526 55.7885 2.57896 54.4013 3.18744C52.4056 4.09858 51.1949 5.98709 51.2138 7.9481C51.2138 7.98909 51.2075 8.02692 51.2075 8.06791H51.2138C51.2138 8.08997 51.2138 8.10889 51.2138 8.13096C51.3494 10.9874 53.9788 13.2447 57.0275 13.2447L57.0433 12.8727L57.037 12.879ZM79.4215 10.1424C80.0521 10.1424 80.339 10.505 80.339 11.1387C80.339 12.5385 78.8603 13.5978 74.7618 16.3155C74.7618 13.787 77.0002 10.1424 79.4215 10.1424ZM76.7196 0.807106C78.0217 0.807106 79.4215 1.34623 79.4215 2.90054C79.4215 5.20205 77.0759 7.00227 74.5442 7.00227C72.744 7.00227 71.4261 6.53251 70.0074 5.97763C72.0378 2.95413 74.3614 0.848092 76.7196 0.807106Z" fill="white"/>
</svg>
