<svg width="74" height="122" viewBox="0 0 74 122" fill="none" xmlns="http://www.w3.org/2000/svg">
<path d="M32.9643 48.0856C32.9643 48.0856 33.9549 47.7187 34.2851 47.6453C34.652 47.5352 35.3857 47.3151 36.0461 47.1683C36.7065 47.0216 37.1468 47.0216 37.1468 47.0216C37.1468 47.0216 36.6698 46.8382 35.8627 46.7281C35.3123 46.6547 34.4318 46.5446 33.2945 46.4713C32.3039 46.3979 31.4233 46.3245 31.0198 46.2878C30.6162 46.2511 28.5616 46.1778 27.2775 46.1411C25.81 46.1044 24.6726 46.1411 24.159 46.1411C23.572 46.1411 21.8843 46.2511 21.3707 46.3245C20.747 46.3979 20.6736 46.5079 20.6736 46.5079C20.6736 46.5079 20.7837 46.6547 21.4074 46.8015C21.7742 46.9115 22.6915 47.095 23.0583 47.1317C23.3885 47.1683 24.5259 47.3885 25.8467 47.5352C27.1675 47.682 30.5061 47.9388 31.0565 47.9755C32.2672 48.0489 32.9643 48.1223 32.9643 48.1223V48.0856Z" fill="white"/>
<path d="M38.3576 48.1956C38.3576 48.1956 38.3576 48.1223 38.3209 48.0856C38.3209 48.1223 38.3209 48.159 38.2842 48.1956C38.2109 48.3424 38.0641 48.4891 37.9174 48.6359L37.5872 54.5061H39.0914L38.7612 48.6359C38.7612 48.6359 38.4677 48.3424 38.3943 48.1956" fill="white"/>
<path d="M29.332 26.0724C29.8457 27.65 30.396 29.2643 30.9096 30.8053C31.3132 32.0894 31.7535 33.3368 32.1571 34.5842C33.2944 36.5287 34.3217 38.2897 35.1655 39.8307C35.2756 40.0141 35.349 40.1975 35.459 40.3443C35.5691 40.5277 35.6792 40.7112 35.7525 40.8946C36.1561 41.6651 36.523 42.3622 36.8532 42.9859C36.9266 43.1693 37.0366 43.3161 37.11 43.4995C37.1834 43.683 37.2935 43.8664 37.3668 44.0499C37.4769 44.3067 37.587 44.5268 37.697 44.7469C37.587 44.27 37.4402 43.683 37.2935 43.0226C37.2201 42.7658 37.1467 42.4722 37.0366 42.1787C37.0366 42.142 37.0366 42.1054 37.0366 42.0687C36.9633 41.7752 36.8532 41.4816 36.7798 41.1881C36.2662 39.5005 35.6425 37.556 34.9087 35.4647C34.7986 35.1345 34.6886 34.7676 34.5418 34.4007C34.4318 34.0705 34.3217 33.7404 34.2116 33.4102C33.8447 32.3095 33.4412 31.1721 33.0376 30.0348C32.4873 28.4939 31.9369 26.9163 31.3866 25.302C31.3499 25.1919 27.1674 14.4421 25.8466 11.2869C25.2963 10.0028 25.0028 9.48917 24.8193 9.26904C24.8193 9.52586 24.8927 10.1496 25.2229 11.507C26.0667 14.809 29.2953 25.9257 29.332 26.0357" fill="white"/>
<path d="M26.5438 29.9247C27.3143 31.2455 28.0481 32.603 28.7818 33.9238C29.3322 34.8777 29.8458 35.8683 30.3961 36.7855C31.6435 38.2163 32.7809 39.5004 33.7715 40.6378C33.8816 40.7845 34.0283 40.9313 34.1384 41.078C34.2851 41.2248 34.3952 41.3716 34.542 41.5183C34.9822 42.0319 35.3491 42.5089 35.716 42.9492C35.8261 43.0592 35.8994 43.1693 36.0095 43.2794C36.1196 43.3894 36.1929 43.5362 36.303 43.6463C36.5598 43.9764 36.8166 44.3066 37.0368 44.6002C37.1102 44.7102 37.2202 44.857 37.2936 44.967C37.3303 45.0404 37.4037 45.1138 37.4403 45.1872C37.367 45.0404 37.3303 44.9304 37.2569 44.7836C37.1835 44.5635 37.0735 44.38 36.9634 44.1599C36.6699 43.5729 36.3397 42.9125 35.9728 42.2154C35.8627 42.0319 35.7527 41.8118 35.6426 41.5917C35.5325 41.4082 35.4592 41.2248 35.3491 41.0414C34.5786 39.6472 33.6981 38.1063 32.7809 36.4553C32.5975 36.1618 32.4507 35.8683 32.2673 35.5748C32.0838 35.2812 31.9371 34.9877 31.7536 34.7309C31.3867 34.1072 31.0198 33.4835 30.653 32.8598C29.8825 31.5757 29.112 30.2182 28.3416 28.8974C28.3049 28.824 22.6182 19.8353 20.8571 17.2671C20.16 16.2399 19.7564 15.7996 19.573 15.6528C19.6097 15.9097 19.7931 16.4233 20.3068 17.5606C21.6276 20.3857 26.4705 29.8146 26.5071 29.9247" fill="white"/>
<path d="M25.0029 34.1806C25.8834 35.2079 26.764 36.2352 27.6445 37.2625C28.3783 38.1063 29.112 38.9868 29.8091 39.794C30.9465 40.6378 32.0104 41.4083 33.001 42.1421C33.1478 42.2521 33.2945 42.3622 33.4413 42.4723C33.588 42.5823 33.7348 42.6924 33.8815 42.8025C34.2484 43.0593 34.5786 43.3528 34.8721 43.5729C34.9822 43.6463 35.0923 43.7564 35.2023 43.8297C35.3124 43.9398 35.4225 44.0132 35.5325 44.0866C35.716 44.2333 35.8994 44.3801 36.0829 44.5268C36.1929 44.6002 36.2663 44.6736 36.3397 44.747C36.4498 44.8203 36.5231 44.9304 36.6332 45.0038C36.8166 45.1872 37.0001 45.3707 37.1835 45.5174C37.1835 45.5174 37.1835 45.5174 37.2202 45.5541C37.2202 45.5541 37.2202 45.5174 37.1835 45.4807C37.0001 45.1872 36.7799 44.8937 36.5231 44.5635C36.4131 44.4168 36.303 44.27 36.1929 44.1233C36.0829 44.0132 36.0095 43.8664 35.8994 43.7564C35.6059 43.3895 35.3124 42.9859 34.9455 42.5823C34.7988 42.4356 34.6887 42.2521 34.5419 42.1054C34.3952 41.9586 34.2851 41.7752 34.1384 41.6284C33.2945 40.6011 32.3039 39.5005 31.3133 38.3631C31.0932 38.1063 30.8731 37.8862 30.653 37.6294C30.4328 37.3726 30.2127 37.1524 30.0292 36.8956C29.7357 36.5654 29.4055 36.1985 29.112 35.8683C28.2315 34.8777 27.3143 33.8504 26.4338 32.8232C26.3604 32.7498 19.8665 25.9991 17.8853 24.0546C17.1515 23.3208 16.748 23.0273 16.5278 22.9172C16.6379 23.1374 16.858 23.5776 17.4817 24.4215C19.1327 26.6595 24.9295 33.9972 25.0029 34.0706" fill="white"/>
<path d="M27.3142 41.0414C28.1581 41.6651 28.9652 42.2888 29.7357 42.9125C31.0198 43.4261 32.1938 43.8664 33.1844 44.27C33.3312 44.3434 33.4779 44.38 33.6247 44.4534C33.7714 44.5268 33.9549 44.6002 34.1016 44.6369C34.2851 44.7102 34.5052 44.8203 34.6886 44.8937C34.7987 44.9304 34.9455 45.0038 35.0555 45.0404C35.1656 45.1138 35.3123 45.1505 35.4224 45.1872C35.4958 45.1872 35.5692 45.2606 35.6058 45.2973C35.7159 45.3339 35.7893 45.4073 35.8994 45.444C36.0094 45.4807 36.0828 45.5541 36.1929 45.5908C36.2663 45.5908 36.3396 45.6641 36.413 45.7008C36.4864 45.7375 36.5964 45.8109 36.6698 45.8476C36.7799 45.8843 36.8533 45.9577 36.9266 45.9943C37 45.9943 37.0367 46.0677 37.1101 46.1044C37.0367 46.031 36.9633 45.9577 36.89 45.8843C36.7799 45.7742 36.6698 45.7008 36.5598 45.5908C36.4497 45.5174 36.3763 45.4073 36.2662 45.334C36.1562 45.2239 36.0094 45.1138 35.8994 45.0038C35.7893 44.8937 35.6792 44.8203 35.5325 44.7102C35.4224 44.6002 35.3123 44.5268 35.1656 44.4167C34.9455 44.2333 34.6886 44.0498 34.4685 43.8664C34.3217 43.7563 34.1383 43.6096 33.9916 43.4995C33.8448 43.3895 33.698 43.2794 33.5146 43.1326C32.7074 42.5089 31.8636 41.8852 30.9464 41.2248C30.6896 41.0414 30.4328 40.8579 30.2126 40.6745C29.9558 40.4911 29.7357 40.3076 29.4788 40.1609C29.1487 39.9407 28.8185 39.6839 28.525 39.4638C27.6077 38.8034 26.6538 38.1063 25.6999 37.4092C25.6265 37.3725 18.9125 32.9332 16.8947 31.7225C16.0875 31.2455 15.6839 31.0988 15.5005 31.0254C15.5739 31.1721 15.8307 31.5023 16.5278 32.1627C18.2888 33.777 24.4158 38.9501 24.4892 38.9868C25.4064 39.6839 26.3236 40.381 27.2408 41.0781" fill="white"/>
<path d="M28.3049 44.6369C29.4056 45.0772 30.4695 45.5175 31.4601 45.9577C32.1205 45.9577 32.7442 46.0311 33.3313 46.0678C33.478 46.0678 33.6248 46.0678 33.7348 46.0678C33.8816 46.0678 34.0283 46.0678 34.1384 46.0678C34.4686 46.0678 34.7621 46.1412 35.0556 46.1412C35.1657 46.1412 35.2757 46.1412 35.3858 46.1779C35.4592 46.1779 35.5693 46.1779 35.6426 46.1779C35.6426 46.1779 35.716 46.1779 35.7527 46.1779C35.8261 46.1779 35.8995 46.1779 35.9361 46.1779C36.0095 46.1779 36.0462 46.1779 36.1196 46.1779C36.1563 46.1779 36.193 46.1779 36.2297 46.1779C36.2663 46.1779 36.3397 46.1779 36.3764 46.1779C36.4498 46.1779 36.5598 46.1779 36.6332 46.2512C36.6332 46.2512 36.6332 46.2512 36.6699 46.2512C36.7433 46.2512 36.8534 46.2879 36.9267 46.3246C36.9634 46.3246 37.0001 46.3246 37.0368 46.3246C37.0001 46.3246 36.9267 46.2512 36.89 46.2512C36.8167 46.2145 36.7066 46.1412 36.5965 46.0678C36.5965 46.0678 36.5232 46.0678 36.5232 46.0311C36.4131 45.9577 36.303 45.921 36.193 45.8477C36.0829 45.811 35.9728 45.7376 35.8628 45.7009C35.8628 45.7009 35.6059 45.5908 35.4959 45.5175C35.3858 45.4441 35.2391 45.4074 35.129 45.334C35.0556 45.2973 34.9456 45.2606 34.8722 45.2239C34.7254 45.1506 34.542 45.0772 34.3585 45.0038C34.2118 44.9304 34.0283 44.8571 33.8816 44.7837C32.9644 44.3801 31.9738 43.9765 30.9465 43.6097C30.7264 43.4996 30.4695 43.4262 30.2494 43.3161C30.0293 43.2428 29.7725 43.1327 29.5523 43.0593C29.2955 42.9493 29.0754 42.8759 28.8186 42.7658C27.938 42.4356 27.0575 42.1054 26.177 41.7385C26.1403 41.7385 20.8571 39.8307 18.1055 39.1703C17.5551 39.0236 17.2249 38.9869 17.0415 38.9502C17.1883 39.0603 17.4818 39.2804 17.9954 39.5739C20.1233 40.858 25.6266 43.2795 25.7 43.3161C26.5805 43.683 27.4611 44.0499 28.3049 44.3801" fill="white"/>
<path d="M42.4666 33.4468C42.3566 33.777 42.2465 34.1072 42.1364 34.4374C42.0264 34.8043 41.8796 35.1345 41.7695 35.5014C41.0725 37.5926 40.4121 39.5371 39.8984 41.2248C39.825 41.5183 39.715 41.8118 39.6416 42.1053C39.6416 42.142 39.6416 42.1787 39.6416 42.2154C39.5682 42.5089 39.4582 42.8024 39.3848 43.0592C39.2013 43.7196 39.0546 44.3067 38.9812 44.7836C39.0913 44.5635 39.2013 44.3067 39.3114 44.0865C39.3848 43.9031 39.4948 43.7196 39.5682 43.5362C39.6416 43.3894 39.7517 43.206 39.825 43.0226C40.1552 42.3622 40.5221 41.6651 40.9257 40.9313C41.0358 40.7479 41.1458 40.5644 41.2192 40.381C41.3293 40.1975 41.4027 40.0508 41.5127 39.8673C42.3932 38.3264 43.3838 36.5654 44.5212 34.6209C44.9248 33.3734 45.3283 32.126 45.7686 30.8419C46.2822 29.301 46.7959 27.6867 47.3462 26.1091C47.3462 25.999 50.6115 14.9191 51.4553 11.5804C51.7855 10.2229 51.8589 9.59923 51.8589 9.34241C51.7122 9.56254 51.382 10.0762 50.8316 11.3603C49.5108 14.4788 45.3283 25.2653 45.2916 25.3753C44.7413 26.9529 44.191 28.5306 43.6407 30.0715C43.2371 31.2088 42.8335 32.3462 42.4666 33.4468" fill="white"/>
<path d="M45.9519 32.8598C45.5851 33.4835 45.2182 34.1072 44.8513 34.7309C44.6678 35.0244 44.5211 35.3179 44.3376 35.5748C44.1542 35.8683 44.0075 36.1618 43.824 36.4553C42.8701 38.0696 41.9896 39.6105 41.2558 41.0414C41.1457 41.2248 41.0357 41.4082 40.9623 41.5917C40.8522 41.8118 40.7422 41.9953 40.6321 42.2154C40.2652 42.9125 39.935 43.5729 39.6415 44.1599C39.5314 44.38 39.4581 44.6002 39.348 44.7836C39.2746 44.9304 39.2379 45.0771 39.1646 45.1872C39.2012 45.1138 39.2746 45.0404 39.3113 44.967C39.3847 44.857 39.4947 44.7102 39.5681 44.6002C39.7883 44.3066 40.0451 43.9764 40.3019 43.6463C40.412 43.5362 40.4853 43.3894 40.5954 43.2794C40.6688 43.1693 40.7788 43.0592 40.8889 42.9492C41.2558 42.5089 41.6594 42.0319 42.0629 41.5183C42.173 41.3716 42.3198 41.2248 42.4665 41.078C42.5766 40.9313 42.7233 40.7845 42.8334 40.6378C43.824 39.4637 44.9614 38.1796 46.2088 36.7855C46.7224 35.8316 47.2727 34.8777 47.8231 33.9238C48.5568 32.603 49.2906 31.2822 50.0611 29.9247C50.0978 29.8513 54.9407 20.3857 56.2614 17.5606C56.7751 16.4233 56.9585 15.9097 56.9952 15.6528C56.8118 15.8363 56.4449 16.2399 55.7111 17.2671C53.9501 19.872 48.2633 28.824 48.2266 28.8974C47.4562 30.2182 46.6857 31.539 45.9153 32.8598" fill="white"/>
<path d="M47.493 35.9783C47.1994 36.3085 46.8692 36.6754 46.5757 37.0056C46.3556 37.2624 46.1355 37.4826 45.952 37.7394C45.7319 37.9962 45.5118 38.253 45.2916 38.4732C44.301 39.6105 43.3104 40.7112 42.4666 41.7385C42.3199 41.8852 42.2098 42.0687 42.063 42.2154C41.9163 42.3989 41.8062 42.5456 41.6595 42.6924C41.3293 43.0959 40.9991 43.4995 40.7056 43.8664C40.5955 44.0132 40.5221 44.1232 40.412 44.2333C40.302 44.38 40.1919 44.5268 40.0819 44.6735C39.825 45.0037 39.6049 45.2973 39.4215 45.5908C39.4215 45.5908 39.4215 45.6275 39.3848 45.6641C39.3848 45.6641 39.3848 45.6641 39.4215 45.6275C39.6049 45.444 39.7517 45.2973 39.9718 45.1138C40.0818 45.0404 40.1552 44.9304 40.2653 44.857C40.3387 44.7836 40.4487 44.7102 40.5221 44.6369C40.7056 44.4901 40.889 44.3434 41.0724 44.1966C41.1825 44.1232 41.2926 44.0132 41.4026 43.9398C41.5127 43.8664 41.6228 43.7563 41.7328 43.683C42.063 43.4261 42.3932 43.1693 42.7234 42.9125C42.8702 42.8024 43.0169 42.6924 43.1637 42.5823C43.3105 42.4722 43.4572 42.3622 43.604 42.2521C44.5945 41.5183 45.6585 40.7479 46.7959 39.904C47.493 39.0969 48.2267 38.2164 48.9605 37.3725C49.841 36.3452 50.7215 35.3179 51.6021 34.2907C51.6388 34.2173 57.4723 26.8796 59.1232 24.6416C59.747 23.7977 59.9671 23.3575 60.0771 23.1373C59.857 23.2474 59.4901 23.5776 58.7197 24.2747C56.7385 26.2192 50.2446 32.9699 50.1712 33.0433C49.2907 34.0705 48.3735 35.0611 47.493 36.0884" fill="white"/>
<path d="M59.6736 31.6491C57.6191 32.8598 50.905 37.2991 50.8683 37.3358C49.9511 38.0329 48.9972 38.6933 48.08 39.3904C47.7498 39.6105 47.4196 39.8673 47.1261 40.0874C46.8693 40.2709 46.6492 40.4543 46.3923 40.6011C46.1355 40.7845 45.8787 40.968 45.6586 41.1514C44.7413 41.8118 43.8975 42.4722 43.0904 43.0592C42.9436 43.1693 42.7969 43.316 42.6134 43.4261C42.4667 43.5362 42.2832 43.6829 42.1365 43.793C41.8796 43.9764 41.6595 44.1599 41.4394 44.3433C41.3293 44.4534 41.1826 44.5268 41.0725 44.6368C40.9624 44.7469 40.8157 44.857 40.7056 44.9303C40.5955 45.0404 40.4488 45.1505 40.3387 45.2605C40.2286 45.3339 40.1553 45.444 40.0452 45.5174C39.9351 45.6274 39.8251 45.7375 39.715 45.8109C39.6416 45.8842 39.5683 45.9576 39.4949 46.031C39.5683 46.031 39.6049 45.9576 39.6783 45.9209C39.7517 45.8842 39.8618 45.8109 39.9351 45.7742C40.0085 45.7375 40.1186 45.6641 40.192 45.6274C40.2653 45.6274 40.3387 45.554 40.4121 45.5174C40.5222 45.4807 40.5955 45.4073 40.7056 45.3706C40.8157 45.3339 40.889 45.2605 40.9991 45.2238C41.0725 45.2238 41.1459 45.1505 41.1825 45.1138C41.2926 45.0771 41.4027 45.0037 41.5494 44.967C41.6595 44.9303 41.7696 44.857 41.9163 44.8203C42.0998 44.7469 42.2832 44.6735 42.5033 44.5634C42.6501 44.4901 42.7968 44.4167 42.9803 44.38C43.127 44.3066 43.2738 44.2699 43.4206 44.1966C44.4478 43.793 45.5852 43.316 46.8693 42.8391C47.6764 42.2521 48.4836 41.6284 49.2907 40.968C50.2079 40.2709 51.1252 39.5738 52.0424 38.8767C52.0791 38.84 58.2428 33.6669 60.0038 32.0526C60.7009 31.3922 60.9577 31.062 61.0311 30.9153C60.8476 30.952 60.4441 31.0987 59.6369 31.6124" fill="white"/>
<path d="M50.428 41.9586C49.5475 42.2888 48.667 42.6557 47.7864 42.9859C47.5296 43.096 47.3095 43.1694 47.0527 43.2794C46.8325 43.3528 46.5757 43.4629 46.3556 43.5362C46.0988 43.6463 45.8786 43.7197 45.6585 43.8298C44.6312 44.2333 43.6406 44.6369 42.7234 45.0038C42.5766 45.0772 42.3932 45.1505 42.2465 45.2239C42.063 45.2973 41.9162 45.3707 41.7328 45.4441C41.6594 45.4807 41.5494 45.5174 41.476 45.5541C41.3292 45.6275 41.2192 45.6642 41.1091 45.7376C40.9623 45.8109 40.8523 45.8476 40.7422 45.921C40.7422 45.921 40.5221 46.0311 40.412 46.0678C40.302 46.1411 40.1919 46.1778 40.0818 46.2512C40.0818 46.2512 40.0084 46.2512 40.0084 46.2879C39.8984 46.3613 39.825 46.398 39.7149 46.4713C39.6416 46.508 39.6049 46.5447 39.5315 46.5814C39.5682 46.5814 39.6416 46.5814 39.6782 46.5447C39.7516 46.5447 39.825 46.508 39.9351 46.4713C39.9351 46.4713 39.9351 46.4713 39.9718 46.4713C40.0451 46.4713 40.1552 46.4347 40.2286 46.398C40.2653 46.398 40.3386 46.398 40.3753 46.398C40.3753 46.398 40.4487 46.398 40.4854 46.398C40.5588 46.398 40.5955 46.398 40.6688 46.398C40.7422 46.398 40.7789 46.398 40.8523 46.398C40.8523 46.398 40.9257 46.398 40.9623 46.398C41.0357 46.398 41.1091 46.398 41.2192 46.398C41.3292 46.398 41.4393 46.398 41.5494 46.3613C41.8429 46.3613 42.1364 46.2879 42.4299 46.2879C42.5766 46.2879 42.6867 46.2879 42.8335 46.2879C42.9802 46.2879 43.0903 46.2879 43.237 46.2879C43.8241 46.2512 44.4478 46.2145 45.1082 46.1778C46.1354 45.7743 47.1994 45.334 48.3001 44.857C49.1439 44.4902 50.0244 44.1233 50.905 43.7931C50.9416 43.7931 56.4449 41.3349 58.5729 40.0508C59.1232 39.7206 59.38 39.5372 59.5268 39.4271C59.3433 39.4271 59.0131 39.5005 58.4628 39.6473C55.7112 40.3443 50.428 42.2155 50.3913 42.2155" fill="white"/>
<path d="M24.6725 52.0846C26.9105 50.8739 29.6622 49.7366 29.6989 49.6999C30.2859 49.4797 30.8729 49.2963 31.4232 49.0762C31.9369 48.8927 32.4505 48.7093 32.9642 48.5258C33.1476 48.4525 33.2944 48.4158 33.4778 48.3424C33.6612 48.269 33.8447 48.2323 33.9914 48.1589C34.4317 48.0122 34.872 47.8654 35.2389 47.7554C35.3489 47.7554 35.4957 47.682 35.6057 47.6453C35.6791 47.6453 35.7525 47.6453 35.8259 47.6086C35.8993 47.6086 35.9726 47.6086 36.0093 47.5719C37.1834 47.3151 37.6603 47.3885 37.8804 47.682C38.0639 47.9388 37.7337 48.2323 37.7337 48.2323C37.0366 49.0028 34.5785 49.7732 32.0103 50.6171C31.4232 50.8005 30.8362 50.984 30.2492 51.2041C30.2492 51.2041 28.1213 51.9012 24.8193 52.4515C24.379 52.5249 24.1589 52.5249 24.0488 52.4882C24.1222 52.4148 24.269 52.2681 24.6725 52.0479" fill="white"/>
<path d="M51.969 52.0846C49.7309 50.8739 46.9793 49.7366 46.9426 49.6999C46.3556 49.4797 45.7686 49.2963 45.2182 49.0762C44.7046 48.8927 44.191 48.7093 43.6773 48.5258C43.4939 48.4525 43.3471 48.4158 43.1637 48.3424C42.9802 48.269 42.7968 48.2323 42.65 48.1589C42.2098 48.0122 41.8062 47.8654 41.4026 47.7554C41.2926 47.7554 41.1458 47.682 41.0357 47.6453C40.9624 47.6453 40.889 47.6453 40.8156 47.6086C40.7422 47.6086 40.6689 47.6086 40.6322 47.5719C39.4581 47.3151 38.9812 47.3885 38.761 47.682C38.5776 47.9388 38.9078 48.2323 38.9078 48.2323C39.6049 49.0028 42.063 49.7732 44.6312 50.6171C45.2182 50.8005 45.8053 50.984 46.3923 51.2041C46.3923 51.2041 48.5202 51.9012 51.8222 52.4515C52.2625 52.5249 52.4826 52.5249 52.5927 52.4882C52.5193 52.4148 52.3725 52.2681 51.969 52.0479" fill="white"/>
<path d="M39.5681 26.2192C39.5681 24.3481 39.5681 22.4036 39.5314 20.4958C39.5314 20.3857 38.9811 7.10443 38.6876 3.21543C38.5775 1.52776 38.3941 0.830673 38.3207 0.573853C38.2473 0.830673 38.0639 1.52776 37.9538 3.21543C37.6603 7.10443 37.11 20.3857 37.11 20.4958C37.11 22.4036 37.11 24.3481 37.0733 26.2192C37.0733 28.2004 37.0733 30.1449 37.0366 32.0527C37.3301 34.0706 38.3207 41.9219 38.3207 41.9219C38.3207 41.9219 39.3113 34.0706 39.6048 32.0527C39.6048 30.1816 39.6048 28.2371 39.5681 26.2559" fill="white"/>
<path d="M43.6774 48.0856C43.6774 48.0856 42.6868 47.7187 42.3566 47.6453C41.9897 47.5352 41.2559 47.3151 40.5955 47.1683C39.9351 47.0216 39.4949 47.0216 39.4949 47.0216C39.4949 47.0216 39.9718 46.8382 40.779 46.7281C41.3293 46.6547 42.2098 46.5446 43.3472 46.4713C44.3378 46.3979 45.2183 46.3245 45.6219 46.2878C46.0254 46.2511 48.08 46.1778 49.3641 46.1411C50.8317 46.1044 51.969 46.1411 52.4826 46.1411C53.0697 46.1411 54.7573 46.2511 55.271 46.3245C55.8947 46.3979 55.9681 46.5079 55.9681 46.5079C55.9681 46.5079 55.858 46.6547 55.2343 46.8015C54.8674 46.9115 53.9502 47.095 53.5833 47.1317C53.2531 47.1683 52.1158 47.3885 50.795 47.5352C49.4742 47.682 46.1355 47.9388 45.5852 47.9755C44.3745 48.0489 43.6774 48.1223 43.6774 48.1223V48.0856Z" fill="white"/>
<path d="M38.5409 44.6369C38.5409 44.6369 38.5776 43.3528 38.7243 42.1054C38.761 41.5918 38.7977 41.0781 38.8711 40.4911C38.9812 39.6106 39.0912 38.62 39.2013 37.8495C39.3481 36.4187 40.2286 30.5118 40.999 25.6689C41.1825 24.4582 41.3659 23.1007 41.5494 21.9634C42.0263 19.3585 42.6867 15.8364 42.7601 15.4328C42.9435 14.4422 43.8974 9.41587 44.0809 8.46196C44.1543 8.0217 44.301 7.21455 44.4845 6.48078C44.5578 6.11389 44.6312 5.78369 44.7046 5.52687C44.8147 5.08661 44.9247 4.75641 44.9247 4.68303C44.9614 4.4629 45.1449 4.05933 45.1449 4.05933C45.1449 4.05933 45.1449 4.24277 45.1449 4.71972C45.1449 5.19667 45.1082 6.18727 44.9614 7.54475C44.778 9.41587 44.5945 11.5805 44.5211 12.3876C44.3744 13.8919 44.0442 18.0744 43.5672 22.0734C43.0536 26.366 42.4299 30.4384 42.3565 30.842C42.2465 31.6125 41.9896 33.4469 41.9896 33.4469C41.9896 33.4469 40.7422 37.2992 40.2286 38.6567C39.6416 40.2343 38.4675 44.6736 38.4675 44.6736L38.5409 44.6369Z" fill="white"/>
<path d="M38.0639 44.6369C38.0639 44.6369 38.0272 43.3528 37.8805 42.1054C37.8438 41.5918 37.8071 41.0781 37.7337 40.4911C37.6236 39.6106 37.5136 38.62 37.4035 37.8495C37.2568 36.4187 36.3762 30.5118 35.6058 25.6689C35.4223 24.4582 35.2389 23.1007 35.0554 21.9634C34.5785 19.3585 33.9181 15.8364 33.8447 15.4328C33.6613 14.4422 32.7074 9.41587 32.5239 8.46196C32.4506 8.0217 32.3038 7.21455 32.1204 6.48078C32.047 6.11389 31.9736 5.78369 31.9002 5.52687C31.7902 5.08661 31.6801 4.75641 31.6801 4.68303C31.6434 4.4629 31.46 4.05933 31.46 4.05933C31.46 4.05933 31.46 4.24277 31.46 4.71972C31.46 5.19667 31.4966 6.18727 31.6434 7.54475C31.8268 9.41587 32.0103 11.5805 32.0837 12.3876C32.2304 13.8919 32.5606 18.0744 33.0376 22.0734C33.5512 26.366 34.1749 30.4384 34.2483 30.842C34.3584 31.6125 34.6152 33.4469 34.6152 33.4469C34.6152 33.4469 35.8626 37.2992 36.3762 38.6567C36.9633 40.2343 38.1373 44.6736 38.1373 44.6736L38.0639 44.6369Z" fill="white"/>
<path d="M5.77808 115.226V111.63H7.06218C7.75926 111.63 8.19952 111.997 8.19952 112.548C8.19952 112.951 8.05277 113.171 7.6492 113.355C8.08946 113.428 8.34628 113.758 8.34628 114.235C8.34628 114.822 7.86933 115.226 7.09887 115.226H5.77808V115.226ZM6.21834 113.208H7.06218C7.53913 113.208 7.79595 112.988 7.79595 112.621C7.79595 112.254 7.53913 112.034 7.06218 112.034H6.21834V113.208V113.208ZM6.21834 114.859H7.13555C7.6492 114.859 7.90602 114.639 7.90602 114.235C7.90602 113.832 7.6492 113.612 7.13555 113.612H6.18165V114.859H6.21834Z" fill="white"/>
<path d="M8.78662 113.428C8.78662 112.327 9.55708 111.594 10.6211 111.594C11.685 111.594 12.4555 112.364 12.4555 113.428C12.4555 114.492 11.685 115.262 10.6211 115.262C9.55708 115.262 8.78662 114.492 8.78662 113.428ZM11.9785 113.428C11.9785 112.548 11.3915 111.997 10.5844 111.997C9.77722 111.997 9.1902 112.548 9.1902 113.428C9.1902 114.309 9.77722 114.859 10.5844 114.859C11.3915 114.859 11.9785 114.309 11.9785 113.428Z" fill="white"/>
<path d="M12.969 113.758V111.594H13.4093V113.722C13.4093 114.455 13.7395 114.859 14.3632 114.859C14.9869 114.859 15.3171 114.492 15.3171 113.758V111.63H15.7573V113.758C15.7573 114.749 15.2437 115.299 14.3632 115.299C13.4826 115.299 12.969 114.749 12.969 113.795V113.758Z" fill="white"/>
<path d="M17.335 115.226V112.034H16.1243V111.63H18.9493V112.034H17.7386V115.226H17.2983H17.335Z" fill="white"/>
<path d="M19.3528 115.226V111.63H19.793V115.226H19.3528Z" fill="white"/>
<path d="M23.4253 114.822C23.4253 114.822 23.6087 115.189 23.6821 115.409L23.2785 115.556C23.2785 115.556 23.1685 115.226 23.0951 115.079C22.8383 115.226 22.5448 115.299 22.2146 115.299C21.1506 115.299 20.3801 114.529 20.3801 113.465C20.3801 112.401 21.1506 111.63 22.2146 111.63C23.2785 111.63 24.049 112.401 24.049 113.465C24.049 114.052 23.8289 114.529 23.462 114.859L23.4253 114.822ZM21.1873 114.455C21.4074 114.162 21.7376 113.978 22.1779 113.978C22.6181 113.978 22.9483 114.162 23.2052 114.455C23.462 114.199 23.6087 113.832 23.6087 113.391C23.6087 112.511 23.0217 111.961 22.2146 111.961C21.4074 111.961 20.8204 112.511 20.8204 113.391C20.8204 113.832 20.9671 114.162 21.1873 114.419V114.455ZM22.2146 114.859C22.4714 114.859 22.6915 114.786 22.875 114.712C22.6915 114.492 22.4714 114.382 22.2146 114.382C21.9577 114.382 21.7376 114.455 21.4808 114.712C21.7009 114.822 21.921 114.896 22.2146 114.896V114.859Z" fill="white"/>
<path d="M24.5627 113.758V111.594H25.003V113.722C25.003 114.455 25.3332 114.859 25.9569 114.859C26.5806 114.859 26.9108 114.492 26.9108 113.758V111.63H27.3511V113.758C27.3511 114.749 26.8374 115.299 25.9569 115.299C25.0764 115.299 24.5627 114.749 24.5627 113.795V113.758Z" fill="white"/>
<path d="M28.0847 115.226V111.63H30.4695V112.034H28.525V113.171H30.2127V113.575H28.525V114.822H30.5062V115.226H28.1214H28.0847Z" fill="white"/>
<path d="M35.7527 111.63H36.193V115.226H35.7527V113.575H33.7716V115.226H33.3313V111.63H33.7716V113.171H35.7527V111.63Z" fill="white"/>
<path d="M36.7432 113.428C36.7432 112.327 37.5136 111.594 38.5776 111.594C39.6416 111.594 40.412 112.364 40.412 113.428C40.412 114.492 39.6416 115.262 38.5776 115.262C37.5136 115.262 36.7432 114.492 36.7432 113.428ZM39.9351 113.428C39.9351 112.548 39.3481 111.997 38.5409 111.997C37.7338 111.997 37.1467 112.548 37.1467 113.428C37.1467 114.309 37.7338 114.859 38.5409 114.859C39.3481 114.859 39.9351 114.309 39.9351 113.428Z" fill="white"/>
<path d="M41.8062 115.226V112.034H40.5955V111.63H43.4205V112.034H42.2098V115.226H41.7695H41.8062Z" fill="white"/>
<path d="M43.8242 115.226V111.63H46.209V112.034H44.2645V113.171H45.9522V113.575H44.2645V114.822H46.2457V115.226H43.8609H43.8242Z" fill="white"/>
<path d="M46.7959 115.226V111.63H47.2362V114.822H48.9605V115.226H46.7959Z" fill="white"/>
<path d="M54.4639 115.776C54.1704 115.593 53.7668 115.336 53.3265 114.932C53.033 115.152 52.6661 115.263 52.2992 115.263C51.5288 115.263 51.0151 114.822 51.0151 114.235C51.0151 113.722 51.3086 113.465 51.7122 113.208C51.4921 112.914 51.4554 112.731 51.4554 112.437C51.4554 111.924 51.859 111.52 52.446 111.52C52.8129 111.52 53.1798 111.704 53.3999 111.924L53.1064 112.217C52.9229 112.034 52.7028 111.887 52.446 111.887C52.0791 111.887 51.859 112.107 51.859 112.401C51.859 112.768 52.0424 112.988 52.5927 113.575L53.3265 114.345C53.5833 114.052 53.6934 113.758 53.6934 113.208H54.097C54.097 113.795 53.9502 114.235 53.62 114.602C54.0236 114.969 54.4272 115.226 54.7207 115.373L54.5006 115.703L54.4639 115.776ZM52.2992 114.896C52.5561 114.896 52.8129 114.822 53.033 114.675L52.3359 113.942C52.3359 113.942 52.0791 113.648 51.969 113.538C51.6388 113.722 51.4921 113.905 51.4921 114.272C51.4921 114.639 51.8223 114.932 52.3359 114.932L52.2992 114.896Z" fill="white"/>
<path d="M56.9954 115.226V111.63H57.5824L58.7197 113.832L59.8204 111.63H60.4074V115.226H59.9671V112.364C59.9671 112.364 59.9671 112.254 59.9671 112.181C59.9671 112.254 59.8938 112.291 59.8938 112.364L58.9399 114.309H58.4996L57.509 112.364L57.4356 112.217C57.4356 112.217 57.4356 112.327 57.4356 112.401V115.226H56.9954V115.226Z" fill="white"/>
<path d="M60.9578 113.428C60.9578 112.327 61.7282 111.594 62.7922 111.594C63.8562 111.594 64.6266 112.364 64.6266 113.428C64.6266 114.492 63.8562 115.262 62.7922 115.262C61.7282 115.262 60.9578 114.492 60.9578 113.428ZM64.1497 113.428C64.1497 112.548 63.5627 111.997 62.7555 111.997C61.9484 111.997 61.3613 112.548 61.3613 113.428C61.3613 114.309 61.9484 114.859 62.7555 114.859C63.5627 114.859 64.1497 114.309 64.1497 113.428Z" fill="white"/>
<path d="M67.8186 114.529C67.8186 114.859 67.9286 115.079 68.0387 115.226H67.5985C67.5985 115.226 67.415 114.896 67.3783 114.565V114.382C67.3783 113.942 67.1582 113.795 66.7179 113.795H65.6173V115.226H65.177V111.63H66.6079C67.3416 111.63 67.8186 112.071 67.8186 112.694C67.8186 113.098 67.6351 113.391 67.3049 113.538C67.5985 113.612 67.7452 113.832 67.7819 114.235V114.492L67.8186 114.529ZM65.6173 113.391H66.5712C67.0848 113.391 67.3783 113.135 67.3783 112.731C67.3783 112.327 67.0848 112.034 66.5712 112.034H65.6173V113.391Z" fill="white"/>
<path d="M68.5156 115.226V111.63H70.9004V112.034H68.9559V113.171H70.6436V113.575H68.9559V114.822H70.9371V115.226H68.5523H68.5156Z" fill="white"/>
<path d="M14.4365 121.169V117.574H15.0235L16.1609 119.775L17.2615 117.574H17.8486V121.169H17.4083V118.308C17.4083 118.308 17.4083 118.198 17.4083 118.124C17.4083 118.198 17.3349 118.234 17.3349 118.308L16.381 120.252H15.9408L14.9502 118.308L14.8768 118.161C14.8768 118.161 14.8768 118.271 14.8768 118.344V121.169H14.4365V121.169Z" fill="white"/>
<path d="M21.0772 121.169L20.7103 120.179H19.096L18.7291 121.169H18.2888L19.683 117.574H20.1966L21.5908 121.169H21.1138H21.0772ZM19.2427 119.775H20.5635L19.9765 118.234C19.9765 118.234 19.9398 118.087 19.9031 118.014C19.9031 118.124 19.8664 118.161 19.8297 118.234L19.2427 119.775Z" fill="white"/>
<path d="M21.9578 121.169V117.574H22.4714L24.3058 120.436C24.3058 120.436 24.3792 120.546 24.4159 120.619C24.4159 120.546 24.4159 120.509 24.4159 120.436V117.574H24.8562V121.169H24.3425L22.5081 118.308C22.5081 118.308 22.4347 118.198 22.398 118.124C22.398 118.198 22.398 118.234 22.398 118.308V121.169H21.9578Z" fill="white"/>
<path d="M28.0847 121.169L27.7178 120.179H26.1035L25.7367 121.169H25.2964L26.6906 117.574H27.2042L28.5984 121.169H28.1214H28.0847ZM26.2503 119.775H27.5711L26.9841 118.234C26.9841 118.234 26.9474 118.087 26.9107 118.014C26.9107 118.124 26.874 118.161 26.8373 118.234L26.2503 119.775Z" fill="white"/>
<path d="M28.9653 121.169V117.574H29.5523L30.6897 119.775L31.7904 117.574H32.3774V121.169H31.9371V118.308C31.9371 118.308 31.9371 118.198 31.9371 118.124C31.9371 118.198 31.8637 118.234 31.8637 118.308L30.9098 120.252H30.4696L29.479 118.308L29.4056 118.161C29.4056 118.161 29.4056 118.271 29.4056 118.344V121.169H28.9653V121.169Z" fill="white"/>
<path d="M35.606 121.169L35.2391 120.179H33.6248L33.2579 121.169H32.8176L34.2118 117.574H34.7254L36.1196 121.169H35.6426H35.606ZM33.7715 119.775H35.0923L34.5053 118.234C34.5053 118.234 34.4686 118.087 34.4319 118.014C34.4319 118.124 34.3952 118.161 34.3585 118.234L33.7715 119.775Z" fill="white"/>
<path d="M38.0273 121.463V117.354H38.3942V121.463H38.0273Z" fill="white"/>
<path d="M40.8157 121.169V117.574H42.0998C42.7969 117.574 43.2371 117.941 43.2371 118.491C43.2371 118.895 43.0904 119.115 42.6868 119.298C43.1271 119.372 43.3839 119.702 43.3839 120.179C43.3839 120.766 42.9069 121.169 42.1365 121.169H40.8157V121.169ZM41.2559 119.151H42.0998C42.5767 119.151 42.8336 118.931 42.8336 118.564C42.8336 118.198 42.5767 117.977 42.0998 117.977H41.2559V119.151V119.151ZM41.2559 120.802H42.1732C42.6868 120.802 42.9436 120.582 42.9436 120.179C42.9436 119.775 42.6868 119.555 42.1732 119.555H41.2193V120.802H41.2559Z" fill="white"/>
<path d="M46.3557 121.169L45.9888 120.179H44.3745L44.0076 121.169H43.5674L44.9616 117.574H45.4752L46.8694 121.169H46.3924H46.3557ZM44.5213 119.775H45.8421L45.2551 118.234C45.2551 118.234 45.2184 118.087 45.1817 118.014C45.1817 118.124 45.145 118.161 45.1083 118.234L44.5213 119.775Z" fill="white"/>
<path d="M49.6578 117.574H50.098V121.169H49.6578V119.518H47.6766V121.169H47.2363V117.574H47.6766V119.115H49.6578V117.574Z" fill="white"/>
<path d="M53.4734 120.472C53.4734 120.802 53.5834 121.023 53.6935 121.169H53.2532C53.2532 121.169 53.0698 120.839 53.0331 120.509V120.325C53.0331 119.885 52.813 119.738 52.3727 119.738H51.272V121.169H50.8318V117.574H52.2626C52.9964 117.574 53.4734 118.014 53.4734 118.638C53.4734 119.041 53.2899 119.335 52.9597 119.482C53.2532 119.555 53.4 119.775 53.4367 120.179V120.436L53.4734 120.472ZM51.272 119.335H52.226C52.7396 119.335 53.0331 119.078 53.0331 118.675C53.0331 118.271 52.7396 117.977 52.226 117.977H51.272V119.335Z" fill="white"/>
<path d="M56.6653 121.169L56.2984 120.179H54.6841L54.3172 121.169H53.877L55.2711 117.574H55.7848L57.1789 121.169H56.702H56.6653ZM54.8309 119.775H56.1516L55.5646 118.234C55.5646 118.234 55.5279 118.087 55.4912 118.014C55.4912 118.124 55.4546 118.161 55.4179 118.234L54.8309 119.775Z" fill="white"/>
<path d="M57.5457 121.169V117.574H57.9859V121.169H57.5457Z" fill="white"/>
<path d="M58.7563 121.169V117.574H59.27L61.1044 120.436C61.1044 120.436 61.1778 120.546 61.2145 120.619C61.2145 120.546 61.2145 120.509 61.2145 120.436V117.574H61.6547V121.169H61.1411L59.3067 118.308C59.3067 118.308 59.2333 118.198 59.1966 118.124C59.1966 118.198 59.1966 118.234 59.1966 118.308V121.169H58.7563Z" fill="white"/>
<path d="M36.7066 98.4224V98.9361H29.1854V98.4224C30.6897 98.4224 32.0105 98.1289 31.5335 96.6247L30.3962 93.0292H22.8016L21.6276 96.6247C21.1506 98.1289 22.4347 98.4224 23.939 98.4224V98.9361H17.0415V98.4224C18.1422 98.4224 19.573 98.1289 20.05 96.6247L24.7094 82.1327C25.1864 80.6284 23.5721 80.3349 21.7743 80.3349V79.8213H28.415L33.8082 96.6247C34.2852 98.1289 35.6793 98.4224 36.7433 98.4224M29.9926 91.7451L26.5805 81.1788L23.1685 91.7451H29.9559H29.9926Z" fill="white"/>
<path d="M20.0866 80.3349C19.0226 80.3349 17.445 80.555 16.6379 81.9125L11.0979 91.1213V96.4779C11.0979 98.0555 12.2719 98.3857 13.4093 98.3857V98.8993H6.47514V98.3857C7.61249 98.3857 8.82321 98.0555 8.82321 96.4779V91.2314L3.76018 81.9492C3.02641 80.555 1.48549 80.2982 0.348145 80.2982V79.7845H5.0076L10.2541 89.6171L14.8401 81.9125C15.684 80.5183 14.3999 80.2982 12.7122 80.2982V79.7845H20.0132V80.2982L20.0866 80.3349Z" fill="white"/>
<path d="M73.6152 89.3603C73.6152 95.7074 69.6162 98.936 63.4525 98.936H55.3076V98.4224C56.3716 98.4224 57.5089 98.0922 57.5089 96.5146V82.206C57.5089 80.6284 56.3716 80.2982 55.3076 80.2982V79.7845H63.4525C69.6162 79.7845 73.6152 82.9765 73.6152 89.3236M71.2305 89.3236C71.2305 83.7469 67.9652 81.032 62.8655 81.032H59.7836V97.6519H62.8655C67.9652 97.6519 71.2305 94.9369 71.2305 89.3236Z" fill="white"/>
<path d="M43.1637 96.5146V93.0292C43.0903 91.3048 42.9436 89.7272 42.1731 88.2596C41.7695 87.5259 41.3293 86.9389 40.9257 86.5353V96.4779C40.9257 98.0555 39.7883 98.3857 38.7244 98.3857V98.8993H45.4017V98.3857C44.301 98.3857 43.2004 98.0555 43.2004 96.4779" fill="white"/>
<path d="M52.2259 101.504V102.018H58.4262L58.096 101.614L49.9512 92.0752C48.5937 90.5343 47.0528 89.4337 45.6586 88.6265V88.5531C46.319 88.7733 46.7592 88.8099 47.4196 88.8099C51.0518 88.8099 53.2164 86.9755 53.2164 84.2973C53.2164 81.4355 50.9051 79.7845 47.0528 79.7845H38.6878V80.2982C39.7517 80.2982 40.8891 80.6284 40.8891 82.206V83.38C39.7884 82.9031 38.5043 82.683 37.4037 82.683C33.1845 82.683 30.3961 85.5447 30.5429 88.7366C30.6896 91.9652 33.6981 94.4967 37.1835 94.4967V94.0931C34.7254 93.9097 31.6802 91.745 31.6802 88.8833C31.6802 86.0216 34.065 83.7469 37.367 83.7836C39.7517 83.7836 41.1459 85.5814 44.1177 88.7733L53.9135 100.147C54.9775 101.394 53.8035 101.541 52.1525 101.541M43.1271 84.5908V81.1053H46.2456C49.6943 81.1053 50.8317 82.4261 50.8317 84.4807C50.8317 86.2051 49.5476 87.856 46.7959 87.856C44.8514 87.856 43.1271 86.7554 43.1271 84.5908" fill="white"/>
<path d="M49.5473 72.9972L48.7035 75.8956L48.4833 76.7395H34.9819V76.2258C36.0459 76.2258 37.1833 75.8956 37.1833 74.318V60.0095C37.1833 58.4319 36.0459 58.1017 34.9819 58.1017V57.588H41.6593V58.1017C40.5586 58.1017 39.4579 58.4319 39.4579 60.0095V75.4554H46.2453C47.933 75.4554 48.6668 74.0612 48.997 72.8872L49.5473 72.9972V72.9972Z" fill="white"/>
<path d="M17.7384 62.3208C17.7384 64.9991 15.5371 67.3472 11.8682 67.3472C9.04321 67.3472 7.86917 65.7329 7.68573 64.9624V74.318C7.68573 75.8956 8.78639 76.2258 9.88704 76.2258V76.7395H3.20972V76.2258C4.27369 76.2258 5.41103 75.8956 5.41103 74.318V60.0095C5.41103 58.4319 4.27369 58.1017 3.20972 58.1017V57.588H11.5747C15.427 57.588 17.7384 59.4591 17.7384 62.2842M15.3903 62.4309C15.3903 60.3763 14.253 58.8354 10.8043 58.8354H7.68573V62.7244C7.68573 64.4488 8.60294 66.2465 11.3913 66.2465C14.3997 66.2465 15.3903 64.192 15.3903 62.4676" fill="white"/>
<path d="M34.9454 76.2258V76.7394H27.4242V76.2258C28.9284 76.2258 30.2492 75.9323 29.7723 74.428L28.6349 70.8325H21.0404L19.8664 74.428C19.3894 75.9323 20.6735 76.2258 22.1777 76.2258V76.7394H15.2803V76.2258C16.3809 76.2258 17.7751 75.9323 18.2887 74.428L22.9482 59.936C23.4251 58.4318 21.8108 58.1383 20.0131 58.1383V57.6246H26.6537L32.047 74.428C32.5239 75.9323 33.9181 76.2258 34.9821 76.2258M28.2314 69.5484L24.8193 58.9821L21.4073 69.5484H28.1947H28.2314Z" fill="white"/>
<path d="M73.3951 76.2258V76.7394H66.3509V76.2258C67.6717 76.2258 68.8824 75.9323 68.6256 74.318L66.2775 59.3123L60.6275 76.7394H58.3895L52.6661 59.349L50.318 74.318C50.0979 75.8956 49.2173 76.7027 49.2173 76.7027H46.1355V76.1891C47.2362 76.1891 48.5203 75.8956 48.7404 74.2813L50.9417 59.9727C51.1985 58.3951 50.2079 58.0649 49.0706 58.0649V57.5513H54.2437L59.9304 74.8683C59.9304 73.9878 60.0772 72.9605 60.5174 71.7865L65.3236 57.5513H70.35V58.0649C69.286 58.0649 68.2587 58.3584 68.4789 59.9727L70.7169 74.2813C70.9737 75.8589 72.2578 76.1891 73.3218 76.1891" fill="white"/>
</svg>
