<svg width="132" height="30" viewBox="0 0 132 30" fill="none" xmlns="http://www.w3.org/2000/svg">
<path d="M51.0112 22.0997C51.0605 20.1268 51.0112 18.154 51.0112 16.2305C51.0112 13.6658 51.0112 11.1011 51.0112 8.53641C50.9125 4.78802 49.2849 2.4206 45.6352 1.28622C39.8153 -0.538657 34.6859 0.891658 30.1977 4.88666C29.8031 5.2319 29.5072 5.62647 29.2113 6.07036C28.6194 6.8595 28.866 7.35271 29.8031 7.40203C30.8389 7.50067 31.8746 7.45134 32.861 7.50066C34.4886 7.54999 36.0669 7.94456 37.4479 8.93098C37.6945 9.12826 38.0891 9.37487 37.8425 9.72011C37.7438 9.86808 37.3986 9.86808 37.152 9.86808C36.4615 9.86808 35.771 9.67079 35.1298 9.67079C31.0855 9.72011 27.781 11.2984 25.8081 14.9481C23.8353 18.5979 24.1806 22.2476 26.4986 25.6015C30.1484 30.9281 37.7438 30.9775 41.8868 25.7988C42.232 25.3549 42.8239 24.4671 42.9719 24.5164C43.761 24.8617 43.3171 25.7001 43.4157 26.3413C43.5144 26.8345 43.4651 27.377 43.4651 27.8702C43.4651 28.9553 44.0076 29.3992 45.0433 29.3992C47.4601 29.3992 49.8275 29.3992 52.2442 29.3992C53.5759 29.3992 53.8225 28.6594 52.8854 27.8702C51.0112 26.292 50.9619 24.2205 51.0112 22.0504V22.0997ZM42.5773 23.3327C41.3443 25.9467 38.8782 26.7359 36.3628 25.4042C32.5651 23.3327 30.543 17.1676 32.4172 13.2712C33.6995 10.5586 36.5601 9.72011 39.0755 11.4463C41.9854 13.4685 43.1198 16.3784 43.2678 19.5843C43.2185 21.0146 43.1198 22.1983 42.5773 23.3327ZM43.1691 14.4056C41.4429 11.7423 39.6673 9.27623 36.9054 7.74727C36.7574 7.64863 36.5601 7.59931 36.5108 7.45134C35.8203 6.169 36.6588 5.13326 37.2013 4.14684C37.9904 2.66722 39.0262 1.43419 40.9497 1.48351C42.2814 1.48351 42.9719 2.37129 43.1691 3.55499C43.8103 7.15542 43.4651 10.7559 43.2185 14.4056H43.1691ZM117.151 0.497084C109.21 0.349121 102.502 6.90881 102.404 14.8988C102.305 23.1354 108.667 29.6951 116.855 29.7444C124.993 29.7938 131.454 23.4807 131.602 15.392C131.7 7.20474 125.338 0.595726 117.151 0.497084V0.497084ZM122.033 27.9196C119.173 29.0046 117.101 27.1797 115.375 25.2562C111.331 20.7187 109.111 15.3427 108.914 9.2269C108.865 7.69795 109.013 6.169 109.654 4.73869C110.739 2.32196 112.909 1.43418 115.326 2.51924C116.657 3.1111 117.792 3.99888 118.778 5.13326C122.872 9.81875 124.845 15.2934 125.19 21.3599C124.993 24.0725 124.943 26.8838 122.033 27.9689V27.9196ZM18.5086 14.8495C18.0648 14.4549 17.5715 14.1097 17.029 13.8138C14.6123 12.4821 12.2449 11.1997 9.82815 9.86808C8.00327 8.88166 6.1784 7.94455 4.84673 6.31696C3.81099 5.03462 3.51506 3.70295 5.04401 2.51924C6.96753 1.03961 10.8639 1.23691 12.6394 2.8645C14.7109 4.78802 16.7331 6.71154 18.8046 8.63505C19.1005 8.88166 19.4457 9.37487 19.8896 9.02962C20.0869 8.88166 20.1362 8.38845 20.0869 8.09252C19.8403 6.11968 19.5937 4.19616 19.3471 2.22332C19.2485 1.33554 18.7552 0.842339 17.8182 0.842339C14.1191 0.842339 10.42 0.497087 6.81957 1.03962C0.90105 1.97672 -1.76228 7.54999 1.2463 12.3341C2.43 14.2083 4.15623 15.4907 5.98111 16.5264C8.79241 18.154 11.653 19.683 14.4643 21.3105C15.5987 21.9517 16.6344 22.7409 17.3249 23.8259C18.3607 25.4042 18.0154 26.7358 16.4372 27.7223C13.9711 29.2512 10.568 28.9553 8.39784 26.9825C6.37568 25.1576 4.35352 23.3327 2.28204 21.5078C1.83815 21.1133 1.39426 20.4721 0.753089 20.8667C0.25988 21.1626 0.457163 21.8037 0.506484 22.297C0.654447 23.9739 0.901049 25.7001 0.999691 27.377C1.09833 28.906 1.88747 29.4485 3.31778 29.3992C5.04401 29.3499 6.72093 29.3992 8.44716 29.3992C8.44716 29.3499 8.44716 29.2512 8.44716 29.2019C10.3214 29.2019 12.2449 29.3499 14.0698 29.2019C17.9661 28.8567 21.024 26.4892 21.9611 23.2341C23.0462 19.4857 21.024 17.0196 18.41 14.8495H18.5086ZM97.077 15.0961C96.0906 14.307 95.0055 13.5671 93.9204 12.926C91.4544 11.545 88.939 10.2626 86.473 8.93098C85.1413 8.19116 83.8096 7.35271 82.9712 6.02104C82.1327 4.68937 82.1327 3.45635 83.5137 2.46993C85.5359 1.08894 89.3336 1.38486 91.1584 3.06178C93.082 4.88665 95.0055 6.71153 96.9783 8.48709C97.3236 8.83233 97.6688 9.42419 98.2607 9.07894C98.7539 8.78302 98.5073 8.14184 98.458 7.64863C98.2607 5.97172 97.9647 4.24548 97.7675 2.56857C97.6688 1.43418 97.1263 0.891651 95.9426 0.891651C92.5394 0.940972 89.087 0.743693 85.6838 1.08894C82.478 1.38487 79.7653 2.96313 78.6802 6.26764C77.6445 9.4735 78.9269 12.1368 81.1956 14.3563C82.182 15.2934 83.3164 16.0825 84.5494 16.7237C87.0155 18.1047 89.4815 19.4363 91.9476 20.8173C93.1313 21.5078 94.315 22.2476 95.2521 23.2341C96.9783 25.1083 96.6331 26.8838 94.4136 28.0182C91.7996 29.3499 88.791 28.9553 86.6209 26.9825C84.5001 25.1083 82.4286 23.1847 80.3572 21.3105C80.0612 21.0639 79.716 20.6694 79.2721 20.8667C78.7789 21.1133 78.8775 21.6065 78.9268 22.001C79.0255 23.1847 79.1241 24.3684 79.2721 25.5521C79.5351 28.1826 81.0148 29.4814 83.711 29.4485C84.7467 29.4485 85.7825 29.4485 86.7689 29.4485C86.7689 29.4485 86.7689 29.4978 86.7689 29.5472C88.8897 29.4485 91.0598 29.4978 93.1806 29.1526C96.6331 28.6101 99.2471 26.8345 100.332 23.3327C101.417 19.7816 99.7403 17.2169 97.077 15.0961V15.0961ZM68.6681 11.8902C66.498 10.7065 64.2785 9.52282 62.1577 8.2898C61.122 7.69795 60.1356 6.95813 59.5437 5.87307C58.7546 4.49208 58.8039 3.25906 60.2835 2.37129C62.503 0.990299 65.9554 1.33554 67.8789 3.1111C69.8025 4.93598 71.7753 6.76085 73.6988 8.53641C73.9948 8.83234 74.34 9.27623 74.7839 9.02962C75.2278 8.78302 75.1291 8.2898 75.0798 7.89523C74.8332 6.02103 74.5866 4.14684 74.34 2.27264C74.2414 1.38486 73.7975 0.891651 72.811 0.891651C69.112 0.891651 65.4129 0.546409 61.7631 1.08894C58.6559 1.58215 56.1406 3.20974 55.2035 6.51425C54.3157 9.67079 55.598 12.1862 57.8668 14.3563C58.9025 15.392 60.1356 16.1812 61.4179 16.8717C63.884 18.2526 66.35 19.5843 68.816 21.0146C70.0984 21.7544 71.3314 22.5436 72.2192 23.7273C73.4522 25.3055 73.107 26.7852 71.4301 27.8209C68.9147 29.3499 65.5609 29.0539 63.3907 27.0811C61.2699 25.2069 59.1985 23.2834 57.0777 21.4092C56.6831 21.0639 56.2392 20.6201 55.746 20.916C55.4994 21.0639 55.4994 21.7051 55.4994 22.0997C55.6473 24.0725 55.894 25.996 56.0912 27.9689C56.1899 29.0046 56.7324 29.4978 57.7682 29.4485C59.5437 29.4485 61.3686 29.4485 63.6867 29.4485C65.9554 29.2512 68.816 29.6951 71.5287 28.7087C77.7431 26.4399 79.0748 19.9296 74.192 15.54C72.5151 14.011 70.5916 12.926 68.6188 11.8902H68.6681Z" fill="white"/>
</svg>
