<svg width="127" height="41" viewBox="0 0 127 41" fill="none" xmlns="http://www.w3.org/2000/svg">
<path d="M14.9171 3.18948H16.0815V8.01933C16.0815 8.66619 15.9521 8.8818 15.564 8.8818V9.18366H17.9358V8.8818C17.5908 8.8818 17.4183 8.62306 17.4183 8.01933V3.18948H18.5826C19.2295 3.18948 19.4882 3.49134 19.5745 4.22444H19.8763L19.747 2.88761V2.672H13.7528V2.88761L13.6234 4.18132H13.9253C14.0115 3.49134 14.2703 3.18948 14.9171 3.18948" fill="white"/>
<path d="M22.8521 8.88177C22.5072 8.88177 22.3347 8.62304 22.3347 8.0193V5.86312H25.5258V8.0193C25.5258 8.66616 25.3964 8.88177 25.0515 8.88177V9.18364H27.4233V8.88177C27.0783 8.88177 26.9489 8.62304 26.9489 8.0193V3.87943C26.9489 3.23257 27.0783 3.01696 27.4233 3.01696V2.71509H25.0515V3.01696C25.3964 3.01696 25.5258 3.2757 25.5258 3.87943V5.34563H22.3347V3.87943C22.3347 3.23257 22.464 3.01696 22.8521 3.01696V2.71509H20.4803V3.01696C20.8253 3.01696 20.9978 3.2757 20.9978 3.87943V8.0193C20.9978 8.66616 20.8685 8.88177 20.4803 8.88177V9.18364H22.8521V8.88177Z" fill="white"/>
<path d="M33.4609 9.01117L33.5902 7.71747H33.2884C33.2021 8.40744 32.9434 8.70931 32.2965 8.70931H30.1403V6.16501H31.3478C31.9946 6.16501 32.2103 6.29438 32.2103 6.68249H32.5121V5.17317H32.2103C32.2103 5.51816 31.9515 5.64752 31.3478 5.64752H30.1403V3.18948H32.2103C32.8571 3.18948 33.1159 3.49134 33.2021 4.22444H33.504L33.3746 2.88761V2.672H28.286V2.97386C28.631 2.97386 28.8035 3.2326 28.8035 3.83633V7.97621C28.8035 8.62306 28.6741 8.83867 28.286 8.83867V9.14055H33.4609V8.92492V9.01117Z" fill="white"/>
<path d="M44.1986 19.2318C47.2604 19.2318 50.279 17.2481 50.279 14.0138C50.279 11.0814 47.5622 9.96022 44.7161 8.79589C42.5168 7.89029 39.8431 6.89844 39.8431 4.48352C39.8431 2.28421 41.6543 1.07675 43.7242 1.07675C46.6998 1.07675 48.511 2.67232 49.4597 4.95787L49.7184 4.87162L49.6322 1.85297C48.6403 1.29237 46.9154 0.645508 44.5867 0.645508C40.7918 0.645508 38.2475 2.58607 38.2475 5.60473C38.2475 8.36464 40.1881 9.44273 43.2499 10.6502C45.4492 11.5127 48.5972 12.7201 48.5972 15.3076C48.5972 17.4206 46.786 18.7574 44.7161 18.7574C41.0937 18.7574 39.1531 16.4288 38.1182 13.712H37.8163L37.9457 17.3775C39.1531 18.24 41.4387 19.2318 44.1555 19.2318" fill="white"/>
<path d="M65.0706 15.5226H64.7687C63.82 17.8944 62.2676 18.5843 59.7664 18.5843H56.4027C55.6696 18.5843 55.2384 18.1531 55.2384 17.42V9.44212H58.5589C61.5344 9.44212 62.2676 10.0458 62.5694 11.2102H62.8713V7.28593H62.5694C62.2676 8.45027 61.4913 9.054 58.5589 9.054H55.2384V1.2055H59.0333C61.6638 1.2055 63.2163 1.98172 64.1219 4.26727L64.4237 4.18102L64.1219 0.817383H52.0472V1.16237C52.8235 1.37799 53.0822 1.98172 53.0822 4.1379V15.695C53.0822 17.8081 52.8235 18.4118 52.0472 18.6706V19.0156H64.855L65.0706 15.5657V15.5226Z" fill="white"/>
<path d="M76.8432 19.2318C79.7325 19.2318 82.1906 18.4987 83.4412 17.8518L83.8724 14.4882H83.5705C82.5787 17.2481 80.3794 18.7574 77.5763 18.7574C72.1859 18.7574 69.2103 14.1001 69.2535 9.22708C69.2535 3.92287 72.4446 1.20609 76.5845 1.20609C79.6894 1.20609 82.1475 2.80166 83.1393 5.13034H83.398L83.3118 1.98231C82.3199 1.33545 79.6894 0.688599 77.4901 0.688599C71.4097 0.688599 67.0973 4.78534 67.0973 10.3052C67.0973 15.825 70.8922 19.2749 76.8864 19.2749" fill="white"/>
<path d="M89.4351 15.6956V9.61513H91.8069C97.068 10.3482 96.7662 19.2748 103.407 19.2748C105.563 19.2748 107.245 18.283 108.194 17.1618L107.978 16.9462C107.288 17.7224 106.167 18.4124 104.873 18.4124C99.6986 18.4124 99.8711 10.9088 93.3163 9.48576C96.5505 9.0114 98.1892 7.20021 98.1892 4.82841C98.1892 2.45661 96.6368 0.77478 91.3757 0.77478H86.2871V1.11977C87.1065 1.33539 87.3221 1.93912 87.3221 4.0953V15.6524C87.3221 17.7655 87.1065 18.3692 86.2871 18.628V18.973H90.4701V18.628C89.6508 18.4124 89.4351 17.8086 89.4351 15.6524M89.4351 1.24914C89.8664 1.24914 90.2545 1.20602 90.6426 1.20602C94.4806 1.20602 95.9899 3.14658 95.9899 5.47526C95.9899 7.80394 94.61 9.22701 91.5913 9.22701H89.392V1.24914H89.4351Z" fill="white"/>
<path d="M111.988 11.5557H111.686C110.867 13.065 109.961 13.6688 107.848 13.6688H106.167C105.433 13.6688 105.002 13.2375 105.002 12.5044V6.98459H106.21C108.883 6.98459 109.53 7.54519 109.832 8.58016H110.134V5.04402H109.832C109.53 6.07899 108.883 6.6396 106.21 6.6396H105.002V1.16289H107.633C109.703 1.16289 110.608 1.68037 111.298 3.14658H111.6L111.385 0.77478H101.897V1.11977C102.717 1.33539 102.932 1.93912 102.932 4.0953V10.7363C102.932 12.8494 102.717 13.4531 101.897 13.7119V14.0569H111.773L111.988 11.5557Z" fill="white"/>
<path d="M126.608 0.817383H113.239L113.067 3.66354H113.369C114.231 1.85235 115.266 1.2055 117.595 1.2055H118.845V15.6519C118.845 17.765 118.63 18.3687 117.81 18.6275V18.9724H122.037V18.6275C121.217 18.4118 121.002 17.8081 121.002 15.6519V1.2055H122.209C124.538 1.2055 125.573 1.80923 126.435 3.70667H126.737L126.564 0.817383H126.608Z" fill="white"/>
<path d="M79.9483 21.9053H73.7385V22.2503C74.5148 22.4659 74.7735 23.0696 74.7735 25.2258V36.7829C74.7735 38.896 74.5148 39.4997 73.7385 39.7585V40.1035H80.5521C86.2444 40.1035 89.953 36.1792 89.9099 30.7025C89.9099 26.5195 87.0637 21.9484 79.9483 21.9484M80.5089 39.7153H78.6115C77.1884 39.7153 76.9297 39.0254 76.9297 37.8179V22.3365H78.6977C84.4763 22.3365 87.5812 26.5195 87.5812 31.7375C87.5812 36.9554 85.08 39.7153 80.5089 39.7153" fill="white"/>
<path d="M98.8356 39.6722H95.4719C94.7388 39.6722 94.3076 39.241 94.3076 38.5079V30.53H97.6281C100.604 30.53 101.337 31.1337 101.639 32.2981H101.94V28.3738H101.639C101.337 29.5382 100.561 30.1419 97.6281 30.1419H94.3076V22.2934H98.1025C100.733 22.2934 102.285 23.0696 103.191 25.3552L103.493 25.2689L103.191 21.9053H91.1165V22.2503C91.8927 22.4659 92.1514 23.0696 92.1514 25.2258V36.7829C92.1514 38.896 91.8927 39.4997 91.1165 39.7585V40.1035H103.881L104.097 36.6536H103.795C102.846 39.0254 101.294 39.7153 98.7925 39.7153" fill="white"/>
<path d="M118.242 22.25C119.406 22.5519 120.01 23.285 120.01 26.2605V36.6102L108.669 21.9481H106.124V22.2931C107.159 22.5087 107.461 23.1125 107.461 25.2686V36.8258C107.461 38.9388 107.202 39.5426 106.426 39.8013V40.1463H109.661V39.8013C108.496 39.4994 107.892 38.7663 107.892 35.7908V24.4493L120.096 40.3619H120.441V25.3118C120.441 23.1987 120.657 22.595 121.476 22.3362V21.9912H118.199V22.3362L118.242 22.25Z" fill="white"/>
<path d="M68.9949 35.8343C67.7443 32.6863 67.2699 31.0907 64.165 30.6594C64.5531 30.5732 65.89 30.2713 66.3643 30.0557C66.4075 30.0557 66.4937 30.0126 66.4937 29.9695C68.2618 29.1501 69.1674 27.727 69.1674 25.959C69.1674 23.6303 67.6149 21.9053 62.3538 21.9053H57.2653V22.2503C58.0846 22.4659 58.3002 23.0697 58.3002 25.2259V30.5732C56.0147 30.7888 53.2548 30.9182 50.2792 30.9182L46.4412 21.7328L44.5006 22.5953L44.7163 23.1559C44.9319 23.5872 44.9319 23.889 44.7594 24.3634L42.3445 30.4007C39.9727 30.0557 37.7302 29.5814 35.7897 28.8051C29.4505 26.3902 22.9819 24.0184 17.0309 22.7247C18.1521 18.4554 21.3864 16.213 25.3969 16.213C29.4074 16.213 32.6416 18.5848 33.9354 21.5603L34.2803 21.4741L34.151 17.3774C32.8141 16.4718 29.4936 15.5662 26.4318 15.5662C21.257 15.5662 17.1602 18.283 15.1334 22.3366C13.4516 22.0347 11.8129 21.8191 10.2173 21.6897C4.22315 21.6897 0.255767 25.7433 0.471386 30.3145C0.687004 34.8856 4.95625 38.5511 9.91547 38.5511V37.9473C6.42245 37.6886 1.7651 34.6268 1.7651 30.5301C1.7651 26.4333 5.25811 23.4147 9.7861 23.2853C14.2278 23.2853 26.7337 27.727 30.5717 29.0639C32.8141 29.8832 33.2885 30.3145 33.2885 33.1175V36.6536C32.4691 38.3786 30.1836 39.7585 27.5962 39.7585C21.0845 39.7585 17.9796 34.8424 16.9015 29.4089C16.9015 29.3226 16.9015 29.1932 16.8584 29.0639C16.6428 27.727 15.6509 26.6489 14.3141 26.3902C14.1847 26.3902 14.0553 26.3471 13.926 26.304C13.8397 26.9077 13.7966 27.5114 13.7966 28.1583C13.7966 35.6187 18.8421 40.4485 26.5612 40.4485C30.0542 40.4485 34.1078 38.6373 36.0915 35.8343V30.9182C36.7815 31.1338 37.5146 31.3063 38.2046 31.4357C39.3689 31.6513 40.5333 31.8238 41.7407 31.9963L39.6708 37.0849C38.8514 39.0686 38.2046 39.586 37.4715 39.8017V40.1466H40.4039V39.8017C39.5414 39.6292 39.4121 38.7667 40.102 37.0849L42.1288 32.0394C44.3282 32.255 46.4843 32.3844 48.5543 32.3413L48.7699 32.9019L48.9424 33.29L50.538 37.0849C51.3573 39.0254 51.5729 39.5429 50.7536 39.8017V40.1466H54.7641V39.8017C54.2035 39.586 53.5997 39.0686 52.7804 37.0849L50.7967 32.2981C52.7373 32.2119 54.5053 32.0825 56.144 31.8669C56.834 31.7807 57.524 31.6944 58.3002 31.6082V36.8692C58.3002 38.9823 58.0846 39.586 57.2653 39.8448V40.1898H61.4482V39.8448C60.6289 39.6292 60.4133 39.0254 60.4133 36.8692V31.3494C61.4051 31.2201 62.3538 31.0476 63.2163 30.9182C65.2431 31.3494 65.5881 33.1175 66.8818 36.2224C68.003 38.9392 68.4343 40.3623 70.418 40.3623C70.9355 40.3623 71.6254 40.3191 72.0135 40.1898V39.8879C72.0135 39.8879 71.7548 39.8879 71.5823 39.8879C70.7198 39.8879 70.2024 39.0254 68.9518 35.9205M42.7326 30.5301L45.1906 24.4065L47.9074 30.9613C46.1825 30.8751 44.4144 30.7457 42.6895 30.5301M61.6639 30.2713C61.3189 30.3145 60.327 30.4007 60.327 30.4007V22.4228C60.7583 22.4228 61.1464 22.3797 61.5345 22.3797C65.3725 22.3797 66.8818 24.3203 66.8818 26.6489C66.8818 27.3389 66.6662 29.7107 61.6639 30.2713" fill="white"/>
</svg>
