<svg xmlns="http://www.w3.org/2000/svg" xmlns:xlink="http://www.w3.org/1999/xlink"
	 x="0px" y="0px"
	 width="26.3px" height="25px" viewBox="0 0 26.3 25" enable-background="new 0 0 26.3 25" xml:space="preserve">
	<path d="M26.3,9.9l0,12c0,0.8-0.2,1.6-0.8,2.2s-1.3,1-2.1,1L2.9,25c-0.8,0-1.6-0.4-2.1-1C0.2,23.4,0,22.6,0,21.8l0-16
	c0-0.8,0.2-1.6,0.8-2.2c0.5-0.6,1.3-1,2.1-1l3.6,0c0.1,0,0.1,0,0.2,0V0.5C6.7,0.2,6.9,0,7.2,0s0.5,0.2,0.5,0.5v5.3
	c0,0.3-0.2,0.5-0.5,0.5S6.7,6.1,6.7,5.8V3.6c-0.1,0-0.1,0-0.2,0H2.9c-0.5,0-1,0.3-1.4,0.7C1.2,4.7,1,5.3,1,5.8l0,16
	c0,0.6,0.2,1.1,0.5,1.5C1.9,23.7,2.4,24,2.9,24l20.5,0c0.5,0,1-0.3,1.4-0.7c0.4-0.4,0.5-0.9,0.5-1.5l0-11.5H3.2
	c-0.3,0-0.5-0.2-0.5-0.5s0.2-0.5,0.5-0.5h22.2l0-3.5c0-0.6-0.2-1.1-0.5-1.5c-0.4-0.4-0.9-0.6-1.4-0.7l-1.6,0c-0.3,0-0.5-0.2-0.5-0.5
	s0.2-0.5,0.5-0.5h1.6c0.8,0,1.6,0.4,2.1,1c0.5,0.6,0.8,1.4,0.8,2.2L26.3,9.9C26.3,9.8,26.3,9.8,26.3,9.9C26.3,9.8,26.3,9.8,26.3,9.9
	z M9.8,3.7C9.8,3.7,9.8,3.7,9.8,3.7l8.8,0v2.2c0,0.3,0.2,0.5,0.5,0.5s0.5-0.2,0.5-0.5V0.5c0-0.3-0.2-0.5-0.5-0.5s-0.5,0.2-0.5,0.5
	v2.1l-8.8,0c-0.3,0-0.5,0.2-0.5,0.5S9.6,3.7,9.8,3.7z M6.6,15.1c0.2,0.2,0.4,0.2,0.6,0.2c0.2,0,0.4-0.1,0.6-0.2S8,14.7,8,14.5
	c0,0,0,0,0,0c0,0,0,0,0,0c0-0.2-0.1-0.4-0.2-0.6c-0.3-0.3-0.9-0.3-1.2,0c-0.2,0.2-0.2,0.4-0.2,0.6c0,0,0,0,0,0s0,0,0,0
	C6.3,14.7,6.4,14.9,6.6,15.1z M12.6,15.1c0.2,0.2,0.4,0.2,0.6,0.2c0.2,0,0.4-0.1,0.6-0.2s0.2-0.4,0.2-0.6c0,0,0,0,0,0c0,0,0,0,0,0
	c0-0.2-0.1-0.4-0.2-0.6c-0.3-0.3-0.9-0.3-1.2,0c-0.2,0.2-0.2,0.4-0.2,0.6c0,0,0,0,0,0c0,0,0,0,0,0C12.3,14.7,12.4,14.9,12.6,15.1z
	 M18.6,15.1c0.2,0.2,0.4,0.2,0.6,0.2c0.2,0,0.4-0.1,0.6-0.2s0.2-0.4,0.2-0.6c0,0,0,0,0,0c0,0,0,0,0,0c0-0.2-0.1-0.4-0.2-0.6
	c-0.3-0.3-0.9-0.3-1.2,0c-0.2,0.2-0.2,0.4-0.2,0.6c0,0,0,0,0,0c0,0,0,0,0,0C18.3,14.7,18.4,14.9,18.6,15.1z M6.3,19.8
	c0,0.2,0.1,0.4,0.2,0.6c0.2,0.2,0.4,0.2,0.6,0.2c0.2,0,0.4-0.1,0.6-0.2C7.9,20.3,8,20.1,8,19.9c0,0,0,0,0-0.1c0,0,0,0,0,0s0,0,0,0
	c0,0,0,0,0,0c0-0.2-0.1-0.4-0.2-0.6c-0.3-0.3-0.9-0.3-1.2,0c-0.1,0.1-0.2,0.2-0.2,0.4C6.4,19.7,6.3,19.8,6.3,19.8
	C6.3,19.8,6.3,19.8,6.3,19.8C6.3,19.8,6.3,19.8,6.3,19.8C6.3,19.8,6.3,19.8,6.3,19.8z M12.3,19.8c0,0.2,0.1,0.4,0.2,0.6
	c0.2,0.2,0.4,0.2,0.6,0.2c0.2,0,0.4-0.1,0.6-0.2c0.1-0.1,0.2-0.3,0.2-0.5c0,0,0,0,0-0.1c0,0,0,0,0,0s0,0,0,0c0,0,0,0,0,0
	c0-0.2-0.1-0.4-0.2-0.6c-0.3-0.3-0.9-0.3-1.2,0c-0.1,0.1-0.2,0.2-0.2,0.4C12.4,19.7,12.3,19.8,12.3,19.8
	C12.3,19.8,12.3,19.8,12.3,19.8C12.3,19.8,12.3,19.8,12.3,19.8C12.3,19.8,12.3,19.8,12.3,19.8z M18.3,19.8c0,0.2,0.1,0.4,0.2,0.6
	c0.2,0.2,0.4,0.2,0.6,0.2c0.2,0,0.4-0.1,0.6-0.2c0.1-0.1,0.2-0.3,0.2-0.5c0,0,0,0,0-0.1c0,0,0,0,0,0s0,0,0,0c0,0,0,0,0,0
	c0-0.2-0.1-0.4-0.2-0.6c-0.3-0.3-0.9-0.3-1.2,0C18.4,19.4,18.3,19.6,18.3,19.8C18.3,19.8,18.3,19.8,18.3,19.8
	C18.3,19.8,18.3,19.8,18.3,19.8C18.3,19.8,18.3,19.8,18.3,19.8C18.3,19.8,18.3,19.8,18.3,19.8z"/>
</svg>
