<svg xmlns="http://www.w3.org/2000/svg" xmlns:xlink="http://www.w3.org/1999/xlink"
	 x="0px" y="0px"
	 width="18px" height="18px" viewBox="0 0 18 18" enable-background="new 0 0 18 18" xml:space="preserve">
	<path d="M18,2v14c0,1.1-0.9,2-2,2h-3.8c-0.3,0-0.5-0.2-0.5-0.5v-6h2.3c0.2,0,0.4-0.2,0.5-0.4l0.4-1.8c0-0.1,0-0.1,0-0.2
	C14.8,9,14.8,9,14.7,9h-2.9V5.8c0-0.1,0.1-0.2,0.2-0.2h2.5C14.8,5.5,15,5.3,15,5V3.5C15,3.2,14.8,3,14.5,3H12c-1.7,0-3,1.3-3,3v3
	H7.8C7.5,9,7.3,9.2,7.3,9.5V11c0,0.3,0.2,0.5,0.5,0.5H9v6C9,17.8,8.8,18,8.5,18H2c-1.1,0-2-0.9-2-2V2c0-1.1,0.9-2,2-2h14
	C17.1,0,18,0.9,18,2z"/>
</svg>
