<svg xmlns="http://www.w3.org/2000/svg" xmlns:xlink="http://www.w3.org/1999/xlink"
	 x="0px" y="0px"
	 width="18px" height="18px" viewBox="0 0 18 18" enable-background="new 0 0 18 18" xml:space="preserve">
	<path d="M12.6,0H5.4C2.4,0,0,2.4,0,5.4v7.3c0,3,2.4,5.4,5.4,5.4h7.3c3,0,5.4-2.4,5.4-5.4V5.4C18,2.4,15.6,0,12.6,0z M16.2,12.6
	c0,2-1.6,3.6-3.6,3.6H5.4c-2,0-3.6-1.6-3.6-3.6V5.4c0-2,1.6-3.6,3.6-3.6h7.3c2,0,3.6,1.6,3.6,3.6V12.6z M9,4.3
	C6.4,4.3,4.3,6.4,4.3,9c0,2.6,2.1,4.7,4.7,4.7c2.6,0,4.7-2.1,4.7-4.7C13.7,6.4,11.6,4.3,9,4.3z M9,11.8c-1.6,0-2.8-1.3-2.8-2.8
	c0-1.6,1.3-2.8,2.8-2.8s2.8,1.3,2.8,2.8C11.8,10.6,10.6,11.8,9,11.8z M13.7,5.6c0.7,0,1.2-0.5,1.2-1.2s-0.5-1.2-1.2-1.2
	c-0.7,0-1.2,0.5-1.2,1.2S13,5.6,13.7,5.6z"/>
</svg>
