<svg class="svg-logo-plant" xmlns="http://www.w3.org/2000/svg" xmlns:xlink="http://www.w3.org/1999/xlink"
	 x="0px" y="0px"
	 width="74.6px" height="88.9px" viewBox="0 0 74.6 88.9" enable-background="new 0 0 74.6 88.9" xml:space="preserve">
	<path d="M28.5,78.3c0,0,1.6-0.6,2.2-0.7c0.6-0.2,1.8-0.6,2.9-0.8c1.1-0.2,1.8-0.2,1.8-0.2s-0.8-0.3-2.1-0.5
	c-0.9-0.1-2.4-0.3-4.2-0.4c-1.6-0.1-3.1-0.3-3.7-0.3c-0.7,0-4-0.2-6.1-0.2c-2.4-0.1-4.3,0-5.1,0c-1,0-3.7,0.2-4.6,0.3
	c-1,0.1-1.2,0.3-1.2,0.3s0.2,0.2,1.2,0.5c0.6,0.2,2.1,0.5,2.7,0.6c0.5,0.1,2.4,0.4,4.6,0.7c2.1,0.2,7.6,0.7,8.6,0.7
	C27.3,78.2,28.5,78.3,28.5,78.3z M37.4,78.5c0-0.1-0.1-0.1-0.1-0.2c0,0.1,0,0.1-0.1,0.2c-0.1,0.3-0.3,0.5-0.6,0.8l-0.5,9.7h2.5
	L38,79.2C37.7,79,37.5,78.7,37.4,78.5z M22.6,42c0.9,2.6,1.7,5.2,2.6,7.8c0.7,2.1,1.4,4.2,2,6.2c1.9,3.2,3.5,6.1,4.9,8.7
	c0.2,0.3,0.3,0.6,0.5,0.9c0.2,0.3,0.3,0.6,0.5,0.9c0.7,1.2,1.3,2.4,1.8,3.5c0.1,0.3,0.3,0.6,0.4,0.8c0.1,0.3,0.3,0.6,0.4,0.9
	c0.2,0.4,0.4,0.8,0.5,1.2c-0.2-0.8-0.4-1.7-0.7-2.8c-0.1-0.4-0.2-0.9-0.4-1.4c0-0.1,0-0.1-0.1-0.2c-0.1-0.5-0.3-0.9-0.4-1.4
	c-0.8-2.8-1.9-6-3-9.4c-0.2-0.6-0.4-1.1-0.6-1.7c-0.2-0.5-0.4-1.1-0.6-1.6c-0.6-1.8-1.3-3.7-1.9-5.6c-0.9-2.6-1.8-5.2-2.7-7.8
	c-0.1-0.2-6.9-17.9-9.1-23.1c-0.9-2.1-1.4-3-1.7-3.3c0,0.4,0.1,1.5,0.7,3.7C17.2,23.6,22.5,41.8,22.6,42z M18,48.4
	c1.2,2.2,2.5,4.4,3.7,6.6c0.9,1.6,1.8,3.2,2.6,4.7c2.1,2.3,3.9,4.5,5.6,6.4c0.2,0.2,0.4,0.5,0.6,0.7c0.2,0.3,0.4,0.5,0.6,0.7
	c0.7,0.8,1.3,1.6,1.9,2.3c0.2,0.2,0.3,0.4,0.5,0.6c0.2,0.2,0.3,0.4,0.5,0.6c0.4,0.6,0.8,1.1,1.2,1.6c0.1,0.2,0.3,0.4,0.4,0.6
	c0.1,0.1,0.2,0.2,0.2,0.4c-0.1-0.2-0.2-0.4-0.3-0.7c-0.1-0.3-0.3-0.7-0.5-1c-0.5-1-1-2-1.6-3.2c-0.2-0.3-0.4-0.7-0.5-1
	c-0.2-0.3-0.3-0.6-0.5-0.9c-1.2-2.3-2.7-4.9-4.2-7.5c-0.3-0.5-0.6-1-0.8-1.5c-0.3-0.5-0.5-0.9-0.8-1.4c-0.6-1-1.2-2.1-1.8-3.1
	c-1.2-2.1-2.5-4.3-3.8-6.5c-0.1-0.1-9.4-14.9-12.3-19.2c-1.2-1.7-1.8-2.4-2.1-2.7C6.7,25.3,7,26.1,7.8,28C10,32.7,17.9,48.2,18,48.4
	z M15.5,55.4c1.5,1.7,2.9,3.4,4.3,5.1c1.2,1.4,2.4,2.8,3.6,4.2c1.9,1.4,3.6,2.7,5.2,3.9c0.2,0.2,0.5,0.4,0.7,0.5
	c0.2,0.2,0.5,0.4,0.7,0.6c0.6,0.4,1.1,0.9,1.6,1.3c0.2,0.1,0.4,0.3,0.5,0.4c0.2,0.1,0.4,0.3,0.5,0.4c0.3,0.3,0.6,0.5,0.9,0.7
	c0.1,0.1,0.3,0.3,0.4,0.4c0.2,0.1,0.3,0.3,0.5,0.4c0.3,0.3,0.6,0.6,0.9,0.9c0,0,0,0,0.1,0.1c0,0,0-0.1-0.1-0.1
	c-0.3-0.5-0.7-1-1.1-1.5c-0.2-0.2-0.3-0.5-0.5-0.7c-0.2-0.2-0.3-0.4-0.5-0.6c-0.5-0.6-1-1.2-1.5-1.9c-0.2-0.3-0.4-0.5-0.7-0.8
	c-0.2-0.3-0.4-0.5-0.6-0.8c-1.4-1.7-3-3.5-4.6-5.4c-0.4-0.4-0.7-0.8-1.1-1.2c-0.3-0.4-0.7-0.8-1.1-1.2c-0.5-0.6-1-1.1-1.5-1.7
	c-1.5-1.6-2.9-3.3-4.4-5c-0.1-0.1-10.7-11.3-14-14.4c-1.2-1.2-1.9-1.7-2.2-1.9c0.2,0.4,0.6,1.1,1.6,2.5
	C5.9,43.2,15.4,55.3,15.5,55.4z M19.3,66.7c1.4,1,2.7,2.1,4,3.1c2.1,0.8,4,1.6,5.7,2.3c0.3,0.1,0.5,0.2,0.7,0.3
	c0.3,0.1,0.5,0.2,0.8,0.3c0.3,0.1,0.6,0.3,0.9,0.4c0.2,0.1,0.4,0.2,0.6,0.3c0.2,0.1,0.4,0.2,0.6,0.3c0.1,0,0.2,0.1,0.3,0.2
	c0.2,0.1,0.3,0.2,0.5,0.2c0.2,0.1,0.3,0.2,0.5,0.2c0.1,0.1,0.2,0.1,0.3,0.2c0.1,0.1,0.3,0.2,0.4,0.2c0.2,0.1,0.3,0.2,0.4,0.3
	c0.1,0.1,0.2,0.1,0.3,0.2c-0.1-0.1-0.2-0.2-0.4-0.4c-0.2-0.2-0.3-0.3-0.5-0.5c-0.2-0.1-0.3-0.3-0.5-0.4c-0.2-0.2-0.4-0.4-0.6-0.5
	c-0.2-0.2-0.4-0.3-0.6-0.5c-0.2-0.2-0.4-0.3-0.6-0.5c-0.4-0.3-0.8-0.6-1.2-0.9c-0.3-0.2-0.5-0.4-0.8-0.6c-0.2-0.2-0.5-0.4-0.8-0.6
	c-1.3-1-2.7-2.1-4.2-3.2c-0.4-0.3-0.8-0.6-1.2-0.9c-0.4-0.3-0.8-0.6-1.2-0.9c-0.5-0.4-1.1-0.8-1.6-1.2c-1.5-1.1-3.1-2.2-4.6-3.4
	c-0.1-0.1-11.1-7.4-14.4-9.4c-1.3-0.8-2-1.1-2.3-1.1c0.1,0.3,0.6,0.8,1.7,1.9c2.9,2.6,12.9,11.2,13,11.2
	C16.3,64.4,17.8,65.6,19.3,66.7z M20.9,72.6c1.8,0.7,3.5,1.5,5.2,2.1c1.1,0.1,2.1,0.1,3.1,0.2c0.2,0,0.5,0,0.7,0
	c0.2,0,0.5,0,0.7,0.1c0.5,0,1,0.1,1.5,0.1c0.2,0,0.4,0,0.6,0.1c0.1,0,0.3,0,0.4,0.1c0.1,0,0.1,0,0.2,0c0.1,0,0.2,0,0.3,0
	c0.1,0,0.2,0,0.3,0c0.1,0,0.1,0,0.2,0c0.1,0,0.2,0,0.3,0c0.1,0,0.3,0.1,0.4,0.1c0,0,0,0,0.1,0c0.1,0,0.3,0.1,0.4,0.1
	c0.1,0,0.1,0,0.2,0.1c-0.1,0-0.1-0.1-0.2-0.1c-0.1-0.1-0.3-0.2-0.5-0.3c0,0-0.1,0-0.1-0.1c-0.2-0.1-0.3-0.2-0.5-0.3
	c-0.2-0.1-0.3-0.2-0.5-0.3c-0.2-0.1-0.4-0.2-0.6-0.3c-0.2-0.1-0.4-0.2-0.6-0.3C32,74.1,31.8,74,31.7,74c-0.3-0.1-0.5-0.2-0.8-0.4
	c-0.3-0.1-0.5-0.2-0.8-0.3c-1.5-0.6-3.1-1.3-4.8-2c-0.4-0.2-0.8-0.3-1.2-0.5c-0.4-0.1-0.8-0.3-1.2-0.4c-0.4-0.2-0.8-0.3-1.2-0.5
	c-1.4-0.5-2.9-1.1-4.3-1.7c-0.1,0-8.7-3.1-13.2-4.2c-0.9-0.2-1.5-0.3-1.8-0.3c0.2,0.2,0.7,0.5,1.6,1.1c3.5,2.1,12.5,6.1,12.6,6.2
	C18,71.4,19.5,72,20.9,72.6z M44.1,54.2c-0.2,0.6-0.4,1.1-0.6,1.6c-0.2,0.6-0.4,1.2-0.6,1.7c-1.2,3.4-2.2,6.6-3,9.4
	c-0.1,0.5-0.3,1-0.4,1.4c0,0.1,0,0.1-0.1,0.2c-0.1,0.5-0.3,1-0.4,1.4c-0.3,1.1-0.5,2-0.7,2.8c0.2-0.4,0.3-0.8,0.5-1.2
	c0.1-0.3,0.3-0.6,0.4-0.9c0.1-0.3,0.3-0.5,0.4-0.8c0.5-1.1,1.1-2.2,1.8-3.5c0.2-0.3,0.3-0.6,0.5-0.9c0.2-0.3,0.3-0.6,0.5-0.9
	c1.4-2.6,3.1-5.4,4.9-8.7c0.7-2,1.3-4.1,2-6.2c0.8-2.6,1.7-5.2,2.6-7.8c0-0.2,5.3-18.5,6.7-23.9c0.6-2.2,0.7-3.2,0.7-3.7
	c-0.3,0.4-0.8,1.2-1.7,3.3c-2.2,5.2-9,22.9-9.1,23.1c-0.9,2.6-1.8,5.2-2.7,7.8C45.3,50.5,44.7,52.3,44.1,54.2z M49.8,53.2
	c-0.6,1-1.2,2.1-1.8,3.1c-0.3,0.5-0.6,1-0.8,1.4c-0.3,0.5-0.6,1-0.8,1.5c-1.5,2.7-3,5.2-4.2,7.5c-0.2,0.3-0.3,0.6-0.5,0.9
	c-0.2,0.3-0.4,0.7-0.5,1c-0.6,1.1-1.1,2.2-1.6,3.2c-0.2,0.4-0.3,0.7-0.5,1c-0.1,0.2-0.2,0.5-0.3,0.7c0.1-0.1,0.2-0.2,0.2-0.4
	c0.1-0.2,0.3-0.4,0.4-0.6c0.4-0.5,0.8-1,1.2-1.6c0.2-0.2,0.3-0.4,0.5-0.6c0.1-0.2,0.3-0.4,0.5-0.6c0.6-0.7,1.2-1.5,1.9-2.3
	c0.2-0.2,0.4-0.5,0.6-0.7c0.2-0.2,0.4-0.5,0.6-0.7c1.6-1.9,3.5-4,5.6-6.4c0.9-1.5,1.7-3.1,2.6-4.7c1.2-2.2,2.4-4.4,3.7-6.6
	c0.1-0.1,8-15.7,10.2-20.3c0.9-1.9,1.1-2.7,1.2-3.1c-0.3,0.3-0.9,1-2.1,2.7c-2.9,4.3-12.2,19-12.3,19.2
	C52.3,48.9,51.1,51.1,49.8,53.2z M52.3,58.4c-0.5,0.6-1,1.1-1.5,1.7c-0.4,0.4-0.7,0.8-1.1,1.2c-0.4,0.4-0.7,0.8-1.1,1.2
	c-1.7,1.9-3.2,3.7-4.6,5.4c-0.2,0.3-0.4,0.5-0.6,0.8c-0.2,0.3-0.5,0.5-0.7,0.8c-0.6,0.7-1.1,1.3-1.5,1.9c-0.2,0.2-0.3,0.4-0.5,0.6
	c-0.2,0.2-0.4,0.5-0.5,0.7c-0.4,0.5-0.8,1-1.1,1.5c0,0,0,0.1-0.1,0.1c0,0,0,0,0.1-0.1c0.3-0.3,0.6-0.6,0.9-0.9
	c0.1-0.1,0.3-0.3,0.5-0.4c0.1-0.1,0.3-0.3,0.4-0.4c0.3-0.2,0.6-0.5,0.9-0.7c0.2-0.1,0.4-0.3,0.6-0.4c0.2-0.1,0.4-0.3,0.5-0.4
	c0.5-0.4,1.1-0.9,1.6-1.3c0.2-0.2,0.5-0.4,0.7-0.6c0.2-0.2,0.5-0.4,0.7-0.5c1.6-1.2,3.4-2.5,5.2-3.9c1.2-1.4,2.4-2.8,3.6-4.2
	c1.4-1.7,2.9-3.4,4.3-5.1c0.1-0.1,9.6-12.2,12.3-15.9c1-1.4,1.4-2.1,1.6-2.5c-0.3,0.2-1,0.7-2.2,1.9c-3.3,3.2-13.9,14.3-14,14.4
	C55.3,55,53.8,56.7,52.3,58.4z M72.3,51.3c-3.3,2-14.3,9.3-14.5,9.4c-1.5,1.1-3.1,2.3-4.6,3.4c-0.5,0.4-1.1,0.8-1.6,1.2
	c-0.4,0.3-0.8,0.6-1.2,0.9c-0.4,0.3-0.8,0.6-1.2,0.9c-1.5,1.1-2.9,2.1-4.2,3.2c-0.3,0.2-0.5,0.4-0.8,0.6c-0.3,0.2-0.5,0.4-0.8,0.6
	c-0.4,0.3-0.8,0.6-1.2,0.9c-0.2,0.2-0.4,0.3-0.6,0.5c-0.2,0.2-0.4,0.3-0.6,0.5c-0.2,0.2-0.4,0.4-0.6,0.5c-0.2,0.1-0.3,0.3-0.5,0.4
	c-0.2,0.2-0.4,0.3-0.5,0.5c-0.1,0.1-0.2,0.2-0.4,0.4c0.1-0.1,0.2-0.1,0.3-0.2c0.1-0.1,0.3-0.2,0.5-0.3c0.1-0.1,0.3-0.2,0.4-0.2
	c0.1-0.1,0.2-0.1,0.3-0.2c0.2-0.1,0.3-0.2,0.5-0.2c0.2-0.1,0.3-0.2,0.5-0.2c0.1,0,0.2-0.1,0.3-0.2c0.2-0.1,0.4-0.2,0.6-0.3
	c0.2-0.1,0.4-0.2,0.6-0.3c0.3-0.1,0.6-0.3,0.9-0.4c0.2-0.1,0.5-0.2,0.8-0.3c0.2-0.1,0.5-0.2,0.7-0.3c1.7-0.7,3.6-1.4,5.7-2.3
	c1.3-1,2.6-2,4-3.1c1.5-1.1,3-2.3,4.5-3.5c0.1-0.1,10.2-8.6,13-11.2c1.2-1.1,1.6-1.6,1.7-1.9C74.3,50.2,73.6,50.4,72.3,51.3z
	 M57.1,68.2c-1.4,0.6-2.9,1.1-4.3,1.7c-0.4,0.2-0.8,0.3-1.2,0.5c-0.4,0.1-0.8,0.3-1.2,0.4c-0.4,0.2-0.8,0.3-1.2,0.5
	c-1.7,0.7-3.3,1.3-4.8,2c-0.3,0.1-0.5,0.2-0.8,0.3c-0.3,0.1-0.6,0.2-0.8,0.4c-0.1,0.1-0.3,0.1-0.4,0.2c-0.2,0.1-0.4,0.2-0.6,0.3
	c-0.2,0.1-0.4,0.2-0.6,0.3c-0.2,0.1-0.4,0.2-0.5,0.3c-0.2,0.1-0.4,0.2-0.5,0.3c0,0-0.1,0-0.1,0.1c-0.2,0.1-0.3,0.2-0.5,0.3
	c-0.1,0.1-0.2,0.1-0.3,0.2c0.1,0,0.2-0.1,0.3-0.1c0.1,0,0.3-0.1,0.4-0.1c0,0,0,0,0.1,0c0.1,0,0.3-0.1,0.4-0.1c0.1,0,0.2,0,0.3,0
	c0.1,0,0.1,0,0.2,0c0.1,0,0.2,0,0.3,0c0.1,0,0.2,0,0.3,0c0.1,0,0.1,0,0.2,0c0.1,0,0.3,0,0.4-0.1c0.2,0,0.4,0,0.6-0.1
	c0.5-0.1,1-0.1,1.5-0.1c0.2,0,0.5,0,0.7-0.1c0.2,0,0.4,0,0.7,0c0.9-0.1,2-0.1,3.1-0.2c1.7-0.7,3.4-1.4,5.2-2.1
	c1.4-0.6,2.8-1.2,4.3-1.8c0.1,0,9.1-4,12.6-6.1c0.9-0.5,1.3-0.9,1.6-1c-0.3,0-0.8,0.1-1.8,0.3C65.9,65.1,57.2,68.2,57.1,68.2z
	 M14.9,84.9c3.6-2,8.2-3.9,8.3-3.9c0.9-0.3,1.9-0.7,2.8-1c0.8-0.3,1.7-0.6,2.5-0.9c0.3-0.1,0.6-0.2,0.8-0.3c0.3-0.1,0.6-0.2,0.9-0.3
	c0.7-0.2,1.4-0.5,2.1-0.6c0.2-0.1,0.4-0.1,0.6-0.2c0.1,0,0.2-0.1,0.3-0.1c0.1,0,0.2,0,0.3-0.1c1.9-0.4,2.7-0.3,3,0.2
	c0.3,0.4-0.3,0.9-0.3,0.9c-1.2,1.2-5.2,2.5-9.4,3.9c-0.9,0.3-1.9,0.6-2.9,1c0,0-3.5,1.2-8.9,2.1c-0.7,0.1-1.1,0.1-1.3,0.1
	C14,85.4,14.3,85.2,14.9,84.9z M59.6,84.9c-3.6-2-8.2-3.9-8.3-3.9c-0.9-0.3-1.9-0.7-2.8-1c-0.8-0.3-1.7-0.6-2.5-0.9
	c-0.3-0.1-0.6-0.2-0.8-0.3c-0.3-0.1-0.6-0.2-0.9-0.3c-0.7-0.2-1.4-0.5-2.1-0.6c-0.2-0.1-0.4-0.1-0.6-0.2c-0.1,0-0.2-0.1-0.3-0.1
	c-0.1,0-0.2,0-0.3-0.1c-1.9-0.4-2.7-0.3-3,0.2c-0.3,0.4,0.3,0.9,0.3,0.9c1.2,1.2,5.2,2.5,9.4,3.9c0.9,0.3,1.9,0.6,2.9,1
	c0,0,3.5,1.2,8.9,2.1c0.7,0.1,1.1,0.1,1.3,0.1C60.6,85.4,60.3,85.2,59.6,84.9z M39.3,42.3c0-3.1-0.1-6.3-0.1-9.4
	c0-0.2-0.9-22.1-1.4-28.5c-0.2-2.8-0.5-3.9-0.6-4.4c-0.1,0.4-0.4,1.6-0.6,4.3c-0.5,6.4-1.4,28.3-1.4,28.5c0,3.2,0,6.3-0.1,9.4
	c0,3.3-0.1,6.5-0.1,9.6c0.5,3.3,2.1,16.3,2.1,16.3s1.6-12.9,2.1-16.3C39.4,48.8,39.4,45.5,39.3,42.3z M46.1,78.3
	c0,0-1.6-0.6-2.2-0.7c-0.6-0.2-1.8-0.6-2.9-0.8c-1.1-0.2-1.8-0.2-1.8-0.2s0.8-0.3,2.1-0.5c0.9-0.1,2.4-0.3,4.2-0.4
	c1.6-0.1,3.1-0.3,3.7-0.3c0.7,0,4-0.2,6.1-0.2c2.4-0.1,4.3,0,5.1,0c1,0,3.7,0.2,4.6,0.3c1,0.1,1.2,0.3,1.2,0.3s-0.2,0.2-1.2,0.5
	c-0.6,0.2-2.1,0.5-2.7,0.6c-0.5,0.1-2.4,0.4-4.6,0.7c-2.1,0.2-7.6,0.7-8.6,0.7C47.3,78.2,46.1,78.3,46.1,78.3z M37.7,72.6
	c0,0,0.1-2.1,0.3-4.2c0.1-0.8,0.1-1.7,0.2-2.6c0.2-1.5,0.4-3.1,0.5-4.4c0.3-2.4,1.7-12.1,3-20.1c0.3-2,0.6-4.2,0.9-6.1
	c0.8-4.3,1.9-10.1,2-10.7c0.3-1.6,1.9-9.9,2.2-11.5c0.1-0.7,0.4-2,0.7-3.2c0.1-0.6,0.2-1.1,0.4-1.6c0.2-0.8,0.3-1.3,0.4-1.4
	c0.1-0.4,0.4-1.1,0.4-1.1s0,0.3,0,1.1c0,0.8-0.1,2.4-0.3,4.6c-0.3,3.1-0.6,6.6-0.7,8c-0.2,2.5-0.8,9.3-1.6,15.9
	c-0.8,7.1-1.9,13.8-2,14.4c-0.2,1.2-0.6,4.3-0.6,4.3s-2.1,6.3-2.9,8.6C39.6,65.3,37.7,72.6,37.7,72.6z M36.9,72.6
	c0,0-0.1-2.1-0.3-4.2c-0.1-0.8-0.1-1.7-0.2-2.6c-0.2-1.5-0.4-3.1-0.5-4.4c-0.3-2.4-1.7-12.1-3-20.1c-0.3-2-0.6-4.2-0.9-6.1
	c-0.8-4.3-1.9-10.1-2-10.7c-0.3-1.6-1.9-9.9-2.2-11.5c-0.1-0.7-0.4-2-0.7-3.2c-0.1-0.6-0.2-1.1-0.4-1.6c-0.2-0.8-0.3-1.3-0.4-1.4
	C26.3,6.4,26,5.8,26,5.8s0,0.3,0,1.1c0,0.8,0.1,2.4,0.3,4.6c0.3,3.1,0.6,6.6,0.7,8c0.2,2.5,0.8,9.3,1.6,15.9
	c0.8,7.1,1.9,13.8,2,14.4c0.2,1.2,0.6,4.3,0.6,4.3s2.1,6.3,2.9,8.6C34.9,65.3,36.9,72.6,36.9,72.6z"/>
</svg>
