<svg class="svg-logo" xmlns="http://www.w3.org/2000/svg" xmlns:xlink="http://www.w3.org/1999/xlink"
	 x="0px" y="0px"
	 width="120px" height="168px" viewBox="0 0 120 168" enable-background="new 0 0 120 168" xml:space="preserve">
	<path class="svg-logo__title" d="M80.6,119.3l-1.4,4.8l-0.4,1.4H56.6v-0.8c1.8,0,3.6-0.5,3.6-3.2V97.9c0-2.6-1.9-3.1-3.6-3.1V94h11v0.8
	c-1.8,0-3.6,0.5-3.6,3.1v25.5h11.1c2.8,0,4-2.3,4.5-4.3L80.6,119.3z M28.5,101.7c0,4.4-3.6,8.3-9.6,8.3c-4.6,0-6.6-2.7-6.8-3.9v15.4
	c0,2.6,1.8,3.2,3.6,3.2v0.8h-11v-0.8c1.8,0,3.6-0.5,3.6-3.2V97.9c0-2.6-1.9-3.1-3.6-3.1V94h13.7C24.7,94,28.5,97,28.5,101.7z
	M24.6,102c0-3.4-1.9-5.9-7.5-5.9H12v6.4c0,2.9,1.5,5.8,6,5.8C22.9,108.2,24.6,104.8,24.6,102z M56.6,124.6v0.8H44.3v-0.8
	c2.5,0,4.7-0.5,3.9-3l-1.9-5.9H33.8l-1.9,5.9c-0.8,2.5,1.3,3,3.8,3v0.8H24.4v-0.8c1.8,0,4.1-0.5,4.9-3L37,97.8c0.8-2.5-1.9-3-4.8-3
	V94H43l8.8,27.7C52.6,124.1,54.9,124.6,56.6,124.6z M45.6,113.7L40,96.2l-5.6,17.4H45.6z M119.6,124.6v0.8h-11.6v-0.8
	c2.1,0,4.2-0.5,3.7-3.1L108,96.8l-9.2,28.7H95l-9.4-28.6l-3.9,24.7c-0.4,2.6-1.8,4-1.8,4h-5v-0.8c1.8,0,3.9-0.5,4.3-3.1l3.6-23.6
	c0.4-2.6-1.2-3.1-3-3.1V94h8.5l9.3,28.5c0.1-1.4,0.3-3.2,1-5.1l7.9-23.4h8.2v0.8c-1.8,0-3.4,0.5-3,3.1l3.7,23.6
	C115.8,124.1,117.9,124.6,119.6,124.6z M59.5,161.2v0.8H47.2v-0.8c2.5,0,4.7-0.5,3.9-3l-1.9-5.9H36.7l-1.9,5.9c-0.8,2.5,1.3,3,3.8,3
	v0.8H27.3v-0.8c1.8,0,4.1-0.5,4.9-3l7.6-23.9c0.8-2.5-1.9-3-4.8-3v-0.8h10.9l8.8,27.7C55.5,160.7,57.8,161.2,59.5,161.2z
	M48.5,150.2l-5.6-17.4l-5.6,17.4H48.5z M32.3,131.4c-1.8,0-4.3,0.3-5.7,2.6l-9.1,15.2v8.8c0,2.6,1.9,3.2,3.8,3.2v0.8H10v-0.8
	c1.9,0,3.9-0.5,3.9-3.2v-8.7l-8.3-15.3c-1.2-2.3-3.7-2.7-5.6-2.7v-0.8h7.6l8.6,16.2l7.5-12.7c1.4-2.3-0.7-2.7-3.5-2.7v-0.8h12
	L32.3,131.4L32.3,131.4z M120,146.3c0,10.5-6.5,15.8-16.6,15.8H90v-0.8c1.8,0,3.6-0.5,3.6-3.2v-23.5c0-2.6-1.9-3.1-3.6-3.1v-0.8
	h13.3C113.5,130.6,120,135.8,120,146.3z M116.1,146.3c0-9.2-5.3-13.6-13.7-13.6h-5.1V160h5.1C110.8,160,116.1,155.5,116.1,146.3z
	M70.1,158v-5.7c-0.1-2.8-0.3-5.4-1.6-7.8c-0.6-1.2-1.4-2.2-2.1-2.8V158c0,2.6-1.9,3.2-3.6,3.2v0.8h11v-0.8
	C71.9,161.2,70.1,160.7,70.1,158z M84.9,166.3v0.8h10.2l-0.5-0.6l-13.4-15.7c-2.2-2.5-4.8-4.4-7-5.7l0.1-0.1c1,0.3,1.8,0.4,2.8,0.4
	c5.9,0,9.5-3,9.5-7.4c0-4.7-3.8-7.4-10.1-7.4H62.8v0.8c1.8,0,3.6,0.5,3.6,3.1v1.9c-1.8-0.8-3.9-1.1-5.7-1.2c-6.9,0-11.5,4.7-11.2,10
	c0.3,5.3,5.2,9.5,10.9,9.5l0-0.7c-4.1-0.3-9-3.8-9-8.6c0-4.8,3.9-8.5,9.3-8.4c3.9,0,6.2,3,11.1,8.2L87.8,164
	C89.6,166.1,87.7,166.3,84.9,166.3z M70.1,138.4v-5.7h5.1c5.7,0,7.5,2.2,7.5,5.5c0,2.9-2.1,5.6-6.6,5.6
	C72.9,143.8,70.1,141.9,70.1,138.4z"/>
	<path class="svg-logo__plant" d="M53.4,78.3c0,0,1.6-0.6,2.2-0.7c0.6-0.2,1.8-0.6,2.9-0.8c1.1-0.2,1.8-0.2,1.8-0.2s-0.8-0.3-2.1-0.5
	c-0.9-0.1-2.4-0.3-4.2-0.4c-1.6-0.1-3.1-0.3-3.7-0.3c-0.7,0-4-0.2-6.1-0.2c-2.4-0.1-4.3,0-5.1,0c-1,0-3.7,0.2-4.6,0.3
	c-1,0.1-1.2,0.3-1.2,0.3s0.2,0.2,1.2,0.5c0.6,0.2,2.1,0.5,2.7,0.6c0.5,0.1,2.4,0.4,4.6,0.7c2.1,0.2,7.6,0.7,8.6,0.7
	C52.2,78.2,53.4,78.3,53.4,78.3z M62.2,78.5c0-0.1-0.1-0.1-0.1-0.2c0,0.1,0,0.1-0.1,0.2c-0.1,0.3-0.3,0.5-0.6,0.8l-0.5,9.7h2.5
	l-0.5-9.7C62.6,79,62.3,78.7,62.2,78.5z M47.4,42c0.9,2.6,1.7,5.2,2.6,7.8c0.7,2.1,1.4,4.2,2,6.2c1.9,3.2,3.5,6.1,4.9,8.7
	c0.2,0.3,0.3,0.6,0.5,0.9c0.2,0.3,0.3,0.6,0.5,0.9c0.7,1.2,1.3,2.4,1.8,3.5c0.1,0.3,0.3,0.6,0.4,0.8c0.1,0.3,0.3,0.6,0.4,0.9
	c0.2,0.4,0.4,0.8,0.5,1.2C61,72,60.7,71.1,60.4,70c-0.1-0.4-0.2-0.9-0.4-1.4c0-0.1,0-0.1-0.1-0.2c-0.1-0.5-0.3-0.9-0.4-1.4
	c-0.8-2.8-1.9-6-3-9.4c-0.2-0.6-0.4-1.1-0.6-1.7c-0.2-0.5-0.4-1.1-0.6-1.6c-0.6-1.8-1.3-3.7-1.9-5.6c-0.9-2.6-1.8-5.2-2.7-7.8
	c-0.1-0.2-6.9-17.9-9.1-23.1c-0.9-2.1-1.4-3-1.7-3.3c0,0.4,0.1,1.5,0.7,3.7C42.1,23.6,47.4,41.8,47.4,42z M42.9,48.4
	c1.2,2.2,2.5,4.4,3.7,6.6c0.9,1.6,1.8,3.2,2.6,4.7c2.1,2.3,3.9,4.5,5.6,6.4c0.2,0.2,0.4,0.5,0.6,0.7c0.2,0.3,0.4,0.5,0.6,0.7
	c0.7,0.8,1.3,1.6,1.9,2.3c0.2,0.2,0.3,0.4,0.5,0.6c0.2,0.2,0.3,0.4,0.5,0.6c0.4,0.6,0.8,1.1,1.2,1.6c0.1,0.2,0.3,0.4,0.4,0.6
	c0.1,0.1,0.2,0.2,0.2,0.4c-0.1-0.2-0.2-0.4-0.3-0.7c-0.1-0.3-0.3-0.7-0.5-1c-0.5-1-1-2-1.6-3.2c-0.2-0.3-0.4-0.7-0.5-1
	c-0.2-0.3-0.3-0.6-0.5-0.9c-1.2-2.3-2.7-4.9-4.2-7.5c-0.3-0.5-0.6-1-0.8-1.5c-0.3-0.5-0.5-0.9-0.8-1.4c-0.6-1-1.2-2.1-1.8-3.1
	c-1.2-2.1-2.5-4.3-3.8-6.5c-0.1-0.1-9.4-14.9-12.3-19.2c-1.2-1.7-1.8-2.4-2.1-2.7c0.1,0.4,0.4,1.3,1.2,3.1
	C34.9,32.7,42.8,48.2,42.9,48.4z M40.4,55.4c1.5,1.7,2.9,3.4,4.3,5.1c1.2,1.4,2.4,2.8,3.6,4.2c1.9,1.4,3.6,2.7,5.2,3.9
	c0.2,0.2,0.5,0.4,0.7,0.5c0.2,0.2,0.5,0.4,0.7,0.6c0.6,0.4,1.1,0.9,1.6,1.3c0.2,0.1,0.4,0.3,0.5,0.4c0.2,0.1,0.4,0.3,0.5,0.4
	c0.3,0.3,0.6,0.5,0.9,0.7c0.1,0.1,0.3,0.3,0.4,0.4c0.2,0.1,0.3,0.3,0.5,0.4c0.3,0.3,0.6,0.6,0.9,0.9c0,0,0,0,0.1,0.1
	c0,0,0-0.1-0.1-0.1c-0.3-0.5-0.7-1-1.1-1.5c-0.2-0.2-0.3-0.5-0.5-0.7c-0.2-0.2-0.3-0.4-0.5-0.6c-0.5-0.6-1-1.2-1.5-1.9
	c-0.2-0.3-0.4-0.5-0.7-0.8c-0.2-0.3-0.4-0.5-0.6-0.8c-1.4-1.7-3-3.5-4.6-5.4c-0.4-0.4-0.7-0.8-1.1-1.2c-0.3-0.4-0.7-0.8-1.1-1.2
	c-0.5-0.6-1-1.1-1.5-1.7c-1.5-1.6-2.9-3.3-4.4-5c-0.1-0.1-10.7-11.3-14-14.4c-1.2-1.2-1.9-1.7-2.2-1.9c0.2,0.4,0.6,1.1,1.6,2.5
	C30.7,43.2,40.3,55.3,40.4,55.4z M44.1,66.7c1.4,1,2.7,2.1,4,3.1c2.1,0.8,4,1.6,5.7,2.3c0.3,0.1,0.5,0.2,0.7,0.3
	c0.3,0.1,0.5,0.2,0.8,0.3c0.3,0.1,0.6,0.3,0.9,0.4c0.2,0.1,0.4,0.2,0.6,0.3c0.2,0.1,0.4,0.2,0.6,0.3c0.1,0,0.2,0.1,0.3,0.2
	c0.2,0.1,0.3,0.2,0.5,0.2c0.2,0.1,0.3,0.2,0.5,0.2c0.1,0.1,0.2,0.1,0.3,0.2c0.1,0.1,0.3,0.2,0.4,0.2c0.2,0.1,0.3,0.2,0.4,0.3
	c0.1,0.1,0.2,0.1,0.3,0.2c-0.1-0.1-0.2-0.2-0.4-0.4c-0.2-0.2-0.3-0.3-0.5-0.5c-0.2-0.1-0.3-0.3-0.5-0.4c-0.2-0.2-0.4-0.4-0.6-0.5
	c-0.2-0.2-0.4-0.3-0.6-0.5c-0.2-0.2-0.4-0.3-0.6-0.5c-0.4-0.3-0.8-0.6-1.2-0.9c-0.3-0.2-0.5-0.4-0.8-0.6c-0.2-0.2-0.5-0.4-0.8-0.6
	c-1.3-1-2.7-2.1-4.2-3.2c-0.4-0.3-0.8-0.6-1.2-0.9c-0.4-0.3-0.8-0.6-1.2-0.9c-0.5-0.4-1.1-0.8-1.6-1.2c-1.5-1.1-3.1-2.2-4.6-3.4
	c-0.1-0.1-11.1-7.4-14.4-9.4c-1.3-0.8-2-1.1-2.3-1.1c0.1,0.3,0.6,0.8,1.7,1.9c2.9,2.6,12.9,11.2,13,11.2
	C41.1,64.4,42.7,65.6,44.1,66.7z M45.7,72.6c1.8,0.7,3.5,1.5,5.2,2.1c1.1,0.1,2.1,0.1,3.1,0.2c0.2,0,0.5,0,0.7,0
	c0.2,0,0.5,0,0.7,0.1c0.5,0,1,0.1,1.5,0.1c0.2,0,0.4,0,0.6,0.1c0.1,0,0.3,0,0.4,0.1c0.1,0,0.1,0,0.2,0c0.1,0,0.2,0,0.3,0
	c0.1,0,0.2,0,0.3,0c0.1,0,0.1,0,0.2,0c0.1,0,0.2,0,0.3,0c0.1,0,0.3,0.1,0.4,0.1c0,0,0,0,0.1,0c0.1,0,0.3,0.1,0.4,0.1
	c0.1,0,0.1,0,0.2,0.1c-0.1,0-0.1-0.1-0.2-0.1c-0.1-0.1-0.3-0.2-0.5-0.3c0,0-0.1,0-0.1-0.1c-0.2-0.1-0.3-0.2-0.5-0.3
	c-0.2-0.1-0.3-0.2-0.5-0.3c-0.2-0.1-0.4-0.2-0.6-0.3c-0.2-0.1-0.4-0.2-0.6-0.3c-0.1-0.1-0.3-0.1-0.4-0.2c-0.3-0.1-0.5-0.2-0.8-0.4
	c-0.3-0.1-0.5-0.2-0.8-0.3c-1.5-0.6-3.1-1.3-4.8-2c-0.4-0.2-0.8-0.3-1.2-0.5c-0.4-0.1-0.8-0.3-1.2-0.4c-0.4-0.2-0.8-0.3-1.2-0.5
	c-1.4-0.5-2.9-1.1-4.3-1.7c-0.1,0-8.7-3.1-13.2-4.2c-0.9-0.2-1.5-0.3-1.8-0.3c0.2,0.2,0.7,0.5,1.6,1.1c3.5,2.1,12.5,6.1,12.6,6.2
	C42.9,71.4,44.3,72,45.7,72.6z M68.9,54.2c-0.2,0.6-0.4,1.1-0.6,1.6c-0.2,0.6-0.4,1.2-0.6,1.7c-1.2,3.4-2.2,6.6-3,9.4
	c-0.1,0.5-0.3,1-0.4,1.4c0,0.1,0,0.1-0.1,0.2c-0.1,0.5-0.3,1-0.4,1.4c-0.3,1.1-0.5,2-0.7,2.8c0.2-0.4,0.3-0.8,0.5-1.2
	c0.1-0.3,0.3-0.6,0.4-0.9c0.1-0.3,0.3-0.5,0.4-0.8c0.5-1.1,1.1-2.2,1.8-3.5c0.2-0.3,0.3-0.6,0.5-0.9c0.2-0.3,0.3-0.6,0.5-0.9
	c1.4-2.6,3.1-5.4,4.9-8.7c0.7-2,1.3-4.1,2-6.2c0.8-2.6,1.7-5.2,2.6-7.8c0-0.2,5.3-18.5,6.7-23.9c0.6-2.2,0.7-3.2,0.7-3.7
	c-0.3,0.4-0.8,1.2-1.7,3.3c-2.2,5.2-9,22.9-9.1,23.1c-0.9,2.6-1.8,5.2-2.7,7.8C70.2,50.5,69.6,52.3,68.9,54.2z M74.7,53.2
	c-0.6,1-1.2,2.1-1.8,3.1c-0.3,0.5-0.6,1-0.8,1.4c-0.3,0.5-0.6,1-0.8,1.5c-1.5,2.7-3,5.2-4.2,7.5c-0.2,0.3-0.3,0.6-0.5,0.9
	c-0.2,0.3-0.4,0.7-0.5,1c-0.6,1.1-1.1,2.2-1.6,3.2c-0.2,0.4-0.3,0.7-0.5,1c-0.1,0.2-0.2,0.5-0.3,0.7c0.1-0.1,0.2-0.2,0.2-0.4
	c0.1-0.2,0.3-0.4,0.4-0.6c0.4-0.5,0.8-1,1.2-1.6c0.2-0.2,0.3-0.4,0.5-0.6c0.1-0.2,0.3-0.4,0.5-0.6c0.6-0.7,1.2-1.5,1.9-2.3
	c0.2-0.2,0.4-0.5,0.6-0.7c0.2-0.2,0.4-0.5,0.6-0.7c1.6-1.9,3.5-4,5.6-6.4c0.9-1.5,1.7-3.1,2.6-4.7c1.2-2.2,2.4-4.4,3.7-6.6
	c0.1-0.1,8-15.7,10.2-20.3c0.9-1.9,1.1-2.7,1.2-3.1c-0.3,0.3-0.9,1-2.1,2.7c-2.9,4.3-12.2,19-12.3,19.2
	C77.2,48.9,75.9,51.1,74.7,53.2z M77.2,58.4c-0.5,0.6-1,1.1-1.5,1.7c-0.4,0.4-0.7,0.8-1.1,1.2c-0.4,0.4-0.7,0.8-1.1,1.2
	c-1.7,1.9-3.2,3.7-4.6,5.4c-0.2,0.3-0.4,0.5-0.6,0.8c-0.2,0.3-0.5,0.5-0.7,0.8c-0.6,0.7-1.1,1.3-1.5,1.9c-0.2,0.2-0.3,0.4-0.5,0.6
	c-0.2,0.2-0.4,0.5-0.5,0.7c-0.4,0.5-0.8,1-1.1,1.5c0,0,0,0.1-0.1,0.1c0,0,0,0,0.1-0.1c0.3-0.3,0.6-0.6,0.9-0.9
	c0.1-0.1,0.3-0.3,0.5-0.4c0.1-0.1,0.3-0.3,0.4-0.4c0.3-0.2,0.6-0.5,0.9-0.7c0.2-0.1,0.4-0.3,0.6-0.4c0.2-0.1,0.4-0.3,0.5-0.4
	c0.5-0.4,1.1-0.9,1.6-1.3c0.2-0.2,0.5-0.4,0.7-0.6c0.2-0.2,0.5-0.4,0.7-0.5c1.6-1.2,3.4-2.5,5.2-3.9c1.2-1.4,2.4-2.8,3.6-4.2
	c1.4-1.7,2.9-3.4,4.3-5.1c0.1-0.1,9.6-12.2,12.3-15.9c1-1.4,1.4-2.1,1.6-2.5c-0.3,0.2-1,0.7-2.2,1.9c-3.3,3.2-13.9,14.3-14,14.4
	C80.1,55,78.6,56.7,77.2,58.4z M97.1,51.3c-3.3,2-14.3,9.3-14.5,9.4c-1.5,1.1-3.1,2.3-4.6,3.4c-0.5,0.4-1.1,0.8-1.6,1.2
	c-0.4,0.3-0.8,0.6-1.2,0.9c-0.4,0.3-0.8,0.6-1.2,0.9c-1.5,1.1-2.9,2.1-4.2,3.2c-0.3,0.2-0.5,0.4-0.8,0.6c-0.3,0.2-0.5,0.4-0.8,0.6
	c-0.4,0.3-0.8,0.6-1.2,0.9c-0.2,0.2-0.4,0.3-0.6,0.5c-0.2,0.2-0.4,0.3-0.6,0.5c-0.2,0.2-0.4,0.4-0.6,0.5c-0.2,0.1-0.3,0.3-0.5,0.4
	c-0.2,0.2-0.4,0.3-0.5,0.5c-0.1,0.1-0.2,0.2-0.4,0.4c0.1-0.1,0.2-0.1,0.3-0.2c0.1-0.1,0.3-0.2,0.5-0.3c0.1-0.1,0.3-0.2,0.4-0.2
	c0.1-0.1,0.2-0.1,0.3-0.2c0.2-0.1,0.3-0.2,0.5-0.2c0.2-0.1,0.3-0.2,0.5-0.2c0.1,0,0.2-0.1,0.3-0.2c0.2-0.1,0.4-0.2,0.6-0.3
	c0.2-0.1,0.4-0.2,0.6-0.3c0.3-0.1,0.6-0.3,0.9-0.4c0.2-0.1,0.5-0.2,0.8-0.3c0.2-0.1,0.5-0.2,0.7-0.3c1.7-0.7,3.6-1.4,5.7-2.3
	c1.3-1,2.6-2,4-3.1c1.5-1.1,3-2.3,4.5-3.5c0.1-0.1,10.2-8.6,13-11.2c1.2-1.1,1.6-1.6,1.7-1.9C99.1,50.2,98.5,50.4,97.1,51.3z
	M82,68.2c-1.4,0.6-2.9,1.1-4.3,1.7c-0.4,0.2-0.8,0.3-1.2,0.5c-0.4,0.1-0.8,0.3-1.2,0.4c-0.4,0.2-0.8,0.3-1.2,0.5
	c-1.7,0.7-3.3,1.3-4.8,2c-0.3,0.1-0.5,0.2-0.8,0.3c-0.3,0.1-0.6,0.2-0.8,0.4c-0.1,0.1-0.3,0.1-0.4,0.2c-0.2,0.1-0.4,0.2-0.6,0.3
	c-0.2,0.1-0.4,0.2-0.6,0.3c-0.2,0.1-0.4,0.2-0.5,0.3c-0.2,0.1-0.4,0.2-0.5,0.3c0,0-0.1,0-0.1,0.1c-0.2,0.1-0.3,0.2-0.5,0.3
	c-0.1,0.1-0.2,0.1-0.3,0.2c0.1,0,0.2-0.1,0.3-0.1c0.1,0,0.3-0.1,0.4-0.1c0,0,0,0,0.1,0c0.1,0,0.3-0.1,0.4-0.1c0.1,0,0.2,0,0.3,0
	c0.1,0,0.1,0,0.2,0c0.1,0,0.2,0,0.3,0c0.1,0,0.2,0,0.3,0c0.1,0,0.1,0,0.2,0c0.1,0,0.3,0,0.4-0.1c0.2,0,0.4,0,0.6-0.1
	c0.5-0.1,1-0.1,1.5-0.1c0.2,0,0.5,0,0.7-0.1c0.2,0,0.4,0,0.7,0c0.9-0.1,2-0.1,3.1-0.2c1.7-0.7,3.4-1.4,5.2-2.1
	c1.4-0.6,2.8-1.2,4.3-1.8c0.1,0,9.1-4,12.6-6.1c0.9-0.5,1.3-0.9,1.6-1c-0.3,0-0.8,0.1-1.8,0.3C90.7,65.1,82.1,68.2,82,68.2z
	M39.8,84.9c3.6-2,8.2-3.9,8.3-3.9c0.9-0.3,1.9-0.7,2.8-1c0.8-0.3,1.7-0.6,2.5-0.9c0.3-0.1,0.6-0.2,0.8-0.3c0.3-0.1,0.6-0.2,0.9-0.3
	c0.7-0.2,1.4-0.5,2.1-0.6c0.2-0.1,0.4-0.1,0.6-0.2c0.1,0,0.2-0.1,0.3-0.1c0.1,0,0.2,0,0.3-0.1c1.9-0.4,2.7-0.3,3,0.2
	c0.3,0.4-0.3,0.9-0.3,0.9c-1.2,1.2-5.2,2.5-9.4,3.9c-0.9,0.3-1.9,0.6-2.9,1c0,0-3.5,1.2-8.9,2.1c-0.7,0.1-1.1,0.1-1.3,0.1
	C38.9,85.4,39.1,85.2,39.8,84.9z M84.5,84.9c-3.6-2-8.2-3.9-8.3-3.9c-0.9-0.3-1.9-0.7-2.8-1c-0.8-0.3-1.7-0.6-2.5-0.9
	c-0.3-0.1-0.6-0.2-0.8-0.3c-0.3-0.1-0.6-0.2-0.9-0.3c-0.7-0.2-1.4-0.5-2.1-0.6c-0.2-0.1-0.4-0.1-0.6-0.2c-0.1,0-0.2-0.1-0.3-0.1
	c-0.1,0-0.2,0-0.3-0.1c-1.9-0.4-2.7-0.3-3,0.2c-0.3,0.4,0.3,0.9,0.3,0.9c1.2,1.2,5.2,2.5,9.4,3.9c0.9,0.3,1.9,0.6,2.9,1
	c0,0,3.5,1.2,8.9,2.1c0.7,0.1,1.1,0.1,1.3,0.1C85.4,85.4,85.2,85.2,84.5,84.9z M64.2,42.3c0-3.1-0.1-6.3-0.1-9.4
	c0-0.2-0.9-22.1-1.4-28.5c-0.2-2.8-0.5-3.9-0.6-4.4c-0.1,0.4-0.4,1.6-0.6,4.3c-0.5,6.4-1.4,28.3-1.4,28.5c0,3.2,0,6.3-0.1,9.4
	c0,3.3-0.1,6.5-0.1,9.6c0.5,3.3,2.1,16.3,2.1,16.3s1.6-12.9,2.1-16.3C64.3,48.8,64.2,45.5,64.2,42.3z M71,78.3c0,0-1.6-0.6-2.2-0.7
	c-0.6-0.2-1.8-0.6-2.9-0.8c-1.1-0.2-1.8-0.2-1.8-0.2s0.8-0.3,2.1-0.5c0.9-0.1,2.4-0.3,4.2-0.4c1.6-0.1,3.1-0.3,3.7-0.3
	c0.7,0,4-0.2,6.1-0.2c2.4-0.1,4.3,0,5.1,0c1,0,3.7,0.2,4.6,0.3c1,0.1,1.2,0.3,1.2,0.3S91,75.9,90,76.1c-0.6,0.2-2.1,0.5-2.7,0.6
	c-0.5,0.1-2.4,0.4-4.6,0.7c-2.1,0.2-7.6,0.7-8.6,0.7C72.1,78.2,71,78.3,71,78.3z M62.5,72.6c0,0,0.1-2.1,0.3-4.2
	c0.1-0.8,0.1-1.7,0.2-2.6c0.2-1.5,0.4-3.1,0.5-4.4c0.3-2.4,1.7-12.1,3-20.1c0.3-2,0.6-4.2,0.9-6.1c0.8-4.3,1.9-10.1,2-10.7
	c0.3-1.6,1.9-9.9,2.2-11.5c0.1-0.7,0.4-2,0.7-3.2c0.1-0.6,0.2-1.1,0.4-1.6C72.9,7.4,73,6.9,73,6.8c0.1-0.4,0.4-1.1,0.4-1.1
	s0,0.3,0,1.1c0,0.8-0.1,2.4-0.3,4.6c-0.3,3.1-0.6,6.6-0.7,8c-0.2,2.5-0.8,9.3-1.6,15.9c-0.8,7.1-1.9,13.8-2,14.4
	c-0.2,1.2-0.6,4.3-0.6,4.3s-2.1,6.3-2.9,8.6C64.5,65.3,62.5,72.6,62.5,72.6z M61.8,72.6c0,0-0.1-2.1-0.3-4.2
	c-0.1-0.8-0.1-1.7-0.2-2.6c-0.2-1.5-0.4-3.1-0.5-4.4c-0.3-2.4-1.7-12.1-3-20.1c-0.3-2-0.6-4.2-0.9-6.1c-0.8-4.3-1.9-10.1-2-10.7
	c-0.3-1.6-1.9-9.9-2.2-11.5c-0.1-0.7-0.4-2-0.7-3.2c-0.1-0.6-0.2-1.1-0.4-1.6c-0.2-0.8-0.3-1.3-0.4-1.4c-0.1-0.4-0.4-1.1-0.4-1.1
	s0,0.3,0,1.1c0,0.8,0.1,2.4,0.3,4.6c0.3,3.1,0.6,6.6,0.7,8c0.2,2.5,0.8,9.3,1.6,15.9c0.8,7.1,1.9,13.8,2,14.4
	c0.2,1.2,0.6,4.3,0.6,4.3s2.1,6.3,2.9,8.6C59.8,65.3,61.8,72.6,61.8,72.6z"/>
</svg>
