<svg class="svg-logo-title" xmlns="http://www.w3.org/2000/svg" xmlns:xlink="http://www.w3.org/1999/xlink"
	 x="0px" y="0px"
	 width="120px" height="73.1px" viewBox="0 0 120 73.1" enable-background="new 0 0 120 73.1" xml:space="preserve">
	<path d="M80.6,25.3l-1.4,4.8l-0.4,1.4H56.6v-0.8c1.8,0,3.6-0.5,3.6-3.2V3.9c0-2.6-1.9-3.1-3.6-3.1V0h11v0.8c-1.8,0-3.6,0.5-3.6,3.1
	v25.5h11.1c2.8,0,4-2.3,4.5-4.3L80.6,25.3z M28.5,7.7c0,4.4-3.6,8.3-9.6,8.3c-4.6,0-6.6-2.7-6.8-3.9v15.4c0,2.6,1.8,3.2,3.6,3.2v0.8
	h-11v-0.8c1.8,0,3.6-0.5,3.6-3.2V3.9c0-2.6-1.9-3.1-3.6-3.1V0h13.7C24.7,0,28.5,3,28.5,7.7z M24.6,8c0-3.4-1.9-5.9-7.5-5.9H12v6.4
	c0,2.9,1.5,5.8,6,5.8C22.9,14.2,24.6,10.8,24.6,8z M56.6,30.6v0.8H44.3v-0.8c2.5,0,4.7-0.5,3.9-3l-1.9-5.9H33.8l-1.9,5.9
	c-0.8,2.5,1.3,3,3.8,3v0.8H24.4v-0.8c1.8,0,4.1-0.5,4.9-3L37,3.8c0.8-2.5-1.9-3-4.8-3V0H43l8.8,27.7C52.6,30.1,54.9,30.6,56.6,30.6z
	 M45.6,19.7L40,2.2l-5.6,17.4L45.6,19.7L45.6,19.7z M119.6,30.6v0.8H108v-0.8c2.1,0,4.2-0.5,3.7-3.1L108,2.8l-9.2,28.7H95L85.6,2.9
	l-3.9,24.7c-0.4,2.6-1.8,4-1.8,4h-5v-0.8c1.8,0,3.9-0.5,4.3-3.1l3.6-23.6c0.4-2.6-1.2-3.1-3-3.1V0h8.5l9.3,28.5
	c0.1-1.4,0.3-3.2,1-5.1L106.5,0h8.2v0.8c-1.8,0-3.4,0.5-3,3.1l3.7,23.6C115.8,30.1,117.9,30.6,119.6,30.6z M59.5,67.2V68H47.2v-0.8
	c2.5,0,4.7-0.5,3.9-3l-1.9-5.9H36.7l-1.9,5.9c-0.8,2.5,1.3,3,3.8,3V68H27.3v-0.8c1.8,0,4.1-0.5,4.9-3l7.6-23.9c0.8-2.5-1.9-3-4.8-3
	v-0.8h10.9l8.8,27.7C55.5,66.7,57.8,67.2,59.5,67.2z M48.5,56.2l-5.6-17.4l-5.6,17.4H48.5z M32.3,37.4c-1.8,0-4.3,0.3-5.7,2.6
	l-9.1,15.2V64c0,2.6,1.9,3.2,3.8,3.2V68H10v-0.8c1.9,0,3.9-0.5,3.9-3.2v-8.7L5.6,40c-1.2-2.3-3.7-2.7-5.6-2.7v-0.8h7.6l8.6,16.2
	L23.7,40c1.4-2.3-0.7-2.7-3.5-2.7v-0.8h12L32.3,37.4L32.3,37.4z M120,52.3c0,10.5-6.5,15.8-16.6,15.8H90v-0.8c1.8,0,3.6-0.5,3.6-3.2
	V40.6c0-2.6-1.9-3.1-3.6-3.1v-0.8h13.3C113.5,36.6,120,41.8,120,52.3z M116.1,52.3c0-9.2-5.3-13.6-13.7-13.6h-5.1V66h5.1
	C110.8,66,116.1,61.5,116.1,52.3z M70.1,64v-5.7c-0.1-2.8-0.3-5.4-1.6-7.8c-0.6-1.2-1.4-2.2-2.1-2.8V64c0,2.6-1.9,3.2-3.6,3.2V68h11
	v-0.8C71.9,67.2,70.1,66.7,70.1,64z M84.9,72.3v0.8h10.2l-0.5-0.6L81.2,56.8c-2.2-2.5-4.8-4.4-7-5.7l0.1-0.1c1,0.3,1.8,0.4,2.8,0.4
	c5.9,0,9.5-3,9.5-7.4c0-4.7-3.8-7.4-10.1-7.4H62.8v0.8c1.8,0,3.6,0.5,3.6,3.1v1.9c-1.8-0.8-3.9-1.1-5.7-1.2c-6.9,0-11.5,4.7-11.2,10
	s5.2,9.5,10.9,9.5V60c-4.1-0.3-9-3.8-9-8.6s3.9-8.5,9.3-8.4c3.9,0,6.2,3,11.1,8.2l16,18.8C89.6,72.1,87.7,72.3,84.9,72.3z
	 M70.1,44.4v-5.7h5.1c5.7,0,7.5,2.2,7.5,5.5c0,2.9-2.1,5.6-6.6,5.6C72.9,49.8,70.1,47.9,70.1,44.4z"/>
</svg>
