<svg xmlns="http://www.w3.org/2000/svg" xmlns:xlink="http://www.w3.org/1999/xlink"
	 x="0px" y="0px"
	 width="14px" height="17.7px" viewBox="0 0 14 17.7" enable-background="new 0 0 14 17.7" xml:space="preserve">
	<path d="M7,10.2c-1.8,0-3.2-1.5-3.2-3.2S5.2,3.7,7,3.7s3.2,1.5,3.2,3.2S8.8,10.2,7,10.2z M7,5.2C6,5.2,5.2,6,5.2,7S6,8.7,7,8.7
	S8.8,8,8.8,7S8,5.2,7,5.2z M7,17.7c-0.2,0-0.3,0-0.4-0.1C6.3,17.4,0,12.9,0,7C0,5.1,0.7,3.4,2.1,2C3.4,0.7,5.1,0,7,0
	s3.6,0.7,4.9,2.1C13.3,3.4,14,5.1,14,7c0,5.9-6.3,10.4-6.6,10.6C7.3,17.7,7.2,17.7,7,17.7z M7,1.5c-1.5,0-2.9,0.6-3.9,1.6
	c-1,1-1.6,2.4-1.6,3.9c0,4.3,4.1,8,5.5,9.1c1.4-1.1,5.5-4.7,5.5-9.1c0-1.5-0.6-2.9-1.6-3.9S8.5,1.5,7,1.5z"/>
</svg>
