<?xml version="1.0" encoding="utf-8"?>
<!-- Generator: Adobe Illustrator 25.2.0, SVG Export Plug-In . SVG Version: 6.00 Build 0)  -->
<svg version="1.1" id="Шар_1" xmlns="http://www.w3.org/2000/svg" xmlns:xlink="http://www.w3.org/1999/xlink" x="0px" y="0px"
	 width="489px" height="97px" viewBox="0 0 489 97" style="enable-background:new 0 0 489 97;" xml:space="preserve">
<g>
	<path d="M78.3,92.2c-5.2,0-9.6-1.5-13.4-5.5c-3.8-4-6.9-10.5-9.4-20.6l0,0c0,0,0,0,0,0c0,0,0,0,0,0l0,0
		c-2.5-10.6-7.4-16.9-13.7-20.8c4.2-0.7,8.2-2.1,11.4-4.8c4-3.3,6.5-8.6,6.5-16.5c0-5.2-1.1-9.2-3.1-12.4C54.7,8.5,52,6.3,49,4.7
		c-6-3.1-13.4-3.5-19.1-3.5H1H0v1v1.4v1h1c3,0,4.2,0.6,5,1.8C6.3,7.1,6.6,8,6.8,9.3C6.9,10.6,7,12.2,7,14.1v68.6
		c0,2-0.1,3.5-0.2,4.8c-0.2,1.3-0.4,2.2-0.8,2.9c-0.7,1.2-2,1.8-5,1.8H0v1v1.4v1h1h19.6h1v-1v-1.4v-1h-1c-3,0-4.2-0.6-5-1.8
		c-0.4-0.7-0.7-1.6-0.8-2.9c-0.2-1.3-0.2-2.9-0.2-4.8V46.2h0.8c9.6,0,16.5,1,21.8,4.5c5.2,3.4,8.9,9.4,11.5,19.8h0
		c2.8,10.9,6.8,17.3,11.9,20.8c5.1,3.6,11.2,4.3,17.6,4.3h1v-1v-1.4v-1H78.3z M50.7,70L50.7,70l-0.3,0.1L50,70.2L50.7,70
		C48,59.4,44.1,52.9,38.3,49c-5.8-3.8-13.3-4.8-22.9-4.8h-1.8h-1v1v37.5c0,2,0.1,3.7,0.2,5.1c0.2,1.4,0.5,2.6,1.1,3.6
		c0.6,1.1,1.5,1.8,2.6,2.2H5c1.1-0.4,2-1.1,2.6-2.2c0.6-1,0.9-2.2,1.1-3.6C8.9,86.4,9,84.7,9,82.7V14.1c0-2-0.1-3.7-0.2-5.1
		C8.6,7.6,8.3,6.4,7.7,5.4C7,4.4,6.2,3.7,5,3.2h24.8c5.7,0,12.7,0.5,18.2,3.3c2.8,1.4,5.2,3.4,6.9,6.2c1.7,2.8,2.8,6.5,2.8,11.3
		c0,7.5-2.3,12.1-5.8,14.9c-3.5,2.9-8.3,4.2-13.4,4.8l-3.5,0.4l3.2,1.5c7,3.4,12.5,9.4,15.3,20.9l1-0.2l0,0l-1,0.2l0,0
		c2.5,10.3,5.8,17.2,9.9,21.6c2.4,2.5,5,4.1,7.9,5.1c-3.5-0.5-6.7-1.5-9.5-3.5C57.3,86.5,53.4,80.7,50.7,70z"/>
	<path d="M54.1,24.1c0-5.8-1.5-10.5-5.1-13.8c-3.5-3.2-9-4.9-16.4-4.9h-19h-1v1V41v1h1h19c7.4,0,12.8-1.4,16.3-4.5
		C52.6,34.4,54.1,29.8,54.1,24.1z M47.7,36c-3,2.6-7.8,4-15,4h-18V7.4h18c7.2,0,12,1.6,15,4.4c3,2.8,4.4,6.9,4.4,12.3
		C52.1,29.5,50.7,33.4,47.7,36z"/>
</g>
<g>
	<path d="M147.8,13.7C140.5,5,129.9-0.2,116.7-0.2c-13.2,0-23.8,5.2-31.1,13.9c-7.3,8.7-11.2,20.8-11.2,34.7s3.9,26,11.2,34.7
		c7.3,8.7,17.9,13.9,31.1,13.9c13.2,0,23.8-5.2,31.1-13.9c7.3-8.7,11.2-20.8,11.2-34.7S155.1,22.4,147.8,13.7z M146.3,81.8
		c-6.9,8.3-16.9,13.2-29.6,13.2c-12.7,0-22.7-5-29.6-13.2c-6.9-8.3-10.7-19.9-10.7-33.4c0-13.5,3.8-25.1,10.7-33.4
		C94,6.8,104,1.8,116.7,1.8c12.7,0,22.7,5,29.6,13.2c6.9,8.3,10.7,19.9,10.7,33.4C157,61.9,153.2,73.5,146.3,81.8z"/>
	<path d="M141.1,14.8c-6.9-7.4-16.4-11.4-27.6-10.6l0,0l0,0.7l0,0.3l-0.1-1c-11.1,0.8-19.9,6-25.8,14.3C82,26.8,79.2,38.1,80.1,51h0
		c0.9,12.8,5.2,23.6,12.1,31.1c6.9,7.4,16.5,11.4,27.6,10.6l-0.1-1l0,0.3l0,0.7h0c11.1-0.8,20-6,25.8-14.3
		c5.8-8.3,8.6-19.6,7.6-32.5l0,0C152.3,33,148,22.2,141.1,14.8z M144,77.2c-5.5,7.8-13.8,12.7-24.3,13.5v0c-10.5,0.7-19.5-3-26-10
		c-6.5-7-10.7-17.3-11.5-29.8v0l-1,0.1l0,0l1-0.1c-0.9-12.6,1.8-23.4,7.3-31.2c5.5-7.8,13.8-12.7,24.3-13.5v0c10.5-0.7,19.5,3,26,10
		c6.5,7,10.7,17.3,11.6,29.8l1-0.1l0,0l-1,0.1v0C152.2,58.5,149.5,69.4,144,77.2z"/>
</g>
<g>
	<path d="M241.6,13.7C234.3,5,223.7-0.2,210.5-0.2c-13.2,0-23.8,5.2-31.1,13.9c-7.3,8.7-11.2,20.8-11.2,34.7s3.9,26,11.2,34.7
		c7.3,8.7,17.9,13.9,31.1,13.9c13.2,0,23.8-5.2,31.1-13.9c7.3-8.7,11.2-20.8,11.2-34.7S248.9,22.4,241.6,13.7z M240.1,81.8
		c-6.9,8.3-16.9,13.2-29.6,13.2c-12.7,0-22.7-5-29.6-13.2c-6.9-8.3-10.7-19.9-10.7-33.4c0-13.5,3.8-25.1,10.7-33.4
		c6.9-8.3,16.9-13.2,29.6-13.2c12.7,0,22.7,5,29.6,13.2c6.9,8.3,10.7,19.9,10.7,33.4C250.8,61.9,247,73.5,240.1,81.8z"/>
	<path d="M247,45.8c-0.9-12.8-5.2-23.6-12.1-31.1C228,7.3,218.5,3.4,207.3,4.2l0,0l0,0.6l0,0.3l-0.1-1c-11.1,0.8-19.9,6-25.8,14.3
		c-5.8,8.3-8.6,19.6-7.7,32.5h0c0.9,12.8,5.2,23.6,12.1,31.1c6.9,7.4,16.5,11.4,27.6,10.6l-0.1-1l0,0.3l0,0.7h0
		c11.1-0.8,20-6,25.8-14.3C245.3,70,248,58.7,247,45.8L247,45.8C247,45.8,247,45.8,247,45.8C247,45.8,247,45.8,247,45.8L247,45.8z
		 M237.8,77.2c-5.5,7.8-13.8,12.7-24.3,13.5v0c-10.5,0.7-19.5-3-26-10c-6.5-7-10.7-17.3-11.5-29.8v0l-1,0.1l0,0l1-0.1
		c-0.9-12.6,1.8-23.4,7.3-31.2c5.5-7.8,13.8-12.7,24.3-13.5v0c10.5-0.7,19.5,3,26,10c6.5,7,10.7,17.3,11.6,29.8l0,0l1-0.1l0,0
		l-1,0.1C246,58.5,243.3,69.4,237.8,77.2z"/>
</g>
<path d="M372.4,1.2H364h0l0,0c-1.7,0.1-3,0.2-4.2,1.4c-0.5,0.5-1,1.2-1.5,2c-0.5,0.9-1.1,1.9-1.8,3.3l-41,79.9L274.7,7.9l0,0l0,0
	l-0.9,0.5l0,0l0.9-0.5c-0.7-1.4-1.3-2.4-1.8-3.3c-0.5-0.8-1-1.5-1.5-2c-1.2-1.1-2.4-1.3-4.2-1.4l0,0h0h-8.4h-1v1v1.4v1h1
	c3,0,4.2,0.6,5,1.8c0.4,0.7,0.7,1.6,0.8,2.9c0.2,1.3,0.2,2.9,0.2,4.8v68.6c0,2-0.1,3.5-0.2,4.8c-0.2,1.3-0.4,2.2-0.8,2.9
	c-0.7,1.2-2,1.8-5,1.8h-1v1v1.4v1h1h18.2h1v-1v-1.4v-1h-1c-3,0-4.2-0.6-5-1.8c-0.4-0.7-0.7-1.6-0.8-2.9c-0.2-1.3-0.2-2.9-0.2-4.8
	V17.2l39.8,77.9l0.3,0.5h0.6h6.3h0.6l0.3-0.5l40-77.9v65.6c0,2-0.1,3.5-0.2,4.8c-0.2,1.3-0.4,2.2-0.8,2.9c-0.7,1.2-2,1.8-5,1.8h-1v1
	v1.4v1h1h19.6h1v-1v-1.4v-1h-1c-3,0-4.2-0.6-5-1.8c-0.4-0.7-0.7-1.6-0.8-2.9c-0.2-1.3-0.2-2.9-0.2-4.8V14.1c0-2,0.1-3.5,0.2-4.8
	c0.2-1.3,0.4-2.2,0.8-2.9c0.7-1.2,2-1.8,5-1.8h1v-1V2.2v-1H372.4z M365.7,5.4c-0.6,1-0.9,2.2-1.1,3.6c-0.2,1.4-0.2,3.1-0.2,5.1v68.6
	c0,2,0.1,3.7,0.2,5.1c0.2,1.4,0.5,2.6,1.1,3.6c0.6,1.1,1.5,1.8,2.6,2.2h-11.5c1.1-0.4,2-1.1,2.6-2.2c0.6-1,0.9-2.2,1.1-3.6
	c0.2-1.4,0.2-3.1,0.2-5.1V13l-1.9-0.5l0.9,0.5l0,0l-0.9-0.5l-41.6,81.1h-5.1l-41.4-81.1l-1.9,0.5v69.7c0,2,0.1,3.7,0.2,5.1
	c0.2,1.4,0.5,2.6,1.1,3.6c0.6,1.1,1.5,1.8,2.6,2.2h-10.1c1.1-0.4,2-1.1,2.6-2.2c0.6-1,0.9-2.2,1.1-3.6c0.2-1.4,0.2-3.1,0.2-5.1V14.1
	c0-2-0.1-3.7-0.2-5.1c-0.2-1.4-0.5-2.6-1.1-3.6c-0.6-1.1-1.5-1.8-2.6-2.2h4.3c1.7,0.1,2.3,0.2,2.9,0.8c0.3,0.3,0.7,0.8,1.2,1.6
	c0.5,0.8,1,1.8,1.8,3.2l41.7,81.6l0.9-0.5l0,0l-0.9,0.5l0.9,1.7l0.9-1.7l41.9-81.6c0.7-1.4,1.2-2.4,1.7-3.2c0.5-0.8,0.8-1.3,1.2-1.6
	c0.6-0.6,1.2-0.7,2.8-0.8h4.3C367.2,3.7,366.4,4.4,365.7,5.4z"/>
<g>
	<polygon points="436.7,30.7 436.4,31.5 437.2,32 437.6,31.1 	"/>
	<path d="M446.7,61.4c-1.6-3.1-3.9-5.5-6.8-7.6c-5.8-4.2-14-7-23.7-10.8l-0.4,0.9l0,0l0.4-0.9l0,0c-5.1-1.9-11.4-3.9-16.6-7
		c-5.1-3.1-8.8-7.3-8.8-13.6c0-5.4,2.5-9.5,6.8-12.2c4.3-2.7,10.3-4.2,17.2-4.2c8.3,0,15.4,2.4,19.6,6.6c4.1,4.1,5.6,10.2,2.4,18.1
		l0.9,0.4l-0.4,0.9l5.6,2.8l1.1,0.5l0.3-1.1l-1-0.3l0,0l1,0.3c3.7-12.1,1.1-20.7-5-26.4c-6-5.6-15.2-8-24.3-8
		c-8.8,0-16.7,1.8-22.4,5.6c-5.8,3.8-9.3,9.5-9.3,17.1c0,4.2,1,7.7,2.8,10.6c1.8,2.9,4.3,5.3,7.4,7.3c6,4,14.1,6.8,22.1,10.1
		c3.6,1.5,7.1,2.8,10.3,4c3.2,1.3,6,2.5,8.3,4c2.3,1.5,4.2,3.2,5.5,5.5c1.3,2.2,2,5,2,8.7c0,6.4-2.4,10.9-6.5,13.8
		c-4.2,2.9-10.2,4.4-17.5,4.4c-8.9,0-17.8-2-23.7-6.8c-2.9-2.4-5-5.4-6-9.2c-1-3.8-0.8-8.5,0.9-14.2l0.3-0.8l-0.8-0.4l-5.6-2.8
		l-1.1-0.6l-0.3,1.2c-3.7,15.5,0,25.5,7.6,31.7c7.4,6,18.3,8.1,28.4,8.1c8.6,0,16.5-1.7,22.4-5.6c5.9-4,9.6-10.1,9.6-18.8
		C449.1,68.2,448.3,64.5,446.7,61.4z M438.5,89.7c-5.4,3.6-12.9,5.3-21.3,5.3c-10,0-20.3-2-27.2-7.6c-6.6-5.4-10.2-14.2-7.1-28.4
		l3.7,1.9c-1.6,5.6-1.8,10.4-0.7,14.5c1.1,4.3,3.5,7.7,6.7,10.3c6.3,5.2,15.9,7.2,24.9,7.2c7.5,0,14-1.5,18.7-4.7
		c4.7-3.3,7.4-8.4,7.4-15.4c0-4-0.8-7.1-2.3-9.7c-1.5-2.6-3.6-4.5-6.1-6.2c-2.5-1.6-5.5-2.9-8.7-4.2c-3.2-1.3-6.6-2.5-10.2-4
		l-0.4,0.9l0,0l0.4-0.9l0,0c-8.2-3.4-16-6.1-21.7-9.9c-2.9-1.9-5.2-4-6.8-6.6c-1.6-2.6-2.5-5.7-2.5-9.5c0-6.9,3.1-12,8.4-15.5
		c5.3-3.5,12.7-5.2,21.3-5.2c8.8,0,17.5,2.3,23,7.4c5.3,4.8,7.8,12.3,4.8,23.2l-3.7-1.9c3-8.1,1.4-14.7-3.2-19.4
		C431,6.5,423.3,4,414.7,4c-7.1,0-13.6,1.5-18.3,4.5c-4.7,3.1-7.7,7.7-7.7,13.9c0,7.3,4.4,12,9.8,15.3c5.4,3.3,12,5.3,16.9,7.2
		c9.9,3.8,17.8,6.6,23.3,10.6c2.7,2,4.8,4.2,6.2,6.9c1.4,2.7,2.2,6.1,2.2,10.3C447.1,80.6,443.8,86.2,438.5,89.7z"/>
</g>
</svg>
