<?xml version="1.0" encoding="utf-8"?>
<!-- Generator: Adobe Illustrator 25.2.0, SVG Export Plug-In . SVG Version: 6.00 Build 0)  -->
<svg version="1.1" id="Шар_1" xmlns="http://www.w3.org/2000/svg" xmlns:xlink="http://www.w3.org/1999/xlink" x="0px" y="0px"
	 width="489px" height="97px" viewBox="0 0 489 97" style="enable-background:new 0 0 489 97;" xml:space="preserve">
<style type="text/css">
	.st0{fill:#28281F;}
</style>
<path class="st0" d="M53.5,66.4c-2.8-11.8-8.5-18.1-15.8-21.6c10.4-1.1,20-5.3,20-20.7c0-20-17.5-21.8-28.8-21.8H0v1.4
	c6.2,0,7,2.7,7,10.5v68.6c0,7.8-0.8,10.5-7,10.5v1.4h19.6v-1.4c-6.2,0-7-2.7-7-10.5V45.3h1.8c19.2,0,29,4.1,34.3,25.1
	c5.5,21.6,15.8,24.4,28.6,24.4v-1.4C66.4,93.3,58.5,86.9,53.5,66.4z M12.6,41.1V6.5h19c14.6,0,20.4,6.4,20.4,17.6
	s-5.9,16.9-20.4,16.9H12.6z"/>
<path class="st0" d="M115.7,0.9c-25.9,0-41.3,20.3-41.3,47.6s15.4,47.6,41.3,47.6c25.9,0,41.3-20.3,41.3-47.6S141.6,0.9,115.7,0.9z
	 M118.8,91.8c-21.7,1.5-37-15.4-38.6-40.7C78.3,25.5,91,6.8,112.6,5.2c21.7-1.5,36.8,15.4,38.6,40.7
	C153.2,71.5,140.3,90.2,118.8,91.8z"/>
<path class="st0" d="M209.5,0.9c-25.9,0-41.3,20.3-41.3,47.6s15.4,47.6,41.3,47.6c25.9,0,41.3-20.3,41.3-47.6S235.4,0.9,209.5,0.9z
	 M212.5,91.8c-21.7,1.5-37-15.4-38.6-40.7c-1.8-25.5,10.9-44.2,32.5-45.8C228.1,3.7,243.2,20.6,245,46
	C247,71.5,234.1,90.2,212.5,91.8z"/>
<path class="st0" d="M371.4,3.7V2.3H363c-3.4,0.1-3.8,0.7-6.6,6.2l-41.9,81.6L272.8,8.5c-2.9-5.5-3.2-6-6.7-6.2h-8.4v1.4
	c6.2,0,7,2.7,7,10.5v68.6c0,7.8-0.8,10.5-7,10.5v1.4h18.2v-1.4c-6.2,0-7-2.7-7-10.5V13.1l41.7,81.6h6.3l41.9-81.6v69.7
	c0,7.8-0.8,10.5-7,10.5v1.4h19.6v-1.4c-6.2,0-7-2.7-7-10.5V14.2C364.4,6.4,365.2,3.7,371.4,3.7z"/>
<path class="st0" d="M383.2,22.6c0,16.1,15.4,20.3,31.6,27c14.4,6,26.7,7.8,26.7,23.1c0,13.4-10.2,19.2-25.1,19.2
	c-17.9,0-37-8.1-29.7-31.5l-5.6-2.8c-7.3,30.4,14.8,38.5,35,38.5c16.9,0,30.9-6.7,30.9-23.4c0-17.4-12.7-21.1-32.3-28.7
	c-9.9-3.8-26-8-26-21.6c0-11.6,10.9-17.4,24.9-17.4c16.9,0,29.5,9.7,23,26l5.6,2.8c7.3-23.5-10.5-33-28.4-33
	C396.5,0.9,383.2,8,383.2,22.6z"/>
</svg>
