<?xml version="1.0" encoding="utf-8"?>
<!-- Generator: Adobe Illustrator 25.2.0, SVG Export Plug-In . SVG Version: 6.00 Build 0)  -->
<svg version="1.1" id="Шар_1" xmlns="http://www.w3.org/2000/svg" xmlns:xlink="http://www.w3.org/1999/xlink" x="0px" y="0px"
	 width="279px" height="18px" viewBox="0 0 279 18" enable-background="new 0 0 279 18" xml:space="preserve">
<path fill-rule="evenodd" clip-rule="evenodd" d="M76.6,16.4c-0.3-0.9-0.6-1.7-1-2.5l0,0c1.6-1.4,2.5-3.5,2.5-6
	c0-4.6-3.3-7.9-7.8-7.9c-4.5,0-7.8,3.2-7.8,7.9c0,4.6,3.4,7.9,7.8,7.9c1.4,0,2.7-0.3,3.8-0.9c0.3,0.6,0.6,1.3,0.8,2L76.6,16.4z
	 M70.2,10.3c-1.9,0-3.3,0.8-4.3,2c-1-1-1.6-2.6-1.6-4.3c0-3.7,2.5-6.1,5.9-6.1s5.9,2.4,5.9,6.1c0,1.9-0.6,3.4-1.7,4.5
	C73.4,11,72,10.3,70.2,10.3z M73.1,13.4c-0.8,0.4-1.8,0.7-2.9,0.7v0c-1.2,0-2.2-0.3-3.1-0.8c1-1,1.9-1.3,3.1-1.3
	C71.4,11.9,72.4,12.5,73.1,13.4z M20.6,0c-4.5,0-7.8,3.2-7.8,7.9c0,4.6,3.3,7.9,7.8,7.9s7.8-3.2,7.8-7.9C28.4,3.3,25.1,0,20.6,0z
	 M20.6,1.8c3.4,0,5.9,2.4,5.9,6.1c0,3.7-2.5,6.1-5.9,6.1c-3.4,0-5.9-2.4-5.9-6.1C14.7,4.2,17.2,1.8,20.6,1.8z M0,0.3v15.3h5.7
	c3.3,0,5.4-1.7,5.4-4.2c0-2.1-1.1-3.4-3-3.7c1.7-0.8,2.3-1.8,2.3-3.5c0-2.4-1.9-3.9-4.9-3.9H0z M5.4,6.9H1.9v-5h3.5
	c2,0,3.1,0.9,3.1,2.5S7.4,6.9,5.4,6.9z M5.8,13.9h-4V8.6h4c2.1,0,3.3,0.9,3.3,2.6C9.2,12.9,8,13.9,5.8,13.9z M30.7,9.4V0.3h1.9v9
	c0,3.1,1.5,4.8,4.1,4.8s4.1-1.6,4.1-4.7V0.3h1.9v9c0,4.1-2.1,6.5-6,6.5C32.8,15.8,30.7,13.5,30.7,9.4L30.7,9.4z M49.4,2v13.6h0h1.8
	V2h5.1V0.3H44.3V2H49.4z M58.1,15.6V0.3H60v15.3H58.1z M80.4,9.4V0.3h1.9v9c0,3.1,1.5,4.8,4.1,4.8s4.1-1.6,4.1-4.7V0.3h1.9v9
	c0,4.1-2.1,6.5-6,6.5C82.5,15.8,80.4,13.5,80.4,9.4L80.4,9.4z M95.5,0.3v15.3h10.3v-1.7h-8.4V8.6h7.2V6.9h-7.2V2h8.4V0.3H95.5z
	 M128.3,0.3h1.9v15.3h-1.9v-7h-8.4v7H118V0.3h1.9v6.6h8.4V0.3z M140.4,0c-4.5,0-7.8,3.2-7.8,7.9c0,4.6,3.3,7.9,7.8,7.9
	c4.5,0,7.8-3.2,7.8-7.9C148.3,3.3,144.9,0,140.4,0z M140.4,1.8c3.4,0,5.9,2.4,5.9,6.1c0,3.7-2.5,6.1-5.9,6.1c-3.4,0-5.9-2.4-5.9-6.1
	C134.5,4.2,137,1.8,140.4,1.8z M154.3,15.6V2h-5.1V0.3h12.1V2h-5.1v13.6H154.3L154.3,15.6z M163,0.3v15.3h10.3v-1.7h-8.4V8.6h7.2
	V6.9h-7.2V2h8.4V0.3H163z M175.6,15.6V0.3h1.9v13.6h7.5v1.7H175.6z M203.6,14.4c1.9,1.7,3.6,2.9,4.9,3.6l0,0l1-1.4
	c-1.3-0.7-3-1.8-4.7-3.4c1.5-1.6,2.1-3.5,2.1-6h-1.7c-0.1,2.3-0.5,3.6-1.6,4.8l-3.2-3.3c-2.3-2.4-3.1-3.4-3.1-4.9
	c0-1.2,1-2.2,2.5-2.2c1.2,0,2,0.5,2.9,1.4l1.2-1.3c-1-1-2.5-1.7-4.1-1.7c-2.6,0-4.3,1.7-4.3,3.9c0,1.2,0.3,2,1.2,3.2
	c-1.8,1.1-3,2.2-3,4.4c0,2.5,2.1,4.3,5.4,4.3C200.8,15.8,202.3,15.3,203.6,14.4z M202.5,13.3c-1,0.7-2.1,1-3.2,1v0
	c-2.2,0-3.6-1.2-3.6-2.8c0-1.6,0.8-2.4,2.1-3.2c0.4,0.5,1,1,1.6,1.7L202.5,13.3C202.4,13.2,202.4,13.2,202.5,13.3
	C202.4,13.3,202.4,13.3,202.5,13.3z M219.3,15.6V0.3h2.5l4.8,9.4l4.8-9.4h2.5v15.3h-1.8V3.4v0c0-0.2,0-0.5,0-0.7
	c-0.1,0.2-0.2,0.5-0.4,0.7l-4.2,8.2h-1.9l-4.2-8.3l-0.4-0.7c0,0.2,0,0.5,0,0.7v12.1H219.3z M244.2,0c-4.5,0-7.8,3.2-7.8,7.9
	c0,4.6,3.3,7.9,7.8,7.9c4.5,0,7.8-3.2,7.8-7.9C252,3.3,248.7,0,244.2,0z M244.1,1.8c3.4,0,5.9,2.4,5.9,6.1c0,3.7-2.5,6.1-5.9,6.1
	c-3.4,0-5.9-2.4-5.9-6.1C238.2,4.2,240.7,1.8,244.1,1.8z M265.7,12.6c0.1,1.4,0.4,2.3,0.9,3h-1.9c-0.5-0.5-0.8-1.4-0.9-2.9l0-0.8
	c-0.1-1.8-0.9-2.4-2.7-2.4h-4.8v6.1h-1.9V0.3h6.1c3.2,0,5.2,1.8,5.2,4.6c0,1.7-0.8,2.9-2.2,3.6c1.3,0.4,2,1.3,2.1,3L265.7,12.6
	L265.7,12.6z M256.3,7.7h4.1c2.2,0,3.5-1,3.5-2.8S262.5,2,260.3,2h-4.1V7.7z M268.7,0.3v15.3H279v-1.7h-8.4V8.6h7.2V6.9h-7.2V2h8.4
	V0.3H268.7z"/>
</svg>
