<svg width="189" height="114" viewBox="0 0 189 114" fill="none" xmlns="http://www.w3.org/2000/svg">
<g opacity="0.3">
<path d="M71.0697 113.193L70.3832 113.159V0L70.9667 0.583559L150.399 80.0162L149.936 80.5311L80.2865 23.8744L71.0869 113.21L71.0697 113.193ZM71.0697 1.64769V106.482L79.7201 22.5357L145.199 75.7768L71.0869 1.64769H71.0697Z" fill="url(#paint0_radial_711_58)"/>
<path d="M117.016 113.416L37 33.3829H150.176L150.21 34.0695L60.8744 43.2691L117.531 112.936L117.016 113.399V113.416ZM38.6649 34.0695L112.777 108.199L59.5357 42.7199L143.482 34.0695H38.6649Z" fill="url(#paint1_radial_711_58)"/>
<path d="M150.176 80.5997H37L37.5836 80.0161L117.016 0.583496L117.531 1.04691L60.8744 70.7135L150.21 79.9131L150.176 80.5997V80.5997ZM38.6649 79.9131H143.482L59.5357 71.2627L112.777 5.8012L38.6649 79.9131V79.9131Z" fill="url(#paint2_radial_711_58)"/>
<path d="M70.4003 114V0.823756L71.0868 0.789429L80.2864 90.1254L149.953 33.4687L150.416 33.9836L70.4003 114V114ZM71.0868 7.51752V112.352L145.199 38.2058L79.72 91.447L79.6514 90.8119L71.0868 7.51752V7.51752Z" fill="url(#paint3_radial_711_58)"/>
<path d="M117.617 114L117.034 113.416L37.5837 33.9665L38.0472 33.4515L107.731 90.1254L116.931 0.789429L117.617 0.823756V114ZM42.8014 38.2058L116.931 112.335V7.51752L108.28 91.4641L42.8014 38.2058Z" fill="url(#paint4_radial_711_58)"/>
<path d="M151 80.5997H37.8411L37.8068 79.9132L127.143 70.7136L70.4002 0.943992V0L151 80.5997ZM44.5177 79.9132H149.335L75.2232 5.80126L128.464 71.28L44.5177 79.9304V79.9132Z" fill="url(#paint5_radial_711_58)"/>
<path d="M70.4002 114V113.056L127.125 43.2691L37.6694 34.0523L37 33.3829H151L150.416 33.9665L70.4002 113.983V114ZM44.5176 34.0695L128.464 42.7199L75.2231 108.199L149.335 34.0695H44.5176Z" fill="url(#paint6_radial_711_58)"/>
<path d="M116.93 113.193L107.731 23.8572L37.9612 80.5997H37.0172L117.617 0V113.159L116.93 113.193ZM108.28 22.5185L108.349 23.1535L116.93 106.465V1.64769L42.8013 75.7768L108.28 22.5357V22.5185Z" fill="url(#paint7_radial_711_58)"/>
</g>
<path d="M9.81523 66.25C12.5402 66.25 14.9402 65.1 16.4652 63.075L15.3652 62.15C14.0902 63.925 12.1152 64.9 9.81523 64.9C5.76523 64.9 2.79023 61.85 2.79023 57.375C2.79023 52.9 5.79023 49.85 9.81523 49.85C12.0152 49.85 14.0152 50.825 15.2902 52.55L16.3902 51.65C14.8152 49.625 12.4652 48.5 9.81523 48.5C4.96523 48.5 1.31523 52.15 1.31523 57.375C1.31523 62.6 4.96523 66.25 9.81523 66.25ZM28.0836 66.25C32.9836 66.25 36.6336 62.55 36.6336 57.375C36.6336 52.2 32.9836 48.5 28.0836 48.5C23.1586 48.5 19.5086 52.2 19.5086 57.375C19.5086 62.55 23.1586 66.25 28.0836 66.25ZM28.0836 64.9C24.0086 64.9 20.9836 61.85 20.9836 57.375C20.9836 52.9 24.0086 49.85 28.0836 49.85C32.1336 49.85 35.1586 52.9 35.1586 57.375C35.1586 61.85 32.1336 64.9 28.0836 64.9ZM42.6898 66V51.325C42.6898 51.1 42.6898 50.875 42.6648 50.625L43.0148 51.3L48.3398 61.475H49.8398L55.1648 51.325C55.2898 51.1 55.4148 50.875 55.5398 50.625C55.5148 50.875 55.5148 51.1 55.5148 51.325V66H56.9398V48.75H54.9648L49.1148 59.95L43.2648 48.75H41.2898V66H42.6898ZM64.0094 66V48.75H62.5594V66H64.0094ZM71.0443 66V51.325C71.0443 51.075 71.0443 50.875 71.0193 50.625C71.1693 50.85 71.2943 51.075 71.4443 51.325L81.2193 66H82.9943V48.75H81.5693V63.425C81.5693 63.675 81.5693 63.875 81.5943 64.125C81.4693 63.9 81.3443 63.675 81.1693 63.425L71.4193 48.75H69.6443V66H71.0443ZM96.2184 58.525H101.993V60.35C101.993 63.125 99.4934 64.9 96.2184 64.9C92.0684 64.9 89.1184 61.925 89.1184 57.375C89.1184 52.9 92.1184 49.85 96.1434 49.85C98.7934 49.85 100.818 50.825 102.118 52.55L103.218 51.625C101.618 49.625 99.1684 48.5 96.1434 48.5C91.2934 48.5 87.6434 52.15 87.6434 57.375C87.6434 62.65 91.2684 66.25 96.2184 66.25C98.9684 66.25 101.043 65.2 102.093 63.275V66H103.418V57.25H96.2184V58.525ZM121.365 66.225C124.94 66.225 127.09 64.425 127.09 61.575C127.09 59.075 125.64 57.775 122.24 56.85L120.49 56.35C118.015 55.675 116.915 54.8 116.915 53.05C116.915 51.05 118.44 49.8 120.84 49.8C122.94 49.8 124.265 50.375 125.715 52L126.765 51.05C125.24 49.3 123.365 48.5 120.965 48.5C117.59 48.5 115.465 50.275 115.465 53.075C115.465 55.55 116.965 56.85 120.115 57.725L121.865 58.2C124.64 58.95 125.64 59.825 125.64 61.6C125.64 63.675 124.09 64.925 121.365 64.925C119.015 64.925 117.54 64.225 116.04 62.575L114.99 63.525C116.54 65.325 118.64 66.225 121.365 66.225ZM139.348 66.25C144.248 66.25 147.898 62.55 147.898 57.375C147.898 52.2 144.248 48.5 139.348 48.5C134.423 48.5 130.773 52.2 130.773 57.375C130.773 62.55 134.423 66.25 139.348 66.25ZM139.348 64.9C135.273 64.9 132.248 61.85 132.248 57.375C132.248 52.9 135.273 49.85 139.348 49.85C143.398 49.85 146.423 52.9 146.423 57.375C146.423 61.85 143.398 64.9 139.348 64.9ZM160.129 66.25C165.029 66.25 168.679 62.55 168.679 57.375C168.679 52.2 165.029 48.5 160.129 48.5C155.204 48.5 151.554 52.2 151.554 57.375C151.554 62.55 155.204 66.25 160.129 66.25ZM160.129 64.9C156.054 64.9 153.029 61.85 153.029 57.375C153.029 52.9 156.054 49.85 160.129 49.85C164.179 49.85 167.204 52.9 167.204 57.375C167.204 61.85 164.179 64.9 160.129 64.9ZM174.736 66V51.325C174.736 51.075 174.736 50.875 174.711 50.625C174.861 50.85 174.986 51.075 175.136 51.325L184.911 66H186.686V48.75H185.261V63.425C185.261 63.675 185.261 63.875 185.286 64.125C185.161 63.9 185.036 63.675 184.861 63.425L175.111 48.75H173.336V66H174.736Z" fill="white"/>
<defs>
<radialGradient id="paint0_radial_711_58" cx="0" cy="0" r="1" gradientUnits="userSpaceOnUse" gradientTransform="translate(110.408 56.6052) scale(49.0189 49.0189)">
<stop stop-color="#666665"/>
<stop offset="0.27" stop-color="#686867"/>
<stop offset="0.43" stop-color="#70706F"/>
<stop offset="0.56" stop-color="#7F7F7E"/>
<stop offset="0.68" stop-color="#939392"/>
<stop offset="0.78" stop-color="#ADADAC"/>
<stop offset="0.88" stop-color="#CDCDCD"/>
<stop offset="0.97" stop-color="#F2F2F2"/>
<stop offset="1" stop-color="white"/>
</radialGradient>
<radialGradient id="paint1_radial_711_58" cx="0" cy="0" r="1" gradientUnits="userSpaceOnUse" gradientTransform="translate(93.6052 73.391) scale(49.0189 49.0189)">
<stop stop-color="#666665"/>
<stop offset="0.27" stop-color="#686867"/>
<stop offset="0.43" stop-color="#70706F"/>
<stop offset="0.56" stop-color="#7F7F7E"/>
<stop offset="0.68" stop-color="#939392"/>
<stop offset="0.78" stop-color="#ADADAC"/>
<stop offset="0.88" stop-color="#CDCDCD"/>
<stop offset="0.97" stop-color="#F2F2F2"/>
<stop offset="1" stop-color="white"/>
</radialGradient>
<radialGradient id="paint2_radial_711_58" cx="0" cy="0" r="1" gradientUnits="userSpaceOnUse" gradientTransform="translate(93.6052 40.5916) scale(49.0189)">
<stop stop-color="#666665"/>
<stop offset="0.27" stop-color="#686867"/>
<stop offset="0.43" stop-color="#70706F"/>
<stop offset="0.56" stop-color="#7F7F7E"/>
<stop offset="0.68" stop-color="#939392"/>
<stop offset="0.78" stop-color="#ADADAC"/>
<stop offset="0.88" stop-color="#CDCDCD"/>
<stop offset="0.97" stop-color="#F2F2F2"/>
<stop offset="1" stop-color="white"/>
</radialGradient>
<radialGradient id="paint3_radial_711_58" cx="0" cy="0" r="1" gradientUnits="userSpaceOnUse" gradientTransform="translate(9.5557 57.3946) scale(0.858174)">
<stop stop-color="#666665"/>
<stop offset="0.27" stop-color="#686867"/>
<stop offset="0.43" stop-color="#70706F"/>
<stop offset="0.56" stop-color="#7F7F7E"/>
<stop offset="0.68" stop-color="#939392"/>
<stop offset="0.78" stop-color="#ADADAC"/>
<stop offset="0.88" stop-color="#CDCDCD"/>
<stop offset="0.97" stop-color="#F2F2F2"/>
<stop offset="1" stop-color="white"/>
</radialGradient>
<radialGradient id="paint4_radial_711_58" cx="0" cy="0" r="1" gradientUnits="userSpaceOnUse" gradientTransform="translate(77.609 57.3946) scale(0.858174)">
<stop stop-color="#666665"/>
<stop offset="0.27" stop-color="#686867"/>
<stop offset="0.43" stop-color="#70706F"/>
<stop offset="0.56" stop-color="#7F7F7E"/>
<stop offset="0.68" stop-color="#939392"/>
<stop offset="0.78" stop-color="#ADADAC"/>
<stop offset="0.88" stop-color="#CDCDCD"/>
<stop offset="0.97" stop-color="#F2F2F2"/>
<stop offset="1" stop-color="white"/>
</radialGradient>
<radialGradient id="paint5_radial_711_58" cx="0" cy="0" r="1" gradientUnits="userSpaceOnUse" gradientTransform="translate(94.3948 40.2999) scale(49.1391 49.1391)">
<stop stop-color="#666665"/>
<stop offset="0.27" stop-color="#686867"/>
<stop offset="0.43" stop-color="#70706F"/>
<stop offset="0.56" stop-color="#7F7F7E"/>
<stop offset="0.68" stop-color="#939392"/>
<stop offset="0.78" stop-color="#ADADAC"/>
<stop offset="0.88" stop-color="#CDCDCD"/>
<stop offset="0.97" stop-color="#F2F2F2"/>
<stop offset="1" stop-color="white"/>
</radialGradient>
<radialGradient id="paint6_radial_711_58" cx="0" cy="0" r="1" gradientUnits="userSpaceOnUse" gradientTransform="translate(94 73.6828) scale(49.3622 49.3622)">
<stop stop-color="#666665"/>
<stop offset="0.27" stop-color="#686867"/>
<stop offset="0.43" stop-color="#70706F"/>
<stop offset="0.56" stop-color="#7F7F7E"/>
<stop offset="0.68" stop-color="#939392"/>
<stop offset="0.78" stop-color="#ADADAC"/>
<stop offset="0.88" stop-color="#CDCDCD"/>
<stop offset="0.97" stop-color="#F2F2F2"/>
<stop offset="1" stop-color="white"/>
</radialGradient>
<radialGradient id="paint7_radial_711_58" cx="0" cy="0" r="1" gradientUnits="userSpaceOnUse" gradientTransform="translate(77.2999 0.858175) scale(49.1391 49.1391)">
<stop stop-color="#666665"/>
<stop offset="0.27" stop-color="#686867"/>
<stop offset="0.43" stop-color="#70706F"/>
<stop offset="0.56" stop-color="#7F7F7E"/>
<stop offset="0.68" stop-color="#939392"/>
<stop offset="0.78" stop-color="#ADADAC"/>
<stop offset="0.88" stop-color="#CDCDCD"/>
<stop offset="0.97" stop-color="#F2F2F2"/>
<stop offset="1" stop-color="white"/>
</radialGradient>
</defs>
</svg>
